<svg width="21" height="20" viewBox="0 0 21 20" fill="none" xmlns="http://www.w3.org/2000/svg">
<path d="M18.8084 15.2748C18.8084 15.5748 18.7417 15.8832 18.6 16.1832C18.4584 16.4832 18.275 16.7665 18.0334 17.0332C17.625 17.4832 17.175 17.8082 16.6667 18.0165C16.1667 18.2248 15.625 18.3332 15.0417 18.3332C14.1917 18.3332 13.2834 18.1332 12.325 17.7248C11.3667 17.3165 10.4084 16.7665 9.45835 16.0748C8.50002 15.3748 7.59169 14.5998 6.72502 13.7415C5.86669 12.8748 5.09169 11.9665 4.40002 11.0165C3.71669 10.0665 3.16669 9.1165 2.76669 8.17484C2.36669 7.22484 2.16669 6.3165 2.16669 5.44984C2.16669 4.88317 2.26669 4.3415 2.46669 3.8415C2.66669 3.33317 2.98335 2.8665 3.42502 2.44984C3.95835 1.92484 4.54169 1.6665 5.15835 1.6665C5.39169 1.6665 5.62502 1.7165 5.83335 1.8165C6.05002 1.9165 6.24169 2.0665 6.39169 2.28317L8.32502 5.00817C8.47502 5.2165 8.58335 5.40817 8.65835 5.5915C8.73335 5.7665 8.77502 5.9415 8.77502 6.09984C8.77502 6.29984 8.71669 6.49984 8.60002 6.6915C8.49169 6.88317 8.33335 7.08317 8.13335 7.28317L7.50002 7.9415C7.40835 8.03317 7.36669 8.1415 7.36669 8.27484C7.36669 8.3415 7.37502 8.39984 7.39169 8.4665C7.41669 8.53317 7.44169 8.58317 7.45835 8.63317C7.60835 8.90817 7.86669 9.2665 8.23335 9.69984C8.60835 10.1332 9.00835 10.5748 9.44169 11.0165C9.89169 11.4582 10.325 11.8665 10.7667 12.2415C11.2 12.6082 11.5584 12.8582 11.8417 13.0082C11.8834 13.0248 11.9334 13.0498 11.9917 13.0748C12.0584 13.0998 12.125 13.1082 12.2 13.1082C12.3417 13.1082 12.45 13.0582 12.5417 12.9665L13.175 12.3415C13.3834 12.1332 13.5834 11.9748 13.775 11.8748C13.9667 11.7582 14.1584 11.6998 14.3667 11.6998C14.525 11.6998 14.6917 11.7332 14.875 11.8082C15.0584 11.8832 15.25 11.9915 15.4584 12.1332L18.2167 14.0915C18.4334 14.2415 18.5834 14.4165 18.675 14.6248C18.7584 14.8332 18.8084 15.0415 18.8084 15.2748Z" stroke="url(#paint0_linear_117_1973)" stroke-width="1.5" stroke-miterlimit="10"/>
<defs>
<linearGradient id="paint0_linear_117_1973" x1="-1.03363" y1="-1.28221" x2="21.2738" y2="20.8638" gradientUnits="userSpaceOnUse">
<stop stop-color="#851FC0"/>
<stop offset="1" stop-color="#4D15BE"/>
</linearGradient>
</defs>
</svg>
