<svg width="20" height="20" viewBox="0 0 20 20" fill="none" xmlns="http://www.w3.org/2000/svg">
<path d="M9.99999 11.1917C11.4359 11.1917 12.6 10.0277 12.6 8.59167C12.6 7.15576 11.4359 5.9917 9.99999 5.9917C8.56408 5.9917 7.39999 7.15576 7.39999 8.59167C7.39999 10.0277 8.56408 11.1917 9.99999 11.1917Z" stroke="url(#paint0_linear_117_1968)" stroke-width="1.5"/>
<path d="M3.01667 7.07484C4.65834 -0.141828 15.35 -0.133493 16.9833 7.08317C17.9417 11.3165 15.3083 14.8998 13 17.1165C11.325 18.7332 8.675 18.7332 6.99167 17.1165C4.69167 14.8998 2.05834 11.3082 3.01667 7.07484Z" stroke="url(#paint1_linear_117_1968)" stroke-width="1.5"/>
<defs>
<linearGradient id="paint0_linear_117_1968" x1="6.39999" y1="5.07171" x2="13.36" y2="11.9917" gradientUnits="userSpaceOnUse">
<stop stop-color="#851FC0"/>
<stop offset="1" stop-color="#4D15BE"/>
</linearGradient>
<linearGradient id="paint1_linear_117_1968" x1="0.0506794" y1="-1.28148" x2="22.0923" y2="17.6199" gradientUnits="userSpaceOnUse">
<stop stop-color="#851FC0"/>
<stop offset="1" stop-color="#4D15BE"/>
</linearGradient>
</defs>
</svg>
