<svg width="570" height="475" viewBox="0 0 570 475" fill="none" xmlns="http://www.w3.org/2000/svg">
<g clip-path="url(#clip0_648_12669)">
<g filter="url(#filter0_d_648_12669)">
<rect x="48" y="126" width="272" height="193.308" rx="12.458" fill="white"/>
<path fill-rule="evenodd" clip-rule="evenodd" d="M62.5409 152.516C62.5409 151.571 63.3068 150.805 64.2516 150.805H141.01C141.955 150.805 142.721 151.571 142.721 152.516V155.082C142.721 156.026 141.955 156.792 141.01 156.792H64.2516C63.3068 156.792 62.5409 156.026 62.5409 155.082V152.516Z" fill="#F1F3F8"/>
<path fill-rule="evenodd" clip-rule="evenodd" d="M62.5408 172.188C62.5408 171.244 63.3067 170.478 64.2515 170.478H105.086C106.031 170.478 106.796 171.244 106.796 172.188V174.755C106.796 175.699 106.031 176.465 105.086 176.465H64.2515C63.3067 176.465 62.5408 175.699 62.5408 174.755V172.188Z" fill="#F1F3F8"/>
<path fill-rule="evenodd" clip-rule="evenodd" d="M62.5408 191.861C62.5408 190.917 63.3067 190.151 64.2515 190.151H105.086C106.031 190.151 106.796 190.917 106.796 191.861V194.427C106.796 195.372 106.031 196.138 105.086 196.138H64.2515C63.3067 196.138 62.5408 195.372 62.5408 194.427V191.861Z" fill="#F1F3F8"/>
<path fill-rule="evenodd" clip-rule="evenodd" d="M62.5408 211.534C62.5408 210.59 63.3067 209.824 64.2515 209.824H156.412C157.357 209.824 158.123 210.59 158.123 211.534V214.1C158.123 215.045 157.357 215.811 156.412 215.811H64.2515C63.3067 215.811 62.5408 215.045 62.5408 214.1V211.534Z" fill="#F1F3F8"/>
<path fill-rule="evenodd" clip-rule="evenodd" d="M62.5408 231.207C62.5408 230.263 63.3067 229.497 64.2515 229.497H129.035C129.98 229.497 130.746 230.263 130.746 231.207V233.773C130.746 234.718 129.98 235.484 129.035 235.484H64.2515C63.3067 235.484 62.5408 234.718 62.5408 233.773V231.207Z" fill="#F1F3F8"/>
<path fill-rule="evenodd" clip-rule="evenodd" d="M62.5408 250.88C62.5408 249.936 63.3067 249.17 64.2515 249.17H156.412C157.357 249.17 158.123 249.936 158.123 250.88V253.446C158.123 254.391 157.357 255.157 156.412 255.157H64.2515C63.3067 255.157 62.5408 254.391 62.5408 253.446V250.88Z" fill="#F1F3F8"/>
<path fill-rule="evenodd" clip-rule="evenodd" d="M62.5408 270.553C62.5408 269.609 63.3067 268.843 64.2515 268.843H122.193C123.137 268.843 123.903 269.609 123.903 270.553V273.119C123.903 274.064 123.137 274.83 122.193 274.83H64.2515C63.3067 274.83 62.5408 274.064 62.5408 273.119V270.553Z" fill="#F1F3F8"/>
<path fill-rule="evenodd" clip-rule="evenodd" d="M62.5408 290.226C62.5408 289.282 63.3067 288.516 64.2515 288.516H156.412C157.357 288.516 158.123 289.282 158.123 290.226V292.792C158.123 293.737 157.357 294.503 156.412 294.503H64.2515C63.3067 294.503 62.5408 293.737 62.5408 292.792V290.226Z" fill="#F1F3F8"/>
<path fill-rule="evenodd" clip-rule="evenodd" d="M230.189 152.516C230.189 151.571 230.955 150.805 231.899 150.805H255.849C256.794 150.805 257.56 151.571 257.56 152.516V155.082C257.56 156.026 256.794 156.792 255.849 156.792H231.899C230.955 156.792 230.189 156.026 230.189 155.082V152.516Z" fill="#F1F3F8"/>
<path fill-rule="evenodd" clip-rule="evenodd" d="M230.189 172.188C230.189 171.244 230.955 170.478 231.899 170.478H255.849C256.794 170.478 257.56 171.244 257.56 172.188V174.755C257.56 175.699 256.794 176.465 255.849 176.465H231.899C230.955 176.465 230.189 175.699 230.189 174.755V172.188Z" fill="#F1F3F8"/>
<path fill-rule="evenodd" clip-rule="evenodd" d="M230.189 191.861C230.189 190.917 230.955 190.151 231.899 190.151H255.849C256.794 190.151 257.56 190.917 257.56 191.861V194.427C257.56 195.372 256.794 196.138 255.849 196.138H231.899C230.955 196.138 230.189 195.372 230.189 194.427V191.861Z" fill="#F1F3F8"/>
<path fill-rule="evenodd" clip-rule="evenodd" d="M230.189 211.534C230.189 210.59 230.955 209.824 231.899 209.824H255.849C256.794 209.824 257.56 210.59 257.56 211.534V214.1C257.56 215.045 256.794 215.811 255.849 215.811H231.899C230.955 215.811 230.189 215.045 230.189 214.1V211.534Z" fill="#F1F3F8"/>
<path fill-rule="evenodd" clip-rule="evenodd" d="M230.189 231.207C230.189 230.263 230.955 229.497 231.899 229.497H255.849C256.794 229.497 257.56 230.263 257.56 231.207V233.773C257.56 234.718 256.794 235.484 255.849 235.484H231.899C230.955 235.484 230.189 234.718 230.189 233.773V231.207Z" fill="#F1F3F8"/>
<path fill-rule="evenodd" clip-rule="evenodd" d="M230.189 250.88C230.189 249.936 230.955 249.17 231.899 249.17H255.849C256.794 249.17 257.56 249.936 257.56 250.88V253.446C257.56 254.391 256.794 255.157 255.849 255.157H231.899C230.955 255.157 230.189 254.391 230.189 253.446V250.88Z" fill="#F1F3F8"/>
<path fill-rule="evenodd" clip-rule="evenodd" d="M230.189 270.553C230.189 269.609 230.955 268.843 231.899 268.843H255.849C256.794 268.843 257.56 269.609 257.56 270.553V273.119C257.56 274.064 256.794 274.83 255.849 274.83H231.899C230.955 274.83 230.189 274.064 230.189 273.119V270.553Z" fill="#F1F3F8"/>
<path fill-rule="evenodd" clip-rule="evenodd" d="M230.189 290.226C230.189 289.282 230.955 288.516 231.899 288.516H255.849C256.794 288.516 257.56 289.282 257.56 290.226V292.792C257.56 293.737 256.794 294.503 255.849 294.503H231.899C230.955 294.503 230.189 293.737 230.189 292.792V290.226Z" fill="#F1F3F8"/>
<path fill-rule="evenodd" clip-rule="evenodd" d="M278.088 152.516C278.088 151.571 278.854 150.805 279.799 150.805H303.748C304.693 150.805 305.459 151.571 305.459 152.516V155.082C305.459 156.026 304.693 156.792 303.748 156.792H279.799C278.854 156.792 278.088 156.026 278.088 155.082V152.516Z" fill="#F1F3F8"/>
<path fill-rule="evenodd" clip-rule="evenodd" d="M278.088 172.188C278.088 171.244 278.854 170.478 279.799 170.478H303.748C304.693 170.478 305.459 171.244 305.459 172.188V174.755C305.459 175.699 304.693 176.465 303.748 176.465H279.799C278.854 176.465 278.088 175.699 278.088 174.755V172.188Z" fill="#F1F3F8"/>
<path fill-rule="evenodd" clip-rule="evenodd" d="M278.088 191.861C278.088 190.917 278.854 190.151 279.799 190.151H303.748C304.693 190.151 305.459 190.917 305.459 191.861V194.427C305.459 195.372 304.693 196.138 303.748 196.138H279.799C278.854 196.138 278.088 195.372 278.088 194.427V191.861Z" fill="#F1F3F8"/>
<path fill-rule="evenodd" clip-rule="evenodd" d="M278.088 211.534C278.088 210.59 278.854 209.824 279.799 209.824H303.748C304.693 209.824 305.459 210.59 305.459 211.534V214.1C305.459 215.045 304.693 215.811 303.748 215.811H279.799C278.854 215.811 278.088 215.045 278.088 214.1V211.534Z" fill="#F1F3F8"/>
<path fill-rule="evenodd" clip-rule="evenodd" d="M278.088 231.207C278.088 230.263 278.854 229.497 279.799 229.497H303.748C304.693 229.497 305.459 230.263 305.459 231.207V233.773C305.459 234.718 304.693 235.484 303.748 235.484H279.799C278.854 235.484 278.088 234.718 278.088 233.773V231.207Z" fill="#F1F3F8"/>
<path fill-rule="evenodd" clip-rule="evenodd" d="M278.088 250.88C278.088 249.936 278.854 249.17 279.799 249.17H303.748C304.693 249.17 305.459 249.936 305.459 250.88V253.446C305.459 254.391 304.693 255.157 303.748 255.157H279.799C278.854 255.157 278.088 254.391 278.088 253.446V250.88Z" fill="#F1F3F8"/>
<path fill-rule="evenodd" clip-rule="evenodd" d="M278.088 270.553C278.088 269.609 278.854 268.843 279.799 268.843H303.748C304.693 268.843 305.459 269.609 305.459 270.553V273.119C305.459 274.064 304.693 274.83 303.748 274.83H279.799C278.854 274.83 278.088 274.064 278.088 273.119V270.553Z" fill="#F1F3F8"/>
<path fill-rule="evenodd" clip-rule="evenodd" d="M278.088 290.226C278.088 289.282 278.854 288.516 279.799 288.516H303.748C304.693 288.516 305.459 289.282 305.459 290.226V292.792C305.459 293.737 304.693 294.503 303.748 294.503H279.799C278.854 294.503 278.088 293.737 278.088 292.792V290.226Z" fill="#F1F3F8"/>
</g>
<g filter="url(#filter1_d_648_12669)">
<rect x="260" y="33" width="261" height="172.544" rx="13.1046" fill="white"/>
<g clip-path="url(#clip1_648_12669)">
<path d="M262.703 111.143V111.143C267.047 111.143 271.326 110.085 275.17 108.06L333.201 77.4912C356.143 65.406 383.699 66.024 406.076 79.1254V79.1254C427.824 91.8581 454.511 92.8223 477.121 81.6922L503.105 68.9007C507.239 66.8657 511.785 65.8074 516.392 65.8074V65.8074" stroke="#FF3A29" stroke-width="2.37292" stroke-linecap="round" stroke-linejoin="round"/>
<path d="M262.751 135.387V135.387C268.672 135.387 274.546 136.433 280.103 138.478L298.909 145.397C311.38 149.985 325.171 149.365 337.18 143.677L365.611 130.21C373.208 126.612 382.294 129.532 386.373 136.882V136.882C391.005 145.23 401.886 147.662 409.631 142.08L426.508 129.917C435.595 123.368 447.301 121.649 457.887 125.31L474.732 131.136C484.715 134.588 495.795 131.718 502.846 123.854L506.771 119.477C509.251 116.71 512.791 115.13 516.506 115.13V115.13" stroke="#34B53A" stroke-width="2.37292" stroke-linecap="round" stroke-linejoin="round"/>
<path d="M262.751 140.787V140.787C268.168 140.787 273.554 139.964 278.725 138.348L310.023 128.564C318.524 125.907 327.771 127.237 335.178 132.182L349.682 141.864C359.64 148.512 373.177 143.244 376.023 131.614V131.614C377.462 125.733 381.878 121.036 387.659 119.238L427.735 106.775C436.529 104.041 445.686 102.65 454.896 102.65H516.506" stroke="#FFB200" stroke-width="2.37292" stroke-linecap="round" stroke-linejoin="round"/>
<path d="M262.751 115.13V115.13C269.148 115.13 275.455 113.627 281.164 110.741L294.507 103.998C308.543 96.9038 324.85 95.784 339.723 100.893L353.782 105.721C364.206 109.302 375.741 107.212 384.245 100.202V100.202C393.098 92.9056 405.201 90.9606 415.894 95.116L435.141 102.596C442.873 105.6 451.096 107.142 459.391 107.142H516.506" stroke="#4339F2" stroke-width="2.37292" stroke-linecap="round" stroke-linejoin="round"/>
</g>
<path fill-rule="evenodd" clip-rule="evenodd" d="M297.561 193.242C299.855 193.242 301.714 191.383 301.714 189.089C301.714 186.796 299.855 184.937 297.561 184.937C295.268 184.937 293.409 186.796 293.409 189.089C293.409 191.383 295.268 193.242 297.561 193.242Z" fill="#34B53A"/>
<rect x="305.273" y="186.716" width="26.0028" height="4.74584" rx="1.18646" fill="#F1F3F8"/>
<path fill-rule="evenodd" clip-rule="evenodd" d="M349.666 193.242C351.96 193.242 353.819 191.383 353.819 189.09C353.819 186.796 351.96 184.937 349.666 184.937C347.373 184.937 345.514 186.796 345.514 189.09C345.514 191.383 347.373 193.242 349.666 193.242Z" fill="#FFB200"/>
<rect x="357.378" y="186.717" width="26.0028" height="4.74584" rx="1.18646" fill="#F1F3F8"/>
<path fill-rule="evenodd" clip-rule="evenodd" d="M401.771 193.242C404.065 193.242 405.924 191.383 405.924 189.09C405.924 186.796 404.065 184.937 401.771 184.937C399.478 184.937 397.619 186.796 397.619 189.09C397.619 191.383 399.478 193.242 401.771 193.242Z" fill="#FF3A29"/>
<rect x="409.483" y="186.717" width="26.0028" height="4.74584" rx="1.18646" fill="#F1F3F8"/>
<path fill-rule="evenodd" clip-rule="evenodd" d="M453.876 193.242C456.169 193.242 458.029 191.383 458.029 189.09C458.029 186.796 456.169 184.937 453.876 184.937C451.583 184.937 449.723 186.796 449.723 189.09C449.723 191.383 451.583 193.242 453.876 193.242Z" fill="#4339F2"/>
<rect x="461.588" y="186.717" width="26.0028" height="4.74584" rx="1.18646" fill="#F1F3F8"/>
</g>
<g filter="url(#filter2_d_648_12669)">
<rect x="233" y="274" width="204" height="151" rx="12" fill="white"/>
<g clip-path="url(#clip2_648_12669)">
<path fill-rule="evenodd" clip-rule="evenodd" d="M246.934 294H307.973V299.711H246.934V294Z" fill="#34B53A"/>
<path fill-rule="evenodd" clip-rule="evenodd" d="M307.973 294H369.012V299.711H307.973V294Z" fill="#FFB200"/>
</g>
<g clip-path="url(#clip3_648_12669)">
<path fill-rule="evenodd" clip-rule="evenodd" d="M246.934 313.138H312.256V318.849H246.934V313.138Z" fill="#34B53A"/>
<path fill-rule="evenodd" clip-rule="evenodd" d="M312.256 313.138H377.578V318.849H312.256V313.138Z" fill="#FFB200"/>
</g>
<g clip-path="url(#clip4_648_12669)">
<path fill-rule="evenodd" clip-rule="evenodd" d="M246.934 332.275H321.894V337.986H246.934V332.275Z" fill="#34B53A"/>
<path fill-rule="evenodd" clip-rule="evenodd" d="M321.894 332.275H396.854V337.986H321.894V332.275Z" fill="#FFB200"/>
</g>
<g clip-path="url(#clip5_648_12669)">
<path fill-rule="evenodd" clip-rule="evenodd" d="M246.934 351.413H325.821V357.124H246.934V351.413Z" fill="#34B53A"/>
<path fill-rule="evenodd" clip-rule="evenodd" d="M325.821 351.413H404.707V357.124H325.821V351.413Z" fill="#FFB200"/>
</g>
<g clip-path="url(#clip6_648_12669)">
<path fill-rule="evenodd" clip-rule="evenodd" d="M246.934 370.55H313.327V376.261H246.934V370.55Z" fill="#34B53A"/>
<path fill-rule="evenodd" clip-rule="evenodd" d="M313.327 370.55H379.72V376.261H313.327V370.55Z" fill="#FFB200"/>
</g>
<g clip-path="url(#clip7_648_12669)">
<path fill-rule="evenodd" clip-rule="evenodd" d="M246.934 389.688H321.894V395.399H246.934V389.688Z" fill="#34B53A"/>
<path fill-rule="evenodd" clip-rule="evenodd" d="M321.894 389.688H396.854V395.399H321.894V389.688Z" fill="#FFB200"/>
</g>
<path fill-rule="evenodd" clip-rule="evenodd" d="M300.993 413C302.54 413 303.794 411.746 303.794 410.199C303.794 408.653 302.54 407.399 300.993 407.399C299.446 407.399 298.192 408.653 298.192 410.199C298.192 411.746 299.446 413 300.993 413Z" fill="#34B53A"/>
<rect x="306.194" y="408.599" width="24.0049" height="3.20066" rx="0.800165" fill="#F1F3F8"/>
<path fill-rule="evenodd" clip-rule="evenodd" d="M342.602 413C344.148 413 345.402 411.746 345.402 410.2C345.402 408.653 344.148 407.399 342.602 407.399C341.055 407.399 339.801 408.653 339.801 410.2C339.801 411.746 341.055 413 342.602 413Z" fill="#FFB200"/>
<rect x="347.803" y="408.599" width="24.0049" height="3.20066" rx="0.800165" fill="#F1F3F8"/>
</g>
<path opacity="0.6" d="M114 125C114 125.552 114.448 126 115 126C115.552 126 116 125.552 116 125H114ZM259.707 91.7071C260.098 91.3166 260.098 90.6834 259.707 90.2929L253.343 83.9289C252.953 83.5384 252.319 83.5384 251.929 83.9289C251.538 84.3195 251.538 84.9526 251.929 85.3431L257.586 91L251.929 96.6569C251.538 97.0474 251.538 97.6805 251.929 98.0711C252.319 98.4616 252.953 98.4616 253.343 98.0711L259.707 91.7071ZM116 123.5C116 122.948 115.552 122.5 115 122.5C114.448 122.5 114 122.948 114 123.5H116ZM114 117.5C114 118.052 114.448 118.5 115 118.5C115.552 118.5 116 118.052 116 117.5H114ZM116 114.5C116 113.948 115.552 113.5 115 113.5C114.448 113.5 114 113.948 114 114.5H116ZM114 108.5C114 109.052 114.448 109.5 115 109.5C115.552 109.5 116 109.052 116 108.5H114ZM116.056 105.69C116.104 105.14 115.696 104.656 115.146 104.608C114.596 104.561 114.111 104.968 114.064 105.518L116.056 105.69ZM115.59 99.8132C115.356 100.314 115.572 100.909 116.072 101.142C116.573 101.376 117.168 101.16 117.402 100.66L115.59 99.8132ZM118.711 98.3964C119.028 97.9443 118.919 97.3206 118.467 97.0035C118.015 96.6863 117.391 96.7957 117.074 97.2478L118.711 98.3964ZM121.248 93.0737C120.796 93.3909 120.686 94.0145 121.003 94.4666C121.321 94.9188 121.944 95.0282 122.396 94.711L121.248 93.0737ZM124.66 93.4017C125.16 93.1679 125.376 92.5728 125.142 92.0724C124.909 91.572 124.314 91.3559 123.813 91.5896L124.66 93.4017ZM129.518 90.0637C128.968 90.1113 128.561 90.5959 128.608 91.1461C128.656 91.6963 129.14 92.1039 129.69 92.0563L129.518 90.0637ZM132.524 92C133.076 92 133.524 91.5523 133.524 91C133.524 90.4477 133.076 90 132.524 90V92ZM138.619 90C138.067 90 137.619 90.4477 137.619 91C137.619 91.5523 138.067 92 138.619 92V90ZM141.667 92C142.219 92 142.667 91.5523 142.667 91C142.667 90.4477 142.219 90 141.667 90V92ZM147.762 90C147.21 90 146.762 90.4477 146.762 91C146.762 91.5523 147.21 92 147.762 92V90ZM150.81 92C151.362 92 151.81 91.5523 151.81 91C151.81 90.4477 151.362 90 150.81 90V92ZM156.905 90C156.352 90 155.905 90.4477 155.905 91C155.905 91.5523 156.352 92 156.905 92V90ZM159.952 92C160.505 92 160.952 91.5523 160.952 91C160.952 90.4477 160.505 90 159.952 90V92ZM166.048 90C165.495 90 165.048 90.4477 165.048 91C165.048 91.5523 165.495 92 166.048 92V90ZM169.095 92C169.648 92 170.095 91.5523 170.095 91C170.095 90.4477 169.648 90 169.095 90V92ZM175.19 90C174.638 90 174.19 90.4477 174.19 91C174.19 91.5523 174.638 92 175.19 92V90ZM178.238 92C178.79 92 179.238 91.5523 179.238 91C179.238 90.4477 178.79 90 178.238 90V92ZM184.333 90C183.781 90 183.333 90.4477 183.333 91C183.333 91.5523 183.781 92 184.333 92V90ZM187.381 92C187.933 92 188.381 91.5523 188.381 91C188.381 90.4477 187.933 90 187.381 90V92ZM193.476 90C192.924 90 192.476 90.4477 192.476 91C192.476 91.5523 192.924 92 193.476 92V90ZM196.524 92C197.076 92 197.524 91.5523 197.524 91C197.524 90.4477 197.076 90 196.524 90V92ZM202.619 90C202.067 90 201.619 90.4477 201.619 91C201.619 91.5523 202.067 92 202.619 92V90ZM205.667 92C206.219 92 206.667 91.5523 206.667 91C206.667 90.4477 206.219 90 205.667 90V92ZM211.762 90C211.21 90 210.762 90.4477 210.762 91C210.762 91.5523 211.21 92 211.762 92V90ZM214.81 92C215.362 92 215.81 91.5523 215.81 91C215.81 90.4477 215.362 90 214.81 90V92ZM220.905 90C220.352 90 219.905 90.4477 219.905 91C219.905 91.5523 220.352 92 220.905 92V90ZM223.952 92C224.505 92 224.952 91.5523 224.952 91C224.952 90.4477 224.505 90 223.952 90V92ZM230.048 90C229.495 90 229.048 90.4477 229.048 91C229.048 91.5523 229.495 92 230.048 92V90ZM233.095 92C233.648 92 234.095 91.5523 234.095 91C234.095 90.4477 233.648 90 233.095 90V92ZM239.19 90C238.638 90 238.19 90.4477 238.19 91C238.19 91.5523 238.638 92 239.19 92V90ZM242.238 92C242.79 92 243.238 91.5523 243.238 91C243.238 90.4477 242.79 90 242.238 90V92ZM248.333 90C247.781 90 247.333 90.4477 247.333 91C247.333 91.5523 247.781 92 248.333 92V90ZM251.381 92C251.933 92 252.381 91.5523 252.381 91C252.381 90.4477 251.933 90 251.381 90V92ZM257.476 90C256.924 90 256.476 90.4477 256.476 91C256.476 91.5523 256.924 92 257.476 92V90ZM116 125V123.5H114V125H116ZM116 117.5V114.5H114V117.5H116ZM116 108.5V107H114V108.5H116ZM116 107C116 106.559 116.019 106.122 116.056 105.69L114.064 105.518C114.022 106.007 114 106.501 114 107H116ZM117.402 100.66C117.773 99.865 118.212 99.1081 118.711 98.3964L117.074 97.2478C116.508 98.0542 116.011 98.9121 115.59 99.8132L117.402 100.66ZM122.396 94.711C123.108 94.2117 123.865 93.7728 124.66 93.4017L123.813 91.5896C122.912 92.0105 122.054 92.5081 121.248 93.0737L122.396 94.711ZM129.69 92.0563C130.122 92.019 130.559 92 131 92V90C130.501 90 130.007 90.0215 129.518 90.0637L129.69 92.0563ZM131 92H132.524V90H131V92ZM138.619 92H141.667V90H138.619V92ZM147.762 92H150.81V90H147.762V92ZM156.905 92H159.952V90H156.905V92ZM166.048 92H169.095V90H166.048V92ZM175.19 92H178.238V90H175.19V92ZM184.333 92H187.381V90H184.333V92ZM193.476 92H196.524V90H193.476V92ZM202.619 92H205.667V90H202.619V92ZM211.762 92H214.81V90H211.762V92ZM220.905 92H223.952V90H220.905V92ZM230.048 92H233.095V90H230.048V92ZM239.19 92H242.238V90H239.19V92ZM248.333 92H251.381V90H248.333V92ZM257.476 92H259V90H257.476V92Z" fill="url(#paint0_linear_648_12669)"/>
<path opacity="0.6" d="M144 319C144 318.448 143.552 318 143 318C142.448 318 142 318.448 142 319H144ZM233.707 367.707C234.098 367.317 234.098 366.683 233.707 366.293L227.343 359.929C226.953 359.538 226.319 359.538 225.929 359.929C225.538 360.319 225.538 360.953 225.929 361.343L231.586 367L225.929 372.657C225.538 373.047 225.538 373.681 225.929 374.071C226.319 374.462 226.953 374.462 227.343 374.071L233.707 367.707ZM142 320.333C142 320.886 142.448 321.333 143 321.333C143.552 321.333 144 320.886 144 320.333H142ZM144 325.667C144 325.114 143.552 324.667 143 324.667C142.448 324.667 142 325.114 142 325.667H144ZM142 328.333C142 328.886 142.448 329.333 143 329.333C143.552 329.333 144 328.886 144 328.333H142ZM144 333.667C144 333.114 143.552 332.667 143 332.667C142.448 332.667 142 333.114 142 333.667H144ZM142 336.333C142 336.886 142.448 337.333 143 337.333C143.552 337.333 144 336.886 144 336.333H142ZM144 341.667C144 341.114 143.552 340.667 143 340.667C142.448 340.667 142 341.114 142 341.667H144ZM142 344.333C142 344.886 142.448 345.333 143 345.333C143.552 345.333 144 344.886 144 344.333H142ZM144 349.667C144 349.114 143.552 348.667 143 348.667C142.448 348.667 142 349.114 142 349.667H144ZM142.064 352.482C142.111 353.032 142.596 353.439 143.146 353.392C143.696 353.344 144.104 352.86 144.056 352.31L142.064 352.482ZM145.402 357.34C145.168 356.84 144.573 356.624 144.072 356.858C143.572 357.091 143.356 357.686 143.59 358.187L145.402 357.34ZM145.074 360.752C145.391 361.204 146.015 361.314 146.467 360.997C146.919 360.679 147.028 360.056 146.711 359.604L145.074 360.752ZM150.396 363.289C149.944 362.972 149.321 363.081 149.003 363.533C148.686 363.985 148.796 364.609 149.248 364.926L150.396 363.289ZM151.813 366.41C152.314 366.644 152.909 366.428 153.142 365.928C153.376 365.427 153.16 364.832 152.66 364.598L151.813 366.41ZM157.69 365.944C157.14 365.896 156.656 366.304 156.608 366.854C156.561 367.404 156.968 367.889 157.518 367.936L157.69 365.944ZM160.542 368C161.094 368 161.542 367.552 161.542 367C161.542 366.448 161.094 366 160.542 366V368ZM166.708 366C166.156 366 165.708 366.448 165.708 367C165.708 367.552 166.156 368 166.708 368V366ZM169.792 368C170.344 368 170.792 367.552 170.792 367C170.792 366.448 170.344 366 169.792 366V368ZM175.958 366C175.406 366 174.958 366.448 174.958 367C174.958 367.552 175.406 368 175.958 368V366ZM179.042 368C179.594 368 180.042 367.552 180.042 367C180.042 366.448 179.594 366 179.042 366V368ZM185.208 366C184.656 366 184.208 366.448 184.208 367C184.208 367.552 184.656 368 185.208 368V366ZM188.292 368C188.844 368 189.292 367.552 189.292 367C189.292 366.448 188.844 366 188.292 366V368ZM194.458 366C193.906 366 193.458 366.448 193.458 367C193.458 367.552 193.906 368 194.458 368V366ZM197.542 368C198.094 368 198.542 367.552 198.542 367C198.542 366.448 198.094 366 197.542 366V368ZM203.708 366C203.156 366 202.708 366.448 202.708 367C202.708 367.552 203.156 368 203.708 368V366ZM206.792 368C207.344 368 207.792 367.552 207.792 367C207.792 366.448 207.344 366 206.792 366V368ZM212.958 366C212.406 366 211.958 366.448 211.958 367C211.958 367.552 212.406 368 212.958 368V366ZM216.042 368C216.594 368 217.042 367.552 217.042 367C217.042 366.448 216.594 366 216.042 366V368ZM222.208 366C221.656 366 221.208 366.448 221.208 367C221.208 367.552 221.656 368 222.208 368V366ZM225.292 368C225.844 368 226.292 367.552 226.292 367C226.292 366.448 225.844 366 225.292 366V368ZM231.458 366C230.906 366 230.458 366.448 230.458 367C230.458 367.552 230.906 368 231.458 368V366ZM142 319V320.333H144V319H142ZM142 325.667V328.333H144V325.667H142ZM142 333.667V336.333H144V333.667H142ZM142 341.667V344.333H144V341.667H142ZM142 349.667V351H144V349.667H142ZM142 351C142 351.499 142.022 351.993 142.064 352.482L144.056 352.31C144.019 351.878 144 351.441 144 351H142ZM143.59 358.187C144.011 359.088 144.508 359.946 145.074 360.752L146.711 359.604C146.212 358.892 145.773 358.135 145.402 357.34L143.59 358.187ZM149.248 364.926C150.054 365.492 150.912 365.989 151.813 366.41L152.66 364.598C151.865 364.227 151.108 363.788 150.396 363.289L149.248 364.926ZM157.518 367.936C158.007 367.978 158.501 368 159 368V366C158.559 366 158.122 365.981 157.69 365.944L157.518 367.936ZM159 368H160.542V366H159V368ZM166.708 368H169.792V366H166.708V368ZM175.958 368H179.042V366H175.958V368ZM185.208 368H188.292V366H185.208V368ZM194.458 368H197.542V366H194.458V368ZM203.708 368H206.792V366H203.708V368ZM212.958 368H216.042V366H212.958V368ZM222.208 368H225.292V366H222.208V368ZM231.458 368H233V366H231.458V368Z" fill="url(#paint1_linear_648_12669)"/>
</g>
<defs>
<filter id="filter0_d_648_12669" x="-20.4277" y="91.7862" width="408.855" height="330.164" filterUnits="userSpaceOnUse" color-interpolation-filters="sRGB">
<feFlood flood-opacity="0" result="BackgroundImageFix"/>
<feColorMatrix in="SourceAlpha" type="matrix" values="0 0 0 0 0 0 0 0 0 0 0 0 0 0 0 0 0 0 127 0" result="hardAlpha"/>
<feOffset dy="34.2138"/>
<feGaussianBlur stdDeviation="34.2138"/>
<feColorMatrix type="matrix" values="0 0 0 0 0 0 0 0 0 0.145098 0 0 0 0 0.368627 0 0 0 0.1 0"/>
<feBlend mode="normal" in2="BackgroundImageFix" result="effect1_dropShadow_648_12669"/>
<feBlend mode="normal" in="SourceGraphic" in2="effect1_dropShadow_648_12669" result="shape"/>
</filter>
<filter id="filter1_d_648_12669" x="211.052" y="8.52578" width="358.897" height="270.441" filterUnits="userSpaceOnUse" color-interpolation-filters="sRGB">
<feFlood flood-opacity="0" result="BackgroundImageFix"/>
<feColorMatrix in="SourceAlpha" type="matrix" values="0 0 0 0 0 0 0 0 0 0 0 0 0 0 0 0 0 0 127 0" result="hardAlpha"/>
<feOffset dy="24.4742"/>
<feGaussianBlur stdDeviation="24.4742"/>
<feColorMatrix type="matrix" values="0 0 0 0 0 0 0 0 0 0.145098 0 0 0 0 0.368627 0 0 0 0.1 0"/>
<feBlend mode="normal" in2="BackgroundImageFix" result="effect1_dropShadow_648_12669"/>
<feBlend mode="normal" in="SourceGraphic" in2="effect1_dropShadow_648_12669" result="shape"/>
</filter>
<filter id="filter2_d_648_12669" x="188.41" y="251.705" width="293.18" height="240.18" filterUnits="userSpaceOnUse" color-interpolation-filters="sRGB">
<feFlood flood-opacity="0" result="BackgroundImageFix"/>
<feColorMatrix in="SourceAlpha" type="matrix" values="0 0 0 0 0 0 0 0 0 0 0 0 0 0 0 0 0 0 127 0" result="hardAlpha"/>
<feOffset dy="22.2951"/>
<feGaussianBlur stdDeviation="22.2951"/>
<feColorMatrix type="matrix" values="0 0 0 0 0 0 0 0 0 0.145098 0 0 0 0 0.368627 0 0 0 0.1 0"/>
<feBlend mode="normal" in2="BackgroundImageFix" result="effect1_dropShadow_648_12669"/>
<feBlend mode="normal" in="SourceGraphic" in2="effect1_dropShadow_648_12669" result="shape"/>
</filter>
<linearGradient id="paint0_linear_648_12669" x1="37.2307" y1="85.0801" x2="52.3058" y2="170.143" gradientUnits="userSpaceOnUse">
<stop stop-color="#851FC0"/>
<stop offset="1" stop-color="#4D15BE"/>
</linearGradient>
<linearGradient id="paint1_linear_648_12669" x1="21.0873" y1="341.89" x2="45.4584" y2="451.742" gradientUnits="userSpaceOnUse">
<stop stop-color="#851FC0"/>
<stop offset="1" stop-color="#4D15BE"/>
</linearGradient>
<clipPath id="clip0_648_12669">
<rect width="570" height="475" fill="white"/>
</clipPath>
<clipPath id="clip1_648_12669">
<rect width="233.699" height="127.77" fill="white" transform="translate(273.651 45.3022)"/>
</clipPath>
<clipPath id="clip2_648_12669">
<rect x="246.934" y="294" width="122.077" height="5.71121" rx="0.713901" fill="white"/>
</clipPath>
<clipPath id="clip3_648_12669">
<rect x="246.934" y="313.138" width="130.644" height="5.71121" rx="0.713901" fill="white"/>
</clipPath>
<clipPath id="clip4_648_12669">
<rect x="246.934" y="332.275" width="149.919" height="5.71121" rx="0.713901" fill="white"/>
</clipPath>
<clipPath id="clip5_648_12669">
<rect x="246.934" y="351.413" width="157.772" height="5.71121" rx="0.713901" fill="white"/>
</clipPath>
<clipPath id="clip6_648_12669">
<rect x="246.934" y="370.55" width="132.786" height="5.71121" rx="0.713901" fill="white"/>
</clipPath>
<clipPath id="clip7_648_12669">
<rect x="246.934" y="389.688" width="149.919" height="5.71121" rx="0.713901" fill="white"/>
</clipPath>
</defs>
</svg>
