<svg width="570" height="475" viewBox="0 0 570 475" fill="none" xmlns="http://www.w3.org/2000/svg">
<g opacity="0.3">
<path d="M234.57 215.178C235.024 215.493 235.136 216.116 234.822 216.57C234.507 217.024 233.884 217.136 233.43 216.822L234.57 215.178ZM231.852 215.727C231.399 215.412 231.286 214.789 231.601 214.335C231.916 213.881 232.539 213.769 232.993 214.084L231.852 215.727ZM226.611 209.655C227.065 209.97 227.177 210.593 226.862 211.046C226.548 211.5 225.925 211.613 225.471 211.298L226.611 209.655ZM222.273 209.078C221.819 208.763 221.707 208.14 222.022 207.687C222.336 207.233 222.96 207.12 223.413 207.435L222.273 209.078ZM217.035 203.008C217.488 203.323 217.601 203.946 217.286 204.4C216.971 204.854 216.348 204.966 215.894 204.651L217.035 203.008ZM212.692 202.429C212.238 202.114 212.126 201.491 212.441 201.037C212.756 200.584 213.379 200.471 213.832 200.786L212.692 202.429ZM207.455 196.36C207.909 196.675 208.021 197.298 207.707 197.752C207.392 198.205 206.769 198.318 206.315 198.003L207.455 196.36ZM203.126 195.79C202.672 195.475 202.56 194.852 202.875 194.398C203.19 193.944 203.813 193.832 204.266 194.147L203.126 195.79ZM197.882 189.716C198.335 190.03 198.448 190.654 198.133 191.107C197.818 191.561 197.195 191.674 196.741 191.359L197.882 189.716ZM193.551 189.145C193.098 188.83 192.985 188.207 193.3 187.753C193.615 187.299 194.238 187.187 194.692 187.502L193.551 189.145ZM188.308 183.071C188.762 183.386 188.874 184.009 188.559 184.463C188.245 184.917 187.621 185.029 187.168 184.714L188.308 183.071ZM183.976 182.499C183.523 182.184 183.41 181.561 183.725 181.108C184.04 180.654 184.663 180.541 185.117 180.856L183.976 182.499ZM178.733 176.426C179.187 176.741 179.299 177.364 178.984 177.817C178.669 178.271 178.046 178.384 177.592 178.069L178.733 176.426ZM174.403 175.855C173.95 175.54 173.837 174.917 174.152 174.464C174.467 174.01 175.09 173.897 175.544 174.212L174.403 175.855ZM169.165 169.786C169.619 170.1 169.732 170.724 169.417 171.177C169.102 171.631 168.479 171.744 168.025 171.429L169.165 169.786ZM164.825 169.207C164.371 168.893 164.258 168.269 164.573 167.816C164.888 167.362 165.511 167.249 165.965 167.564L164.825 169.207ZM159.585 163.136C160.038 163.451 160.151 164.074 159.836 164.528C159.521 164.982 158.898 165.094 158.444 164.779L159.585 163.136ZM155.249 162.562C154.795 162.247 154.683 161.624 154.998 161.17C155.313 160.716 155.936 160.604 156.389 160.919L155.249 162.562ZM150.005 156.488C150.459 156.803 150.571 157.426 150.257 157.88C149.942 158.333 149.319 158.446 148.865 158.131L150.005 156.488ZM145.678 155.919C145.224 155.604 145.111 154.981 145.426 154.527C145.741 154.074 146.364 153.961 146.818 154.276L145.678 155.919ZM140.428 149.841C140.882 150.156 140.994 150.779 140.68 151.233C140.365 151.687 139.742 151.799 139.288 151.484L140.428 149.841ZM136.104 149.275C135.651 148.96 135.538 148.337 135.853 147.883C136.168 147.429 136.791 147.317 137.245 147.632L136.104 149.275ZM130.853 143.196C131.307 143.511 131.419 144.134 131.104 144.587C130.789 145.041 130.166 145.154 129.713 144.839L130.853 143.196ZM126.521 142.624C126.067 142.309 125.955 141.686 126.27 141.232C126.584 140.778 127.208 140.666 127.661 140.981L126.521 142.624ZM121.302 136.567C121.755 136.882 121.868 137.505 121.553 137.959C121.238 138.412 120.615 138.525 120.161 138.21L121.302 136.567ZM116.957 135.986C116.503 135.671 116.39 135.048 116.705 134.594C117.02 134.14 117.643 134.028 118.097 134.343L116.957 135.986ZM111.711 129.91C112.164 130.225 112.277 130.848 111.962 131.302C111.647 131.756 111.024 131.868 110.57 131.553L111.711 129.91ZM107.4 129.353C106.946 129.038 106.834 128.415 107.149 127.961C107.464 127.508 108.087 127.395 108.54 127.71L107.4 129.353ZM102.114 123.25C102.567 123.565 102.68 124.188 102.365 124.641C102.05 125.095 101.427 125.208 100.973 124.893L102.114 123.25ZM233.43 216.822C232.907 216.459 232.381 216.094 231.852 215.727L232.993 214.084C233.521 214.451 234.047 214.816 234.57 215.178L233.43 216.822ZM225.471 211.298C224.413 210.564 223.347 209.824 222.273 209.078L223.413 207.435C224.487 208.181 225.554 208.921 226.611 209.655L225.471 211.298ZM215.894 204.651C214.833 203.915 213.765 203.174 212.692 202.429L213.832 200.786C214.905 201.531 215.973 202.272 217.035 203.008L215.894 204.651ZM206.315 198.003C205.255 197.268 204.192 196.53 203.126 195.79L204.266 194.147C205.333 194.887 206.396 195.625 207.455 196.36L206.315 198.003ZM196.741 191.359C195.68 190.622 194.616 189.884 193.551 189.145L194.692 187.502C195.756 188.241 196.82 188.979 197.882 189.716L196.741 191.359ZM187.168 184.714C186.104 183.976 185.04 183.237 183.976 182.499L185.117 180.856C186.18 181.594 187.244 182.333 188.308 183.071L187.168 184.714ZM177.592 178.069C176.527 177.329 175.464 176.591 174.403 175.855L175.544 174.212C176.604 174.948 177.668 175.686 178.733 176.426L177.592 178.069ZM168.025 171.429C166.954 170.685 165.887 169.945 164.825 169.207L165.965 167.564C167.027 168.302 168.094 169.042 169.165 169.786L168.025 171.429ZM158.444 164.779C157.372 164.035 156.307 163.296 155.249 162.562L156.389 160.919C157.447 161.653 158.513 162.392 159.585 163.136L158.444 164.779ZM148.865 158.131C147.793 157.387 146.73 156.649 145.678 155.919L146.818 154.276C147.87 155.006 148.933 155.744 150.005 156.488L148.865 158.131ZM139.288 151.484C138.212 150.738 137.151 150.001 136.104 149.275L137.245 147.632C138.291 148.358 139.353 149.095 140.428 149.841L139.288 151.484ZM129.713 144.839C128.627 144.085 127.563 143.347 126.521 142.624L127.661 140.981C128.703 141.704 129.768 142.442 130.853 143.196L129.713 144.839ZM120.161 138.21C119.057 137.444 117.988 136.702 116.957 135.986L118.097 134.343C119.129 135.059 120.198 135.801 121.302 136.567L120.161 138.21ZM110.57 131.553C109.437 130.767 108.378 130.032 107.4 129.353L108.54 127.71C109.518 128.389 110.577 129.123 111.711 129.91L110.57 131.553ZM100.973 124.893C100.469 124.542 100.083 124.275 99.823 124.094C99.6932 124.004 99.5949 123.936 99.5291 123.89C99.4959 123.867 99.4715 123.85 99.4548 123.839C99.4466 123.833 99.4401 123.829 99.4361 123.826C99.4337 123.824 99.4327 123.824 99.4314 123.823C99.4272 123.82 99.4342 123.825 99.4302 123.822C99.4301 123.822 99.43 123.822 99.4299 123.822C99.4298 123.822 99.43 123.822 99.4299 123.822C99.4299 123.822 99.4298 123.822 99.4298 123.822C99.4298 123.822 99.4298 123.822 100 123C100.57 122.178 100.57 122.178 100.57 122.178C100.57 122.178 100.57 122.178 100.57 122.178C100.57 122.178 100.57 122.179 100.57 122.179C100.57 122.179 100.57 122.179 100.57 122.179C100.57 122.179 100.57 122.179 100.57 122.179C100.57 122.179 100.57 122.179 100.57 122.179C100.57 122.179 100.571 122.179 100.571 122.179C100.571 122.179 100.57 122.179 100.571 122.179C100.571 122.179 100.572 122.179 100.572 122.18C100.573 122.18 100.574 122.181 100.576 122.183C100.581 122.186 100.587 122.19 100.595 122.196C100.612 122.207 100.636 122.224 100.669 122.247C100.735 122.293 100.834 122.361 100.963 122.451C101.223 122.632 101.609 122.899 102.114 123.25L100.973 124.893Z" fill="url(#paint0_linear_648_13092)"/>
<path d="M226.08 285.997C226.63 285.953 227.041 285.471 226.997 284.92C226.953 284.37 226.471 283.959 225.92 284.003L226.08 285.997ZM224.018 284.155C223.467 284.199 223.057 284.681 223.101 285.232C223.145 285.782 223.627 286.193 224.177 286.149L224.018 284.155ZM216.481 286.765C217.031 286.721 217.442 286.239 217.398 285.688C217.354 285.138 216.872 284.727 216.321 284.771L216.481 286.765ZM212.474 285.079C211.924 285.123 211.513 285.605 211.557 286.155C211.601 286.706 212.083 287.117 212.634 287.072L212.474 285.079ZM204.939 287.688C205.489 287.644 205.9 287.162 205.856 286.612C205.812 286.061 205.33 285.65 204.779 285.694L204.939 287.688ZM200.93 286.002C200.379 286.046 199.968 286.528 200.012 287.079C200.057 287.63 200.539 288.04 201.089 287.996L200.93 286.002ZM193.396 288.612C193.946 288.567 194.357 288.085 194.313 287.535C194.269 286.984 193.787 286.574 193.236 286.618L193.396 288.612ZM189.385 286.926C188.834 286.97 188.424 287.452 188.468 288.003C188.512 288.553 188.994 288.964 189.544 288.92L189.385 286.926ZM181.852 289.535C182.402 289.491 182.813 289.009 182.769 288.459C182.725 287.908 182.243 287.497 181.692 287.541L181.852 289.535ZM177.843 287.849C177.293 287.893 176.882 288.375 176.926 288.926C176.97 289.476 177.452 289.887 178.003 289.843L177.843 287.849ZM170.309 290.458C170.859 290.414 171.27 289.932 171.226 289.382C171.182 288.831 170.7 288.421 170.149 288.465L170.309 290.458ZM166.303 288.773C165.752 288.817 165.342 289.299 165.386 289.849C165.43 290.4 165.912 290.81 166.462 290.766L166.303 288.773ZM158.771 291.382C159.321 291.338 159.732 290.856 159.688 290.305C159.644 289.754 159.162 289.344 158.611 289.388L158.771 291.382ZM154.759 289.696C154.208 289.74 153.798 290.222 153.842 290.773C153.886 291.323 154.368 291.734 154.918 291.69L154.759 289.696ZM147.23 292.305C147.781 292.261 148.191 291.779 148.147 291.228C148.103 290.678 147.621 290.267 147.071 290.311L147.23 292.305ZM143.214 290.62C142.663 290.664 142.253 291.146 142.297 291.696C142.341 292.247 142.823 292.657 143.373 292.613L143.214 290.62ZM135.687 293.228C136.237 293.184 136.648 292.702 136.604 292.152C136.56 291.601 136.078 291.191 135.527 291.235L135.687 293.228ZM131.669 291.543C131.119 291.587 130.708 292.069 130.752 292.62C130.796 293.17 131.278 293.581 131.829 293.537L131.669 291.543ZM124.148 294.151C124.698 294.107 125.109 293.625 125.065 293.075C125.021 292.524 124.539 292.114 123.988 292.158L124.148 294.151ZM120.126 292.467C119.576 292.511 119.165 292.993 119.209 293.543C119.253 294.094 119.735 294.504 120.286 294.46L120.126 292.467ZM112.609 295.074C113.16 295.03 113.57 294.548 113.526 293.998C113.482 293.447 113 293.037 112.45 293.081L112.609 295.074ZM108.597 293.389C108.047 293.433 107.636 293.915 107.68 294.466C107.724 295.016 108.206 295.427 108.757 295.383L108.597 293.389ZM101.043 296C101.593 295.956 102.004 295.474 101.96 294.923C101.916 294.373 101.434 293.962 100.883 294.006L101.043 296ZM97.0346 294.314C96.484 294.358 96.0735 294.84 96.1175 295.391C96.1615 295.941 96.6435 296.352 97.194 296.308L97.0346 294.314ZM89.4957 296.924C90.0462 296.879 90.4568 296.398 90.4128 295.847C90.3687 295.296 89.8867 294.886 89.3362 294.93L89.4957 296.924ZM85.4978 295.237C84.9473 295.281 84.5367 295.763 84.5807 296.314C84.6247 296.864 85.1067 297.275 85.6573 297.231L85.4978 295.237ZM77.9523 297.847C78.5029 297.803 78.9134 297.321 78.8694 296.77C78.8253 296.22 78.3434 295.809 77.7928 295.853L77.9523 297.847ZM225.92 284.003C225.29 284.054 224.656 284.104 224.018 284.155L224.177 286.149C224.815 286.098 225.449 286.047 226.08 285.997L225.92 284.003ZM216.321 284.771C215.05 284.873 213.767 284.975 212.474 285.079L212.634 287.072C213.927 286.969 215.209 286.866 216.481 286.765L216.321 284.771ZM204.779 285.694C203.503 285.797 202.219 285.899 200.93 286.002L201.089 287.996C202.379 287.893 203.662 287.79 204.939 287.688L204.779 285.694ZM193.236 286.618C191.956 286.72 190.672 286.823 189.385 286.926L189.544 288.92C190.832 288.817 192.116 288.714 193.396 288.612L193.236 286.618ZM181.692 287.541C180.41 287.644 179.127 287.747 177.843 287.849L178.003 289.843C179.287 289.74 180.57 289.638 181.852 289.535L181.692 287.541ZM170.149 288.465C168.866 288.568 167.583 288.67 166.303 288.773L166.462 290.766C167.743 290.664 169.025 290.561 170.309 290.458L170.149 288.465ZM158.611 289.388C157.323 289.491 156.038 289.594 154.759 289.696L154.918 291.69C156.198 291.587 157.482 291.485 158.771 291.382L158.611 289.388ZM147.071 290.311C145.778 290.415 144.492 290.517 143.214 290.62L143.373 292.613C144.651 292.511 145.937 292.408 147.23 292.305L147.071 290.311ZM135.527 291.235C134.23 291.338 132.944 291.441 131.669 291.543L131.829 293.537C133.103 293.435 134.39 293.332 135.687 293.228L135.527 291.235ZM123.988 292.158C122.684 292.262 121.396 292.365 120.126 292.467L120.286 294.46C121.556 294.359 122.844 294.256 124.148 294.151L123.988 292.158ZM112.45 293.081C111.14 293.186 109.856 293.288 108.597 293.389L108.757 295.383C110.015 295.282 111.3 295.179 112.609 295.074L112.45 293.081ZM100.883 294.006C99.5582 294.112 98.2743 294.215 97.0346 294.314L97.194 296.308C98.4338 296.208 99.7177 296.106 101.043 296L100.883 294.006ZM89.3362 294.93C87.9636 295.04 86.6819 295.142 85.4978 295.237L85.6573 297.231C86.8413 297.136 88.1231 297.033 89.4957 296.924L89.3362 294.93ZM77.7928 295.853C77.181 295.902 76.7129 295.94 76.3977 295.965C76.2401 295.978 76.1208 295.987 76.0408 295.994C76.0008 295.997 75.9707 295.999 75.9505 296.001C75.9405 296.002 75.9329 296.002 75.9278 296.003C75.9253 296.003 75.9235 296.003 75.9221 296.003C75.9215 296.003 75.9219 296.003 75.9213 296.003C75.9211 296.003 75.9209 296.003 75.9207 296.003C75.9207 296.003 75.9207 296.003 75.9206 296.003C75.9206 296.003 75.9205 296.003 75.9205 296.003C75.9203 296.003 75.9206 296.003 75.9204 296.003C75.9203 296.003 75.9203 296.003 75.9203 296.003C75.9203 296.003 75.9203 296.003 75.9203 296.003C75.9203 296.003 75.9203 296.003 75.9203 296.003C75.9203 296.003 75.9203 296.003 76 297C76.0797 297.997 76.0797 297.997 76.0798 297.997C76.0798 297.997 76.0798 297.997 76.0798 297.997C76.0798 297.997 76.0798 297.997 76.0799 297.997C76.0799 297.997 76.0801 297.997 76.0802 297.997C76.0802 297.997 76.0807 297.997 76.0808 297.997C76.0811 297.997 76.0813 297.997 76.0816 297.997C76.0831 297.997 76.0847 297.996 76.0873 297.996C76.0924 297.996 76.1 297.995 76.11 297.994C76.1301 297.993 76.1604 297.99 76.2003 297.987C76.2802 297.981 76.3996 297.971 76.5572 297.959C76.8724 297.933 77.3405 297.896 77.9523 297.847L77.7928 295.853Z" fill="url(#paint1_linear_648_13092)"/>
<path d="M301.016 219.822C300.918 220.365 301.278 220.886 301.822 220.984C302.365 221.082 302.886 220.722 302.984 220.178L301.016 219.822ZM303.328 218.281C303.426 217.738 303.065 217.217 302.522 217.119C301.978 217.02 301.458 217.381 301.36 217.925L303.328 218.281ZM302.75 210.248C302.652 210.791 303.013 211.312 303.556 211.41C304.1 211.509 304.62 211.148 304.718 210.605L302.75 210.248ZM305.412 206.777C305.51 206.234 305.149 205.713 304.606 205.615C304.063 205.516 303.542 205.877 303.444 206.42L305.412 206.777ZM304.835 198.741C304.737 199.285 305.097 199.805 305.641 199.903C306.184 200.002 306.704 199.641 306.803 199.098L304.835 198.741ZM307.496 195.271C307.595 194.728 307.234 194.207 306.69 194.109C306.147 194.011 305.627 194.371 305.528 194.915L307.496 195.271ZM306.919 187.239C306.82 187.783 307.181 188.303 307.724 188.401C308.268 188.5 308.788 188.139 308.887 187.596L306.919 187.239ZM309.58 183.766C309.679 183.223 309.318 182.702 308.775 182.604C308.231 182.506 307.711 182.866 307.612 183.41L309.58 183.766ZM309.002 175.739C308.904 176.282 309.264 176.803 309.808 176.901C310.351 176.999 310.872 176.639 310.97 176.095L309.002 175.739ZM311.665 172.261C311.763 171.718 311.402 171.198 310.859 171.099C310.315 171.001 309.795 171.361 309.697 171.905L311.665 172.261ZM311.086 164.238C310.987 164.781 311.348 165.302 311.891 165.4C312.435 165.498 312.955 165.138 313.054 164.594L311.086 164.238ZM313.749 160.756C313.847 160.213 313.487 159.693 312.943 159.594C312.4 159.496 311.879 159.856 311.781 160.4L313.749 160.756ZM313.169 152.737C313.071 153.28 313.431 153.801 313.975 153.899C314.518 153.998 315.039 153.637 315.137 153.093L313.169 152.737ZM315.833 149.252C315.931 148.708 315.571 148.188 315.027 148.089C314.484 147.991 313.963 148.352 313.865 148.895L315.833 149.252ZM315.252 141.238C315.154 141.781 315.515 142.301 316.058 142.4C316.601 142.498 317.122 142.138 317.22 141.594L315.252 141.238ZM317.917 137.749C318.015 137.205 317.655 136.685 317.111 136.586C316.568 136.488 316.047 136.849 315.949 137.392L317.917 137.749ZM317.338 129.727C317.239 130.27 317.6 130.79 318.143 130.889C318.687 130.987 319.207 130.627 319.306 130.083L317.338 129.727ZM319.999 126.255C320.097 125.712 319.737 125.191 319.193 125.093C318.65 124.995 318.13 125.355 318.031 125.899L319.999 126.255ZM319.424 118.212C319.325 118.756 319.686 119.276 320.229 119.374C320.773 119.473 321.293 119.112 321.392 118.569L319.424 118.212ZM322.086 114.737C322.184 114.194 321.823 113.673 321.28 113.575C320.736 113.476 320.216 113.837 320.118 114.381L322.086 114.737ZM321.504 106.73C321.405 107.274 321.766 107.794 322.309 107.893C322.853 107.991 323.373 107.63 323.472 107.087L321.504 106.73ZM324.165 103.259C324.263 102.716 323.903 102.195 323.359 102.097C322.816 101.998 322.295 102.359 322.197 102.902L324.165 103.259ZM323.59 95.2135C323.492 95.7569 323.852 96.2773 324.396 96.3757C324.939 96.4742 325.459 96.1134 325.558 95.57L323.59 95.2135ZM326.256 91.7172C326.354 91.1737 325.994 90.6534 325.45 90.5549C324.907 90.4565 324.386 90.8172 324.288 91.3607L326.256 91.7172ZM325.675 83.7064C325.576 84.2498 325.937 84.7702 326.48 84.8686C327.024 84.9671 327.544 84.6064 327.643 84.0629L325.675 83.7064ZM302.984 220.178C303.098 219.55 303.212 218.918 303.328 218.281L301.36 217.925C301.244 218.561 301.13 219.193 301.016 219.822L302.984 220.178ZM304.718 210.605C304.947 209.34 305.179 208.064 305.412 206.777L303.444 206.42C303.211 207.707 302.979 208.983 302.75 210.248L304.718 210.605ZM306.803 199.098C307.033 197.829 307.264 196.553 307.496 195.271L305.528 194.915C305.296 196.197 305.065 197.473 304.835 198.741L306.803 199.098ZM308.887 187.596C309.117 186.323 309.349 185.046 309.58 183.766L307.612 183.41C307.381 184.689 307.149 185.966 306.919 187.239L308.887 187.596ZM310.97 176.095C311.201 174.818 311.433 173.539 311.665 172.261L309.697 171.905C309.465 173.183 309.234 174.461 309.002 175.739L310.97 176.095ZM313.054 164.594C313.286 163.312 313.518 162.033 313.749 160.756L311.781 160.4C311.55 161.676 311.318 162.956 311.086 164.238L313.054 164.594ZM315.137 153.093C315.37 151.807 315.602 150.526 315.833 149.252L313.865 148.895C313.634 150.169 313.402 151.45 313.169 152.737L315.137 153.093ZM317.22 141.594C317.454 140.302 317.687 139.02 317.917 137.749L315.949 137.392C315.719 138.663 315.486 139.946 315.252 141.238L317.22 141.594ZM319.306 130.083C319.54 128.792 319.771 127.515 319.999 126.255L318.031 125.899C317.803 127.159 317.572 128.435 317.338 129.727L319.306 130.083ZM321.392 118.569C321.627 117.267 321.859 115.989 322.086 114.737L320.118 114.381C319.891 115.633 319.659 116.911 319.424 118.212L321.392 118.569ZM323.472 107.087C323.71 105.77 323.941 104.493 324.165 103.259L322.197 102.902C321.974 104.136 321.742 105.413 321.504 106.73L323.472 107.087ZM325.558 95.57C325.807 94.1925 326.041 92.9058 326.256 91.7172L324.288 91.3607C324.073 92.5493 323.84 93.836 323.59 95.2135L325.558 95.57ZM327.643 84.0629C327.754 83.4478 327.839 82.9766 327.897 82.6592C327.926 82.5006 327.947 82.3803 327.962 82.2997C327.969 82.2594 327.975 82.2291 327.978 82.2088C327.98 82.1987 327.982 82.191 327.983 82.1859C327.983 82.1837 327.983 82.1811 327.984 82.1802C327.984 82.1782 327.984 82.1804 327.984 82.1787C327.984 82.1768 327.984 82.1805 327.984 82.1785C327.984 82.1784 327.984 82.1784 327.984 82.1784C327.984 82.1783 327.984 82.1784 327.984 82.1783C327.984 82.1783 327.984 82.1783 327.984 82.1783C327.984 82.1783 327.984 82.1783 327 82C326.016 81.8217 326.016 81.8217 326.016 81.8217C326.016 81.8218 326.016 81.8218 326.016 81.8218C326.016 81.8218 326.016 81.8218 326.016 81.8218C326.016 81.8218 326.016 81.8218 326.016 81.8219C326.015 81.8249 326.016 81.8191 326.016 81.8222C326.016 81.8223 326.016 81.8224 326.016 81.8225C326.016 81.8225 326.016 81.8226 326.016 81.8226C326.016 81.8227 326.016 81.8228 326.016 81.8228C326.016 81.8242 326.016 81.8222 326.016 81.8237C326.016 81.8244 326.015 81.8274 326.015 81.8294C326.014 81.8345 326.012 81.8421 326.01 81.8523C326.007 81.8725 326.001 81.903 325.994 81.9432C325.979 82.0237 325.958 82.1441 325.929 82.3027C325.871 82.6201 325.786 83.0913 325.675 83.7064L327.643 84.0629Z" fill="url(#paint2_linear_648_13092)"/>
<path d="M362.406 239.914C361.901 240.138 361.31 239.911 361.086 239.406C360.862 238.901 361.089 238.31 361.594 238.086L362.406 239.914ZM468.606 192.714C468.101 192.938 467.51 192.711 467.286 192.206C467.062 191.701 467.289 191.11 467.794 190.886L468.606 192.714ZM460.594 194.086C461.099 193.862 461.69 194.089 461.914 194.594C462.138 195.099 461.911 195.69 461.406 195.914L460.594 194.086ZM457.806 197.514C457.301 197.738 456.71 197.511 456.486 197.006C456.262 196.501 456.489 195.91 456.994 195.686L457.806 197.514ZM449.794 198.886C450.299 198.662 450.89 198.889 451.114 199.394C451.338 199.899 451.111 200.49 450.606 200.714L449.794 198.886ZM447.006 202.314C446.501 202.538 445.91 202.311 445.686 201.806C445.462 201.301 445.689 200.71 446.194 200.486L447.006 202.314ZM438.994 203.686C439.499 203.462 440.09 203.689 440.314 204.194C440.538 204.699 440.311 205.29 439.806 205.514L438.994 203.686ZM436.206 207.114C435.701 207.338 435.11 207.111 434.886 206.606C434.662 206.101 434.889 205.51 435.394 205.286L436.206 207.114ZM428.194 208.486C428.699 208.262 429.29 208.489 429.514 208.994C429.738 209.499 429.511 210.09 429.006 210.314L428.194 208.486ZM425.406 211.914C424.901 212.138 424.31 211.911 424.086 211.406C423.862 210.901 424.089 210.31 424.594 210.086L425.406 211.914ZM417.394 213.286C417.899 213.062 418.49 213.289 418.714 213.794C418.938 214.299 418.711 214.89 418.206 215.114L417.394 213.286ZM414.606 216.714C414.101 216.938 413.51 216.711 413.286 216.206C413.062 215.701 413.289 215.11 413.794 214.886L414.606 216.714ZM406.594 218.086C407.099 217.862 407.689 218.089 407.914 218.594C408.138 219.099 407.911 219.69 407.406 219.914L406.594 218.086ZM403.806 221.514C403.301 221.738 402.71 221.511 402.486 221.006C402.262 220.501 402.489 219.91 402.994 219.686L403.806 221.514ZM395.794 222.886C396.299 222.662 396.889 222.889 397.114 223.394C397.338 223.899 397.111 224.49 396.606 224.714L395.794 222.886ZM393.006 226.314C392.501 226.538 391.91 226.311 391.686 225.806C391.462 225.301 391.689 224.71 392.194 224.486L393.006 226.314ZM384.994 227.686C385.499 227.462 386.089 227.689 386.314 228.194C386.538 228.699 386.311 229.29 385.806 229.514L384.994 227.686ZM382.206 231.114C381.701 231.338 381.11 231.111 380.886 230.606C380.662 230.101 380.889 229.511 381.394 229.286L382.206 231.114ZM374.194 232.486C374.699 232.262 375.289 232.489 375.514 232.994C375.738 233.499 375.511 234.09 375.006 234.314L374.194 232.486ZM371.406 235.914C370.901 236.138 370.31 235.911 370.086 235.406C369.862 234.901 370.089 234.311 370.594 234.086L371.406 235.914ZM363.394 237.286C363.899 237.062 364.489 237.289 364.714 237.794C364.938 238.299 364.711 238.89 364.206 239.114L363.394 237.286ZM470.406 191.914L468.606 192.714L467.794 190.886L469.594 190.086L470.406 191.914ZM461.406 195.914L457.806 197.514L456.994 195.686L460.594 194.086L461.406 195.914ZM450.606 200.714L447.006 202.314L446.194 200.486L449.794 198.886L450.606 200.714ZM439.806 205.514L436.206 207.114L435.394 205.286L438.994 203.686L439.806 205.514ZM429.006 210.314L425.406 211.914L424.594 210.086L428.194 208.486L429.006 210.314ZM418.206 215.114L414.606 216.714L413.794 214.886L417.394 213.286L418.206 215.114ZM407.406 219.914L403.806 221.514L402.994 219.686L406.594 218.086L407.406 219.914ZM396.606 224.714L393.006 226.314L392.194 224.486L395.794 222.886L396.606 224.714ZM385.806 229.514L382.206 231.114L381.394 229.286L384.994 227.686L385.806 229.514ZM375.006 234.314L371.406 235.914L370.594 234.086L374.194 232.486L375.006 234.314ZM364.206 239.114L362.406 239.914L361.594 238.086L363.394 237.286L364.206 239.114Z" fill="url(#paint3_linear_648_13092)"/>
<path d="M416.447 321.106C415.953 320.859 415.353 321.059 415.106 321.553C414.859 322.047 415.059 322.647 415.553 322.894L416.447 321.106ZM492.59 359.177C492.096 358.93 491.495 359.13 491.248 359.624C491.001 360.118 491.202 360.719 491.696 360.966L492.59 359.177ZM484.267 357.252C484.761 357.499 485.362 357.298 485.609 356.804C485.856 356.31 485.655 355.71 485.161 355.463L484.267 357.252ZM481.447 353.606C480.953 353.359 480.353 353.559 480.106 354.053C479.859 354.547 480.059 355.147 480.553 355.394L481.447 353.606ZM473.124 351.68C473.618 351.927 474.219 351.727 474.466 351.233C474.713 350.739 474.513 350.138 474.019 349.891L473.124 351.68ZM470.304 348.034C469.81 347.787 469.21 347.987 468.963 348.481C468.716 348.975 468.916 349.576 469.41 349.823L470.304 348.034ZM461.981 346.109C462.475 346.356 463.076 346.155 463.323 345.662C463.57 345.168 463.37 344.567 462.876 344.32L461.981 346.109ZM459.161 342.463C458.668 342.216 458.067 342.416 457.82 342.91C457.573 343.404 457.773 344.005 458.267 344.252L459.161 342.463ZM450.839 340.537C451.332 340.784 451.933 340.584 452.18 340.09C452.427 339.596 452.227 338.995 451.733 338.748L450.839 340.537ZM448.019 336.891C447.525 336.644 446.924 336.845 446.677 337.339C446.43 337.832 446.63 338.433 447.124 338.68L448.019 336.891ZM439.696 334.966C440.19 335.213 440.79 335.013 441.037 334.519C441.284 334.025 441.084 333.424 440.59 333.177L439.696 334.966ZM436.876 331.32C436.382 331.073 435.781 331.273 435.534 331.767C435.287 332.261 435.487 332.862 435.981 333.109L436.876 331.32ZM428.553 329.394C429.047 329.641 429.647 329.441 429.894 328.947C430.141 328.453 429.941 327.853 429.447 327.606L428.553 329.394ZM425.733 325.748C425.239 325.501 424.638 325.702 424.391 326.196C424.144 326.69 424.345 327.29 424.839 327.537L425.733 325.748ZM417.41 323.823C417.904 324.07 418.505 323.87 418.752 323.376C418.999 322.882 418.798 322.281 418.304 322.034L417.41 323.823ZM494.447 360.106L492.59 359.177L491.696 360.966L493.553 361.894L494.447 360.106ZM485.161 355.463L481.447 353.606L480.553 355.394L484.267 357.252L485.161 355.463ZM474.019 349.891L470.304 348.034L469.41 349.823L473.124 351.68L474.019 349.891ZM462.876 344.32L459.161 342.463L458.267 344.252L461.981 346.109L462.876 344.32ZM451.733 338.748L448.019 336.891L447.124 338.68L450.839 340.537L451.733 338.748ZM440.59 333.177L436.876 331.32L435.981 333.109L439.696 334.966L440.59 333.177ZM429.447 327.606L425.733 325.748L424.839 327.537L428.553 329.394L429.447 327.606ZM418.304 322.034L416.447 321.106L415.553 322.894L417.41 323.823L418.304 322.034Z" fill="url(#paint4_linear_648_13092)"/>
</g>
<g filter="url(#filter0_d_648_13092)">
<path fill-rule="evenodd" clip-rule="evenodd" d="M330 114C307.909 114 290 96.0914 290 74C290 51.9086 307.909 34 330 34C352.091 34 370 51.9086 370 74C370 96.0914 352.091 114 330 114Z" fill="white"/>
</g>
<path d="M315.155 70.75H345.155V85.75C345.155 91.375 343.28 93.25 337.655 93.25H322.655C317.03 93.25 315.155 91.375 315.155 85.75V70.75Z" fill="#673098" fill-opacity="0.1" stroke="#673098" stroke-width="2" stroke-miterlimit="10" stroke-linecap="round" stroke-linejoin="round"/>
<path d="M312.286 65.125V67C312.286 69.0625 313.28 70.75 316.036 70.75H344.161C347.03 70.75 347.911 69.0625 347.911 67V65.125C347.911 63.0625 347.03 61.375 344.161 61.375H316.036C313.28 61.375 312.286 63.0625 312.286 65.125Z" fill="#673098" fill-opacity="0.1" stroke="#673098" stroke-width="2" stroke-miterlimit="10" stroke-linecap="round" stroke-linejoin="round"/>
<path d="M330.774 61.3748H341.124C341.761 60.6811 341.743 59.6123 341.068 58.9373L338.405 56.2748C337.711 55.5811 336.568 55.5811 335.874 56.2748L330.774 61.3748Z" stroke="#673098" stroke-width="2" stroke-miterlimit="10" stroke-linecap="round" stroke-linejoin="round"/>
<path d="M319.093 61.3748H329.443L324.343 56.2748C323.649 55.5811 322.505 55.5811 321.811 56.2748L319.149 58.9373C318.474 59.6123 318.455 60.6811 319.093 61.3748Z" stroke="#673098" stroke-width="2" stroke-miterlimit="10" stroke-linecap="round" stroke-linejoin="round"/>
<path d="M335.836 70.75V80.3875C335.836 81.8875 334.186 82.7687 332.93 81.9625L331.168 80.8C330.53 80.3875 329.724 80.3875 329.105 80.8L327.437 81.925C326.199 82.75 324.53 81.8688 324.53 80.3688V70.75H335.836Z" stroke="#673098" stroke-width="2" stroke-miterlimit="10" stroke-linecap="round" stroke-linejoin="round"/>
<g filter="url(#filter1_d_648_13092)">
<rect width="80" height="80" rx="40" transform="matrix(-1 0 0 1 528 317)" fill="white"/>
<path d="M484.756 341.081L481.456 347.681C481.006 348.6 479.806 349.481 478.794 349.65L472.812 350.644C468.987 351.281 468.087 354.056 470.844 356.794L475.494 361.444C476.281 362.231 476.712 363.75 476.469 364.838L475.137 370.594C474.087 375.15 476.506 376.913 480.537 374.531L486.144 371.213C487.156 370.613 488.825 370.613 489.856 371.213L495.463 374.531C499.475 376.913 501.913 375.131 500.863 370.594L499.531 364.838C499.288 363.75 499.719 362.231 500.506 361.444L505.156 356.794C507.894 354.056 507.013 351.281 503.188 350.644L497.206 349.65C496.213 349.481 495.013 348.6 494.563 347.681L491.262 341.081C489.462 337.5 486.537 337.5 484.756 341.081Z" fill="#34B53A" fill-opacity="0.1" stroke="#34B53A" stroke-width="2" stroke-linecap="round" stroke-linejoin="round"/>
</g>
<g filter="url(#filter2_d_648_13092)">
<rect width="80" height="80" rx="40" transform="matrix(-1 0 0 1 515 145)" fill="white"/>
<path d="M493.75 194.75C493.75 196.438 493.281 198.031 492.437 199.381C490.881 201.987 488.031 203.75 484.75 203.75C481.469 203.75 478.6 201.987 477.063 199.381C476.238 198.031 475.75 196.438 475.75 194.75C475.75 189.781 479.781 185.75 484.75 185.75C489.719 185.75 493.75 189.781 493.75 194.75Z" fill="#FF6359" fill-opacity="0.1" stroke="#FF6359" stroke-width="2" stroke-miterlimit="10" stroke-linecap="round" stroke-linejoin="round"/>
<path d="M481.244 194.75L483.456 196.962L488.256 192.537" fill="#FF6359" fill-opacity="0.1"/>
<path d="M481.244 194.75L483.456 196.962L488.256 192.537" stroke="#FF6359" stroke-width="2" stroke-linecap="round" stroke-linejoin="round"/>
<path d="M493.75 178.794C493.75 182.488 492.794 185.75 491.294 188.581C489.644 186.838 487.319 185.75 484.75 185.75C479.781 185.75 475.75 189.781 475.75 194.75C475.75 197.056 476.631 199.156 478.056 200.75C477.363 201.069 476.725 201.331 476.163 201.519C475.525 201.744 474.475 201.744 473.837 201.519C468.4 199.663 456.25 191.919 456.25 178.794C456.25 173 460.919 168.312 466.675 168.312C470.069 168.312 473.106 169.963 475 172.494C476.894 169.963 479.931 168.312 483.325 168.312C489.081 168.312 493.75 173 493.75 178.794Z" fill="#FF6359" fill-opacity="0.1" stroke="#FF6359" stroke-width="2" stroke-linecap="round" stroke-linejoin="round"/>
</g>
<g filter="url(#filter3_d_648_13092)">
<path fill-rule="evenodd" clip-rule="evenodd" d="M130 169C107.909 169 90 151.091 90 129C90 106.909 107.909 89 130 89C152.091 89 170 106.909 170 129C170 151.091 152.091 169 130 169Z" fill="white"/>
</g>
<path d="M118.183 146.634C119.833 147.122 121.783 147.347 124.07 147.347H135.32C137.608 147.347 139.558 147.122 141.208 146.634C140.795 141.759 135.789 137.915 129.695 137.915C123.601 137.915 118.595 141.759 118.183 146.634Z" fill="url(#paint5_linear_648_13092)" fill-opacity="0.1" stroke="#FFA800" stroke-width="2" stroke-linecap="round" stroke-linejoin="round"/>
<path d="M124.07 109.847H135.32C144.695 109.847 148.445 113.597 148.445 122.972V134.222C148.445 141.309 146.308 145.19 141.208 146.634C140.795 141.759 135.789 137.915 129.695 137.915C123.601 137.915 118.595 141.759 118.183 146.634C113.083 145.19 110.945 141.309 110.945 134.222V122.972C110.945 113.597 114.695 109.847 124.07 109.847ZM129.695 132.665C133.408 132.665 136.408 129.647 136.408 125.934C136.408 122.222 133.408 119.222 129.695 119.222C125.983 119.222 122.983 122.222 122.983 125.934C122.983 129.647 125.983 132.665 129.695 132.665Z" fill="url(#paint6_linear_648_13092)" fill-opacity="0.1" stroke="#FFA800" stroke-width="2" stroke-linecap="round" stroke-linejoin="round"/>
<path d="M122.983 125.934C122.983 129.647 125.983 132.665 129.695 132.665C133.408 132.665 136.407 129.647 136.407 125.934C136.407 122.222 133.408 119.222 129.695 119.222C125.983 119.222 122.983 122.222 122.983 125.934Z" fill="url(#paint7_linear_648_13092)" fill-opacity="0.1" stroke="#FFA800" stroke-width="2" stroke-linecap="round" stroke-linejoin="round"/>
<g clip-path="url(#clip0_648_13092)">
<path d="M326.187 246.607C325.925 258.168 332.994 269.979 343.922 273.788C349.869 275.866 356.39 275.568 362.481 277.156C368.571 278.744 374.781 283.33 374.829 289.636C374.853 293.816 372.476 303.31 385.004 308.863C395.334 313.449 392.874 338.254 360.868 348.692C351.063 351.892 357.381 343.843 347.194 342.279C337.127 340.726 328.003 335.041 321.052 327.589C314.113 320.137 309.193 311.013 305.371 301.579C300.965 290.711 297.883 278.709 300.606 267.304C303.329 255.898 313.385 245.592 326.187 246.607Z" fill="black"/>
<path d="M357.202 350.077C355.088 350.077 354.312 348.931 353.488 347.294C352.616 345.563 351.637 343.604 347.11 342.912C337.604 341.443 328.193 336.164 320.61 328.031C314.448 321.415 309.277 312.84 304.798 301.817C299.185 287.976 297.656 276.965 299.997 267.16C301.418 261.201 304.691 255.755 309.205 251.826C314.161 247.515 320.061 245.485 326.235 245.974C326.569 245.998 326.82 246.285 326.82 246.619C326.545 258.418 333.83 269.596 344.125 273.191C347.373 274.326 350.896 274.744 354.288 275.162C357.047 275.496 359.889 275.842 362.636 276.547C368.774 278.147 375.414 282.936 375.45 289.636C375.45 290.185 375.414 290.806 375.378 291.475C375.128 296.013 374.698 303.609 385.255 308.29C389.112 309.998 391.334 314.393 391.059 319.743C390.581 329.022 382.436 342.326 361.059 349.301C359.399 349.838 358.157 350.077 357.19 350.077H357.202ZM324.455 247.168C312.501 247.168 303.628 257.355 301.227 267.447C298.946 276.989 300.451 287.749 305.968 301.34C310.375 312.219 315.475 320.663 321.53 327.159C328.922 335.089 338.07 340.236 347.302 341.658C352.473 342.458 353.715 344.918 354.622 346.721C355.554 348.572 356.067 349.599 360.689 348.095C381.457 341.323 389.363 328.557 389.817 319.683C390.068 314.859 388.133 310.941 384.765 309.449C373.408 304.409 373.862 296.264 374.136 291.403C374.172 290.723 374.208 290.15 374.208 289.636C374.172 283.605 368.022 279.258 362.337 277.765C359.674 277.072 356.879 276.738 354.157 276.404C350.693 275.986 347.098 275.556 343.719 274.373C333.09 270.671 325.53 259.302 325.554 247.192C325.184 247.168 324.826 247.168 324.467 247.168H324.455Z" fill="black"/>
<path d="M263.632 220.19C267 236.623 270.26 254.31 263.537 269.668C261.351 274.66 258.175 279.21 256.371 284.357C254.234 290.472 254.174 297.124 254.747 303.585C255.846 315.79 259.512 328.306 268.099 337.048C276.686 345.79 291.028 349.599 301.622 343.437C310.913 338.027 315.152 326.395 314.567 315.659C313.982 304.922 309.408 294.855 304.571 285.253C292.963 262.18 279.42 240.087 263.644 220.19H263.632Z" fill="black"/>
<path d="M287.386 300.336C287.685 291.583 286.61 286.674 286.251 280.118C289.786 278.35 293.608 277.12 297.513 276.487C299.269 276.201 301.239 276.093 302.589 277.156C303.437 277.825 307.438 274.29 307.855 275.257C310.71 281.945 310.949 291.475 313.803 298.163C314.018 298.676 324.014 297.745 324.241 298.27C325.172 300.444 324.396 318.573 323.703 319.038C287.147 343.341 269.532 308.577 269.532 308.577C269.532 308.577 276.16 304.516 287.386 300.336Z" fill="#FFF0C9"/>
<path d="M299.09 328.306C296.45 328.306 293.859 327.971 291.339 327.314C276.471 323.397 269.042 309.019 268.971 308.875C268.827 308.577 268.923 308.218 269.209 308.051C269.281 308.015 275.861 304.003 286.777 299.906C286.944 294.353 286.538 290.329 286.156 286.447C285.953 284.453 285.75 282.387 285.63 280.177C285.618 279.927 285.75 279.688 285.977 279.58C289.583 277.777 293.429 276.535 297.418 275.89C299.161 275.615 301.347 275.448 302.923 276.63C303.305 276.607 304.38 275.974 305.037 275.591C306.434 274.767 307.258 274.314 307.903 274.529C308.154 274.612 308.345 274.791 308.453 275.03C309.91 278.434 310.698 282.59 311.462 286.614C312.203 290.472 312.955 294.449 314.292 297.685C315.021 297.769 317.29 297.685 318.998 297.613C324.241 297.399 324.587 297.47 324.838 298.055C325.495 299.608 325.303 307.096 325.22 309.353C324.885 319.05 324.312 319.432 324.061 319.6C315.319 325.416 306.948 328.342 299.102 328.342L299.09 328.306ZM270.38 308.816C271.849 311.383 278.943 322.741 291.673 326.084C301.287 328.616 311.892 326.084 323.225 318.596C323.835 316.745 324.42 301.531 323.739 298.772C322.975 298.688 320.729 298.772 319.034 298.855C313.815 299.07 313.468 298.999 313.218 298.414C311.761 295.01 310.972 290.854 310.208 286.829C309.468 282.972 308.715 278.995 307.378 275.759C306.972 275.89 306.207 276.344 305.658 276.666C304.141 277.55 302.947 278.255 302.195 277.658C301 276.714 299.114 276.881 297.609 277.12C293.883 277.717 290.288 278.864 286.908 280.512C287.028 282.53 287.207 284.369 287.398 286.316C287.804 290.34 288.21 294.508 288.007 300.372C288.007 300.623 287.84 300.85 287.589 300.945C278.31 304.397 272.123 307.812 270.356 308.827L270.38 308.816Z" fill="black"/>
<path d="M259.847 224.227C260.921 232.336 262.558 240.851 260.468 248.924C259.321 253.331 259.429 275.723 277.402 282.1C286.849 285.456 297.692 284.763 307.438 278.852C314.042 274.839 322.067 262.395 320.467 250.035C325.937 251.551 331.346 247.861 331.406 242.941C331.442 240.11 328.313 236.551 325.017 236.719C322.461 236.838 322.151 236.874 320.216 238.355C318.89 232.563 318.078 226.651 318.186 219.987C311.976 213.144 302.004 209.645 292.044 208.152C288.748 207.663 285.368 207.352 282.024 207.77C272.458 208.964 258.76 215.903 259.859 224.227H259.847Z" fill="#FFF0C9"/>
<path d="M299.078 257.009C296.462 257.009 293.919 256.042 291.793 254.226C289.321 252.112 287.72 249.079 287.279 245.699C286.371 238.689 290.814 232.324 297.167 231.512C300.26 231.118 303.329 232.061 305.825 234.199C308.297 236.313 309.898 239.346 310.34 242.726C310.781 246.105 309.993 249.437 308.142 252.112C306.279 254.811 303.544 256.507 300.451 256.913C299.985 256.973 299.532 256.997 299.078 256.997V257.009ZM298.552 232.694C298.146 232.694 297.752 232.718 297.346 232.778C291.685 233.506 287.744 239.238 288.556 245.544C288.951 248.613 290.396 251.36 292.629 253.271C294.85 255.17 297.573 256.018 300.296 255.671C303.031 255.313 305.443 253.808 307.103 251.408C308.775 248.995 309.48 245.974 309.086 242.905C308.691 239.836 307.246 237.089 305.013 235.178C303.126 233.566 300.869 232.706 298.552 232.706V232.694Z" fill="black"/>
<path d="M266.618 258.502C260.802 258.502 255.655 253.701 254.807 247.204C253.899 240.194 258.342 233.829 264.695 233.017C271.049 232.193 276.96 237.232 277.868 244.231C278.775 251.241 274.333 257.606 267.979 258.418C267.526 258.478 267.072 258.502 266.618 258.502ZM266.057 234.187C265.663 234.187 265.257 234.211 264.862 234.259C259.202 234.987 255.249 240.72 256.073 247.037C256.885 253.343 262.163 257.893 267.824 257.152C273.485 256.424 277.426 250.692 276.614 244.374C275.862 238.51 271.252 234.175 266.069 234.175L266.057 234.187Z" fill="black"/>
<path d="M307.867 201.345C319.285 201.345 328.54 192.09 328.54 180.672C328.54 169.255 319.285 160 307.867 160C296.45 160 287.195 169.255 287.195 180.672C287.195 192.09 296.45 201.345 307.867 201.345Z" fill="black"/>
<path d="M319.487 239.203C314.245 231.07 311.032 225.206 309.312 215.306C289.954 226.771 271.562 228.55 253.027 227.845C252.633 224.693 253.302 217.718 254.604 214.721C257.816 207.388 261.829 201.046 273.019 196.042C280.865 192.531 291.423 190.203 299.914 191.433C308.345 192.651 315.606 197.213 321.506 202.683C326.199 207.042 330.176 214.183 331.573 221.253C332.768 227.308 331.287 231.763 328.576 237.925C327.059 237.101 325.626 236.277 323.858 236.611C322.091 236.946 320.956 237.853 319.487 239.191V239.203Z" fill="black"/>
<path d="M291.399 270.194C290.013 270.194 288.736 269.764 287.732 268.928C287.458 268.701 287.422 268.307 287.649 268.032C287.876 267.757 288.27 267.721 288.544 267.948C289.882 269.071 291.888 269.226 293.895 268.39C296.128 267.459 297.967 265.655 299.066 263.303C299.209 262.98 299.591 262.849 299.914 262.992C300.236 263.136 300.368 263.518 300.224 263.84C298.994 266.467 296.916 268.498 294.396 269.549C293.393 269.967 292.378 270.182 291.411 270.182L291.399 270.194Z" fill="black"/>
<path d="M298.278 244.768C298.146 243.753 297.167 243.048 296.104 243.18C295.029 243.323 294.277 244.255 294.408 245.27C294.54 246.285 295.519 246.989 296.582 246.858C297.645 246.727 298.409 245.783 298.278 244.768Z" fill="black"/>
<path d="M269.353 246.297C269.221 245.281 268.242 244.577 267.179 244.708C266.116 244.84 265.352 245.783 265.483 246.798C265.615 247.813 266.594 248.53 267.657 248.387C268.72 248.243 269.484 247.312 269.353 246.297Z" fill="black"/>
<path d="M280.209 258.06C280.137 258.06 280.053 258.048 279.982 258.024L277.342 257.021C277.032 256.902 276.447 256.675 276.22 256.102C275.945 255.397 276.411 254.776 276.674 254.43C278.668 251.754 279.337 248.279 278.453 245.138C278.358 244.804 278.561 244.446 278.895 244.362C279.229 244.267 279.588 244.47 279.671 244.804C280.662 248.315 279.922 252.196 277.689 255.194C277.51 255.445 277.414 255.6 277.414 255.672C277.426 255.672 277.522 255.743 277.796 255.851L280.435 256.854C280.758 256.973 280.925 257.344 280.806 257.666C280.71 257.917 280.471 258.072 280.209 258.072V258.06Z" fill="black"/>
<path d="M276.769 242.32C276.423 242.32 276.136 242.045 276.136 241.699C276.1 239.919 277.844 238.677 279.588 238.235C282.43 237.507 285.666 238.259 287.816 240.134C288.079 240.361 288.103 240.767 287.876 241.03C287.649 241.293 287.243 241.317 286.98 241.09C285.129 239.477 282.346 238.844 279.898 239.466C278.644 239.788 277.39 240.648 277.402 241.687C277.402 242.033 277.127 242.32 276.781 242.332L276.769 242.32Z" fill="black"/>
<path d="M309.026 239.25C308.68 239.25 308.393 238.964 308.393 238.618C308.393 238.271 308.68 237.985 309.026 237.985L318.592 237.961C318.938 237.961 319.225 238.247 319.225 238.594C319.225 238.94 318.938 239.227 318.592 239.227L309.026 239.25Z" fill="black"/>
<path d="M320.347 245.867C320.001 245.867 319.714 245.58 319.726 245.222C319.75 242.881 319.284 240.504 318.365 238.343C318.234 238.02 318.377 237.65 318.699 237.507C319.022 237.376 319.392 237.519 319.535 237.841C320.515 240.158 321.016 242.714 320.992 245.222C320.992 245.568 320.706 245.855 320.359 245.855L320.347 245.867Z" fill="black"/>
<path d="M390.45 375.133C381.995 352 377.313 329.178 357.357 312.518C347.779 304.516 336.219 298.844 322.903 297.996C322.091 310.894 307.115 319.385 299.078 320.34C294.707 320.866 278.477 323.027 278.477 303.884C273.186 305.997 255.559 308.159 248.501 329.87C245.611 338.744 240.44 372.732 223.374 392.425C219.35 397.071 215.624 366.128 209.819 368.182C204.135 370.2 197.578 373.592 197.148 379.611C196.814 384.304 200.683 388.389 205.007 390.252C214.298 394.241 217.773 413.587 227.793 414.997C238.207 416.466 254.819 420.299 267.406 380.96C273.831 387.386 277.987 394.3 285.201 398.182C305.993 409.384 375.164 421.971 386.425 423.965C387.357 424.133 389.483 423.368 389.865 422.497C392.229 416.955 398.428 396.916 390.462 375.121L390.45 375.133Z" fill="url(#paint8_linear_648_13092)"/>
<path d="M365.633 397.441C346.645 396.378 327.549 395.076 308.441 393.763C306.733 393.476 298.23 392.27 296.14 391.959C294.36 391.697 292.665 391.04 291.04 390.288C285.356 387.66 273.162 382.513 270.452 384.042C264.182 385.881 258.509 390.407 254.066 396.139C251.57 399.352 249.528 404.678 250.567 405.598C251.224 406.183 252.215 406.422 252.944 405.813C255.894 399.483 261.16 394.264 267.526 391.362C264.564 393.034 261.817 395.065 259.345 397.381C256.837 399.734 254.532 402.576 253.971 405.98C253.923 406.243 253.899 406.529 254.043 406.768C254.389 407.329 255.249 407.007 255.774 406.601C256.789 405.813 269.854 395.196 272.291 395.482C269.042 396.713 257.47 406.099 257.422 407.091C257.398 407.568 257.494 408.07 257.792 408.44C258.199 408.954 258.927 409.109 259.572 409.001C260.217 408.894 260.802 408.56 261.351 408.225C265.089 405.956 268.505 403.114 272.541 401.43C274.56 400.594 277.02 400.104 278.811 401.358C275.217 402.72 271.849 404.702 269.018 407.306C268.565 407.724 268.194 408.213 267.896 408.739C267.454 409.539 266.952 410.685 267.573 411.342C268.577 412.417 269.436 411.88 270.296 411.366C273.76 409.085 277.295 407.198 280.997 405.729C282.143 405.275 283.517 404.869 284.556 405.538C285.451 406.111 289.81 408.822 298.767 409.288C301.825 409.443 304.774 410.243 308.596 411.294C358.934 425.172 373.969 430.701 386.174 425.458C388.563 424.431 389.363 423.177 388.575 419.081C386.449 408.142 384.371 401.92 365.669 397.453L365.633 397.441Z" fill="#FFF0C9"/>
<path d="M239.962 421.959C255.714 422.293 271.479 422.64 287.231 422.974L287.29 414.949L234.672 413.659L239.95 421.959H239.962Z" fill="#9C85B5"/>
<path d="M105.633 348.644L208.398 349.205L243.82 421.959L142.022 421.696L105.633 348.644Z" fill="#CBBADD"/>
<path d="M170.636 378.285C167.722 377.998 164.533 378.775 163.339 381.462C162.145 384.149 163.065 387.505 165.226 389.475C167.388 391.446 170.588 392.091 173.455 391.446C174.995 391.099 176.524 390.347 177.419 389.033C178.04 388.126 178.303 387.003 178.303 385.904C178.327 382.298 176.679 378.87 170.636 378.285Z" fill="white"/>
<path d="M354.3 397.417C354.037 397.417 353.786 397.25 353.703 396.987C346.549 375.335 342.513 361.637 342.513 331.96C342.513 331.614 342.799 331.327 343.146 331.327C343.492 331.327 343.779 331.614 343.779 331.96C343.779 361.458 347.803 375.073 354.909 396.593C355.016 396.927 354.837 397.286 354.503 397.393C354.431 397.417 354.372 397.429 354.3 397.429V397.417Z" fill="black"/>
<path d="M267.406 381.593C267.203 381.593 267.012 381.498 266.881 381.319C257.673 368.063 260.157 358.353 262.57 348.966C263.776 344.261 265.03 339.401 264.827 334.086C264.815 333.74 265.089 333.441 265.436 333.429C265.794 333.405 266.081 333.692 266.093 334.038C266.296 339.544 265.03 344.488 263.8 349.277C261.351 358.807 259.046 367.812 267.92 380.59C268.123 380.877 268.051 381.271 267.764 381.474C267.657 381.546 267.526 381.593 267.406 381.593Z" fill="black"/>
</g>
<g filter="url(#filter4_d_648_13092)">
<rect width="80" height="80" rx="40" transform="matrix(-1 0 0 1 122 256)" fill="white"/>
<path d="M91.3654 281H72.6154C65.4342 281 63.4279 282.725 63.2592 289.438C66.8779 289.438 69.8029 292.381 69.8029 296C69.8029 299.619 66.8779 302.544 63.2592 302.562C63.4279 309.275 65.4342 311 72.6154 311H91.3654C98.8654 311 100.74 309.125 100.74 301.625V290.375C100.74 282.875 98.8654 281 91.3654 281Z" fill="#4339F2" fill-opacity="0.1" stroke="#4339F2" stroke-width="2" stroke-linecap="round" stroke-linejoin="round"/>
<path d="M76.3622 281V287.562" stroke="#4339F2" stroke-width="2" stroke-linecap="round" stroke-linejoin="round"/>
<path d="M76.3622 304.438V311" stroke="#4339F2" stroke-width="2" stroke-linecap="round" stroke-linejoin="round"/>
<path d="M87.6719 290.994L88.8344 293.337C88.9469 293.562 89.1719 293.731 89.4157 293.769L92.0032 294.144C92.6407 294.237 92.9032 295.025 92.4344 295.475L90.5594 297.294C90.3719 297.462 90.2969 297.725 90.3344 297.987L90.7844 300.556C90.8969 301.194 90.2219 301.681 89.6594 301.381L87.3532 300.162C87.1282 300.05 86.8469 300.05 86.6219 300.162L84.3157 301.381C83.7344 301.681 83.0782 301.194 83.1907 300.556L83.6407 297.987C83.6782 297.725 83.6032 297.481 83.4157 297.294L81.5594 295.475C81.0907 295.025 81.3532 294.237 81.9907 294.144L84.5782 293.769C84.8407 293.731 85.0469 293.581 85.1594 293.337L86.3032 290.994C86.5657 290.412 87.3907 290.412 87.6719 290.994Z" stroke="#4339F2" stroke-width="2" stroke-linecap="round" stroke-linejoin="round"/>
</g>
<defs>
<filter id="filter0_d_648_13092" x="250" y="14" width="160" height="160" filterUnits="userSpaceOnUse" color-interpolation-filters="sRGB">
<feFlood flood-opacity="0" result="BackgroundImageFix"/>
<feColorMatrix in="SourceAlpha" type="matrix" values="0 0 0 0 0 0 0 0 0 0 0 0 0 0 0 0 0 0 127 0" result="hardAlpha"/>
<feOffset dy="20"/>
<feGaussianBlur stdDeviation="20"/>
<feColorMatrix type="matrix" values="0 0 0 0 0 0 0 0 0 0.145098 0 0 0 0 0.368627 0 0 0 0.1 0"/>
<feBlend mode="normal" in2="BackgroundImageFix" result="effect1_dropShadow_648_13092"/>
<feBlend mode="normal" in="SourceGraphic" in2="effect1_dropShadow_648_13092" result="shape"/>
</filter>
<filter id="filter1_d_648_13092" x="408" y="297" width="160" height="160" filterUnits="userSpaceOnUse" color-interpolation-filters="sRGB">
<feFlood flood-opacity="0" result="BackgroundImageFix"/>
<feColorMatrix in="SourceAlpha" type="matrix" values="0 0 0 0 0 0 0 0 0 0 0 0 0 0 0 0 0 0 127 0" result="hardAlpha"/>
<feOffset dy="20"/>
<feGaussianBlur stdDeviation="20"/>
<feColorMatrix type="matrix" values="0 0 0 0 0 0 0 0 0 0.145098 0 0 0 0 0.368627 0 0 0 0.1 0"/>
<feBlend mode="normal" in2="BackgroundImageFix" result="effect1_dropShadow_648_13092"/>
<feBlend mode="normal" in="SourceGraphic" in2="effect1_dropShadow_648_13092" result="shape"/>
</filter>
<filter id="filter2_d_648_13092" x="395" y="125" width="160" height="160" filterUnits="userSpaceOnUse" color-interpolation-filters="sRGB">
<feFlood flood-opacity="0" result="BackgroundImageFix"/>
<feColorMatrix in="SourceAlpha" type="matrix" values="0 0 0 0 0 0 0 0 0 0 0 0 0 0 0 0 0 0 127 0" result="hardAlpha"/>
<feOffset dy="20"/>
<feGaussianBlur stdDeviation="20"/>
<feColorMatrix type="matrix" values="0 0 0 0 0 0 0 0 0 0.145098 0 0 0 0 0.368627 0 0 0 0.1 0"/>
<feBlend mode="normal" in2="BackgroundImageFix" result="effect1_dropShadow_648_13092"/>
<feBlend mode="normal" in="SourceGraphic" in2="effect1_dropShadow_648_13092" result="shape"/>
</filter>
<filter id="filter3_d_648_13092" x="50" y="69" width="160" height="160" filterUnits="userSpaceOnUse" color-interpolation-filters="sRGB">
<feFlood flood-opacity="0" result="BackgroundImageFix"/>
<feColorMatrix in="SourceAlpha" type="matrix" values="0 0 0 0 0 0 0 0 0 0 0 0 0 0 0 0 0 0 127 0" result="hardAlpha"/>
<feOffset dy="20"/>
<feGaussianBlur stdDeviation="20"/>
<feColorMatrix type="matrix" values="0 0 0 0 0 0 0 0 0 0.145098 0 0 0 0 0.368627 0 0 0 0.1 0"/>
<feBlend mode="normal" in2="BackgroundImageFix" result="effect1_dropShadow_648_13092"/>
<feBlend mode="normal" in="SourceGraphic" in2="effect1_dropShadow_648_13092" result="shape"/>
</filter>
<filter id="filter4_d_648_13092" x="2" y="236" width="160" height="160" filterUnits="userSpaceOnUse" color-interpolation-filters="sRGB">
<feFlood flood-opacity="0" result="BackgroundImageFix"/>
<feColorMatrix in="SourceAlpha" type="matrix" values="0 0 0 0 0 0 0 0 0 0 0 0 0 0 0 0 0 0 127 0" result="hardAlpha"/>
<feOffset dy="20"/>
<feGaussianBlur stdDeviation="20"/>
<feColorMatrix type="matrix" values="0 0 0 0 0 0 0 0 0 0.145098 0 0 0 0 0.368627 0 0 0 0.1 0"/>
<feBlend mode="normal" in2="BackgroundImageFix" result="effect1_dropShadow_648_13092"/>
<feBlend mode="normal" in="SourceGraphic" in2="effect1_dropShadow_648_13092" result="shape"/>
</filter>
<linearGradient id="paint0_linear_648_13092" x1="259.769" y1="106.546" x2="142.922" y2="273.94" gradientUnits="userSpaceOnUse">
<stop stop-color="#851FC0"/>
<stop offset="1" stop-color="#4D15BE"/>
</linearGradient>
<linearGradient id="paint1_linear_648_13092" x1="254.846" y1="299.123" x2="252.278" y2="267.206" gradientUnits="userSpaceOnUse">
<stop stop-color="#851FC0"/>
<stop offset="1" stop-color="#4D15BE"/>
</linearGradient>
<linearGradient id="paint2_linear_648_13092" x1="297.192" y1="57.5846" x2="361.641" y2="69.193" gradientUnits="userSpaceOnUse">
<stop stop-color="#851FC0"/>
<stop offset="1" stop-color="#4D15BE"/>
</linearGradient>
<linearGradient id="paint3_linear_648_13092" x1="490.769" y1="182.508" x2="442.896" y2="289.602" gradientUnits="userSpaceOnUse">
<stop stop-color="#851FC0"/>
<stop offset="1" stop-color="#4D15BE"/>
</linearGradient>
<linearGradient id="paint4_linear_648_13092" x1="509" y1="367.9" x2="467.095" y2="284.572" gradientUnits="userSpaceOnUse">
<stop stop-color="#851FC0"/>
<stop offset="1" stop-color="#4D15BE"/>
</linearGradient>
<linearGradient id="paint5_linear_648_13092" x1="145.635" y1="136.247" x2="136.743" y2="157.831" gradientUnits="userSpaceOnUse">
<stop stop-color="#FFD600"/>
<stop offset="1" stop-color="#FFA800"/>
</linearGradient>
<linearGradient id="paint6_linear_648_13092" x1="155.657" y1="103.338" x2="106.422" y2="153.238" gradientUnits="userSpaceOnUse">
<stop stop-color="#FFD600"/>
<stop offset="1" stop-color="#FFA800"/>
</linearGradient>
<linearGradient id="paint7_linear_648_13092" x1="138.989" y1="116.843" x2="120.995" y2="134.708" gradientUnits="userSpaceOnUse">
<stop stop-color="#FFD600"/>
<stop offset="1" stop-color="#FFA800"/>
</linearGradient>
<linearGradient id="paint8_linear_648_13092" x1="159.192" y1="275.705" x2="312.563" y2="514.462" gradientUnits="userSpaceOnUse">
<stop stop-color="#851FC0"/>
<stop offset="1" stop-color="#4D15BE"/>
</linearGradient>
<clipPath id="clip0_648_13092">
<rect width="290" height="268.05" fill="white" transform="translate(105 160)"/>
</clipPath>
</defs>
</svg>
