<svg width="44" height="44" viewBox="0 0 44 44" fill="none" xmlns="http://www.w3.org/2000/svg">
<rect width="44" height="44" rx="16" fill="url(#paint0_linear_135_4649)" fill-opacity="0.05"/>
<path fill-rule="evenodd" clip-rule="evenodd" d="M27.543 31.0416C30.6188 29.1304 32.6666 25.721 32.6666 21.8333C32.6666 15.8502 27.8164 11 21.8333 11C15.8502 11 11 15.8502 11 21.8333C11 27.8164 15.8502 32.6666 21.8333 32.6666L21.8539 32.6666H32.6668C33.1155 32.6666 33.4793 32.3029 33.4793 31.8541C33.4793 31.4054 33.1155 31.0416 32.6668 31.0416H27.543ZM23.4585 15.3333C23.4585 16.2308 22.731 16.9583 21.8335 16.9583C20.936 16.9583 20.2085 16.2308 20.2085 15.3333C20.2085 14.4359 20.936 13.7083 21.8335 13.7083C22.731 13.7083 23.4585 14.4359 23.4585 15.3333ZM15.3335 23.4583C16.231 23.4583 16.9585 22.7308 16.9585 21.8333C16.9585 20.9359 16.231 20.2083 15.3335 20.2083C14.436 20.2083 13.7085 20.9359 13.7085 21.8333C13.7085 22.7308 14.436 23.4583 15.3335 23.4583ZM29.4167 21.8333C29.4167 22.7308 28.6891 23.4583 27.7917 23.4583C26.8942 23.4583 26.1667 22.7308 26.1667 21.8333C26.1667 20.9359 26.8942 20.2083 27.7917 20.2083C28.6891 20.2083 29.4167 20.9359 29.4167 21.8333ZM21.8335 29.9583C22.731 29.9583 23.4585 29.2308 23.4585 28.3333C23.4585 27.4359 22.731 26.7083 21.8335 26.7083C20.936 26.7083 20.2085 27.4359 20.2085 28.3333C20.2085 29.2308 20.936 29.9583 21.8335 29.9583Z" fill="url(#paint1_linear_135_4649)"/>
<defs>
<linearGradient id="paint0_linear_135_4649" x1="-8.46154" y1="-7.78461" x2="50.4308" y2="50.7692" gradientUnits="userSpaceOnUse">
<stop stop-color="#851FC0"/>
<stop offset="1" stop-color="#4D15BE"/>
</linearGradient>
<linearGradient id="paint1_linear_135_4649" x1="6.67709" y1="7.16667" x2="35.6636" y2="37.0673" gradientUnits="userSpaceOnUse">
<stop stop-color="#851FC0"/>
<stop offset="1" stop-color="#4D15BE"/>
</linearGradient>
</defs>
</svg>
