<svg width="44" height="44" viewBox="0 0 44 44" fill="none" xmlns="http://www.w3.org/2000/svg">
<rect width="44" height="44" rx="16" fill="url(#paint0_linear_135_4610)" fill-opacity="0.05"/>
<path fill-rule="evenodd" clip-rule="evenodd" d="M33.6666 22C33.6666 28.4433 28.4432 33.6666 21.9999 33.6666C15.5566 33.6666 10.3333 28.4433 10.3333 22C10.3333 15.5567 15.5566 10.3333 21.9999 10.3333C28.4432 10.3333 33.6666 15.5567 33.6666 22ZM21.9989 21.25C21.1249 21.2494 20.4166 20.5408 20.4166 19.6666C20.4166 18.7922 21.1255 18.0833 21.9999 18.0833C22.8744 18.0833 23.5833 18.7922 23.5833 19.6666C23.5833 20.0809 23.919 20.4166 24.3333 20.4166C24.7475 20.4166 25.0833 20.0809 25.0833 19.6666C25.0833 18.2224 24.0903 17.0101 22.7499 16.6752V15.5833C22.7499 15.1691 22.4141 14.8333 21.9999 14.8333C21.5857 14.8333 21.2499 15.1691 21.2499 15.5833V16.6752C19.9095 17.0102 18.9166 18.2224 18.9166 19.6666C18.9166 21.3695 20.297 22.75 21.9999 22.75C22.8744 22.75 23.5833 23.4589 23.5833 24.3333C23.5833 25.2078 22.8744 25.9166 21.9999 25.9166C21.1255 25.9166 20.4166 25.2078 20.4166 24.3333C20.4166 23.9191 20.0808 23.5833 19.6666 23.5833C19.2524 23.5833 18.9166 23.9191 18.9166 24.3333C18.9166 25.7775 19.9095 26.9898 21.2499 27.3248V28.4166C21.2499 28.8309 21.5857 29.1666 21.9999 29.1666C22.4141 29.1666 22.7499 28.8309 22.7499 28.4166V27.3248C24.0903 26.9898 25.0833 25.7775 25.0833 24.3333C25.0833 22.6304 23.7028 21.25 21.9999 21.25H21.9989Z" fill="url(#paint1_linear_135_4610)"/>
<defs>
<linearGradient id="paint0_linear_135_4610" x1="-8.46154" y1="-7.78461" x2="50.4308" y2="50.7692" gradientUnits="userSpaceOnUse">
<stop stop-color="#851FC0"/>
<stop offset="1" stop-color="#4D15BE"/>
</linearGradient>
<linearGradient id="paint1_linear_135_4610" x1="5.84607" y1="6.20511" x2="37.0768" y2="37.2564" gradientUnits="userSpaceOnUse">
<stop stop-color="#851FC0"/>
<stop offset="1" stop-color="#4D15BE"/>
</linearGradient>
</defs>
</svg>
