<svg width="44" height="44" viewBox="0 0 44 44" fill="none" xmlns="http://www.w3.org/2000/svg">
<rect width="44" height="44" rx="16" fill="url(#paint0_linear_135_4763)" fill-opacity="0.05"/>
<path fill-rule="evenodd" clip-rule="evenodd" d="M17 11C15.3431 11 14 12.3431 14 14V29.6667C14 31.3236 15.3431 32.6667 17 32.6667H26.1667C27.8236 32.6667 29.1667 31.3236 29.1667 29.6667V14C29.1667 12.3431 27.8235 11 26.1667 11H17ZM20.5001 28.6667C20.0859 28.6667 19.7501 29.0025 19.7501 29.4167C19.7501 29.831 20.0859 30.1667 20.5001 30.1667H22.6667C23.081 30.1667 23.4167 29.831 23.4167 29.4167C23.4167 29.0025 23.081 28.6667 22.6667 28.6667H20.5001Z" fill="url(#paint1_linear_135_4763)"/>
<defs>
<linearGradient id="paint0_linear_135_4763" x1="-8.46154" y1="-7.78461" x2="50.4308" y2="50.7692" gradientUnits="userSpaceOnUse">
<stop stop-color="#851FC0"/>
<stop offset="1" stop-color="#4D15BE"/>
</linearGradient>
<linearGradient id="paint1_linear_135_4763" x1="11.0833" y1="7.16666" x2="38.2781" y2="26.0936" gradientUnits="userSpaceOnUse">
<stop stop-color="#851FC0"/>
<stop offset="1" stop-color="#4D15BE"/>
</linearGradient>
</defs>
</svg>
