<svg width="44" height="44" viewBox="0 0 44 44" fill="none" xmlns="http://www.w3.org/2000/svg">
<rect width="44" height="44" rx="16" fill="url(#paint0_linear_135_4715)" fill-opacity="0.05"/>
<g clip-path="url(#clip0_135_4715)">
<path d="M31.9175 16.8296C28.7271 11.5878 23.9209 15.2346 23.9209 15.2346C23.6092 15.4701 23.0344 15.6638 22.6439 15.6647L21.3565 15.6656C20.966 15.6661 20.3912 15.4724 20.08 15.2368C20.08 15.2368 15.2733 11.5891 12.0824 16.8309C8.89236 22.0709 10.1779 27.7775 10.1779 27.7775C10.4031 29.1748 11.1455 30.1072 12.5463 29.9901C13.9432 29.8734 16.9751 26.2271 16.9751 26.2271C17.2255 25.9267 17.7503 25.6812 18.1399 25.6812L25.8578 25.6798C26.2478 25.6798 26.7722 25.9253 27.0221 26.2258C27.0221 26.2258 30.0545 29.8721 31.4536 29.9887C32.8526 30.1059 33.5968 29.1725 33.8206 27.7762C33.8202 27.7762 35.108 22.0704 31.9175 16.8296ZM19.0993 21.0961H17.4444V22.6912C17.4444 22.6912 17.094 22.9587 16.5517 22.952C16.0102 22.9439 15.7652 22.6601 15.7652 22.6601V21.0966H14.2022C14.2022 21.0966 14.0071 20.8966 13.9549 20.37C13.9035 19.8435 14.1706 19.4178 14.1706 19.4178H15.826V17.7629C15.826 17.7629 16.1665 17.5805 16.6562 17.5944C17.1462 17.6097 17.5052 17.794 17.5052 17.794L17.4985 19.4174H19.0615C19.0615 19.4174 19.3345 19.7678 19.357 20.1912C19.3795 20.6151 19.0993 21.0961 19.0993 21.0961ZM26.6902 22.9141C25.9654 22.9141 25.3812 22.3281 25.3812 21.6042C25.3812 20.879 25.9654 20.2944 26.6902 20.2944C27.4118 20.2944 28.0005 20.879 28.0005 21.6042C28.0005 22.3286 27.4118 22.9141 26.6902 22.9141ZM26.6902 19.3102C25.9654 19.3102 25.3812 18.7246 25.3812 18.0007C25.3812 17.2755 25.9654 16.6908 26.6902 16.6908C27.4118 16.6908 28.0005 17.2755 28.0005 18.0007C28.0005 18.725 27.4118 19.3102 26.6902 19.3102ZM29.9523 21.2448C29.2275 21.2448 28.6433 20.6592 28.6433 19.9349C28.6433 19.2102 29.2275 18.625 29.9523 18.625C30.6739 18.625 31.2626 19.2102 31.2626 19.9349C31.2626 20.6592 30.6739 21.2448 29.9523 21.2448Z" fill="url(#paint1_linear_135_4715)"/>
</g>
<defs>
<linearGradient id="paint0_linear_135_4715" x1="-8.46154" y1="-7.78461" x2="50.4308" y2="50.7692" gradientUnits="userSpaceOnUse">
<stop stop-color="#851FC0"/>
<stop offset="1" stop-color="#4D15BE"/>
</linearGradient>
<linearGradient id="paint1_linear_135_4715" x1="5.27662" y1="11.1692" x2="25.0398" y2="40.8344" gradientUnits="userSpaceOnUse">
<stop stop-color="#851FC0"/>
<stop offset="1" stop-color="#4D15BE"/>
</linearGradient>
<clipPath id="clip0_135_4715">
<rect width="28" height="28" fill="white" transform="translate(8 8)"/>
</clipPath>
</defs>
</svg>
