<svg width="44" height="44" viewBox="0 0 44 44" fill="none" xmlns="http://www.w3.org/2000/svg">
<rect width="44" height="44" rx="16" fill="url(#paint0_linear_135_4667)" fill-opacity="0.05"/>
<path fill-rule="evenodd" clip-rule="evenodd" d="M21.9999 14.4449L22.8925 13.486C25.3572 10.838 29.3533 10.838 31.818 13.486C33.7409 15.5518 34.1636 18.6189 33.0863 21.125H26.6666C26.374 21.125 26.1008 21.2712 25.9385 21.5146L24.3333 23.9226L20.3946 18.0146C20.2323 17.7712 19.9591 17.625 19.6666 17.625C19.374 17.625 19.1008 17.7712 18.9385 18.0146L16.865 21.125H10.9135C9.83622 18.6189 10.259 15.5518 12.1818 13.486C14.6465 10.838 18.6426 10.838 21.1074 13.486L21.9999 14.4449ZM12.0027 22.875C12.0609 22.9427 12.1206 23.0095 12.1818 23.0753L20.2148 31.7056C21.2007 32.7648 22.7991 32.7648 23.785 31.7056L31.818 23.0753C31.8792 23.0095 31.9389 22.9427 31.9971 22.875H27.1349L25.0613 25.9854C24.899 26.2288 24.6258 26.375 24.3333 26.375C24.0407 26.375 23.7675 26.2288 23.6052 25.9854L19.6666 20.0774L18.0613 22.4854C17.899 22.7288 17.6258 22.875 17.3333 22.875H12.0027Z" fill="url(#paint1_linear_135_4667)"/>
<defs>
<linearGradient id="paint0_linear_135_4667" x1="-8.46154" y1="-7.78461" x2="50.4308" y2="50.7692" gradientUnits="userSpaceOnUse">
<stop stop-color="#851FC0"/>
<stop offset="1" stop-color="#4D15BE"/>
</linearGradient>
<linearGradient id="paint1_linear_135_4667" x1="5.84607" y1="7.78462" x2="33.8154" y2="38.683" gradientUnits="userSpaceOnUse">
<stop stop-color="#851FC0"/>
<stop offset="1" stop-color="#4D15BE"/>
</linearGradient>
</defs>
</svg>
