<svg width="44" height="44" viewBox="0 0 44 44" fill="none" xmlns="http://www.w3.org/2000/svg">
<rect width="44" height="44" rx="16" fill="url(#paint0_linear_135_4727)" fill-opacity="0.05"/>
<path d="M12.5356 16.9642H30.1392C31.4238 16.9642 32.4642 18.0313 32.4642 19.3488V30.0796C32.4642 31.3971 31.4238 32.4642 30.1392 32.4642H18.5142C17.2297 32.4642 16.1892 31.3971 16.1892 30.0796V26.5027" stroke="url(#paint1_linear_135_4727)" stroke-width="1.5" stroke-linecap="round" stroke-linejoin="round"/>
<path fill-rule="evenodd" clip-rule="evenodd" d="M13.4583 27.6667H26.375C27.8023 27.6667 28.9583 26.5106 28.9583 25.0833V13.4583C28.9583 12.031 27.8023 10.875 26.375 10.875H13.4583C12.031 10.875 10.875 12.031 10.875 13.4583V25.0833C10.875 26.5106 12.031 27.6667 13.4583 27.6667ZM12.5358 12.8818C12.5854 12.8818 12.6339 12.8866 12.6808 12.8958C12.8156 12.9219 12.956 12.9864 13.0741 13.1045C13.2357 13.266 13.2969 13.4691 13.2969 13.6429C13.2969 13.8166 13.2357 14.0197 13.0741 14.1812C12.9126 14.3427 12.7095 14.4039 12.5358 14.4039C12.362 14.4039 12.1589 14.3427 11.9974 14.1812C11.8359 14.0197 11.7747 13.8166 11.7747 13.6429C11.7747 13.4691 11.8359 13.266 11.9974 13.1045C12.1156 12.9864 12.2559 12.9219 12.3908 12.8958C12.4377 12.8866 12.4862 12.8818 12.5358 12.8818ZM14.75 12.8818C14.7996 12.8818 14.8481 12.8866 14.895 12.8958C15.0299 12.9219 15.1702 12.9864 15.2884 13.1045C15.4499 13.266 15.5111 13.4691 15.5111 13.6429C15.5111 13.8166 15.4499 14.0197 15.2884 14.1812C15.1269 14.3427 14.9238 14.4039 14.75 14.4039C14.5301 14.4039 14.3581 14.3108 14.249 14.2153C14.1256 14.1074 13.989 13.9122 13.989 13.6429C13.989 13.4691 14.0502 13.266 14.2117 13.1045C14.3298 12.9864 14.4702 12.9219 14.6051 12.8958C14.652 12.8866 14.7004 12.8818 14.75 12.8818ZM17.1093 12.8958C17.0624 12.8866 17.0139 12.8818 16.9643 12.8818C16.9147 12.8818 16.8662 12.8866 16.8193 12.8958C16.6844 12.9219 16.5441 12.9864 16.4259 13.1045C16.2644 13.266 16.2032 13.4691 16.2032 13.6429C16.2032 13.8166 16.2644 14.0197 16.4259 14.1812C16.5874 14.3427 16.7905 14.4039 16.9643 14.4039C17.138 14.4039 17.3411 14.3427 17.5026 14.1812C17.6642 14.0197 17.7254 13.8166 17.7254 13.6429C17.7254 13.4691 17.6642 13.266 17.5026 13.1045C17.3845 12.9864 17.2441 12.9219 17.1093 12.8958Z" fill="url(#paint2_linear_135_4727)"/>
<path d="M11.9822 17.3334H27.7036" stroke="white" stroke-linecap="round" stroke-linejoin="round"/>
<defs>
<linearGradient id="paint0_linear_135_4727" x1="-8.46154" y1="-7.78461" x2="50.4308" y2="50.7692" gradientUnits="userSpaceOnUse">
<stop stop-color="#851FC0"/>
<stop offset="1" stop-color="#4D15BE"/>
</linearGradient>
<linearGradient id="paint1_linear_135_4727" x1="8.70323" y1="14.2219" x2="28.8396" y2="39.9628" gradientUnits="userSpaceOnUse">
<stop stop-color="#851FC0"/>
<stop offset="1" stop-color="#4D15BE"/>
</linearGradient>
<linearGradient id="paint2_linear_135_4727" x1="7.39744" y1="7.90417" x2="29.8204" y2="31.9132" gradientUnits="userSpaceOnUse">
<stop stop-color="#851FC0"/>
<stop offset="1" stop-color="#4D15BE"/>
</linearGradient>
</defs>
</svg>
