<svg width="44" height="44" viewBox="0 0 44 44" fill="none" xmlns="http://www.w3.org/2000/svg">
<rect width="44" height="44" rx="16" fill="url(#paint0_linear_135_4617)" fill-opacity="0.05"/>
<path fill-rule="evenodd" clip-rule="evenodd" d="M11.2083 9.45831C10.725 9.45831 10.3333 9.85006 10.3333 10.3333C10.3333 10.8166 10.725 11.2083 11.2083 11.2083H13.5416C14.347 11.2083 14.9999 11.8612 14.9999 12.6666V15V23.1666C14.9999 25.744 17.0893 27.8333 19.6666 27.8333H28.9999C31.5772 27.8333 33.6666 25.744 33.6666 23.1666V17.3333C33.6666 14.756 31.5772 12.6666 28.9999 12.6666L16.7499 12.6666C16.7499 10.8947 15.3135 9.45831 13.5416 9.45831H11.2083ZM19.0833 33.6666C20.0498 33.6666 20.8333 32.8831 20.8333 31.9166C20.8333 30.9501 20.0498 30.1666 19.0833 30.1666C18.1168 30.1666 17.3333 30.9501 17.3333 31.9166C17.3333 32.8831 18.1168 33.6666 19.0833 33.6666ZM31.3333 31.9166C31.3333 32.8831 30.5497 33.6666 29.5833 33.6666C28.6168 33.6666 27.8333 32.8831 27.8333 31.9166C27.8333 30.9501 28.6168 30.1666 29.5833 30.1666C30.5497 30.1666 31.3333 30.9501 31.3333 31.9166ZM20.8333 17.0416C20.35 17.0416 19.9583 17.4334 19.9583 17.9166C19.9583 18.3999 20.35 18.7916 20.8333 18.7916H27.8333C28.3165 18.7916 28.7083 18.3999 28.7083 17.9166C28.7083 17.4334 28.3165 17.0416 27.8333 17.0416H20.8333ZM19.9583 22.5833C19.9583 22.1001 20.35 21.7083 20.8333 21.7083H27.8333C28.3165 21.7083 28.7083 22.1001 28.7083 22.5833C28.7083 23.0666 28.3165 23.4583 27.8333 23.4583H20.8333C20.35 23.4583 19.9583 23.0666 19.9583 22.5833Z" fill="url(#paint1_linear_135_4617)"/>
<defs>
<linearGradient id="paint0_linear_135_4617" x1="-8.46154" y1="-7.78461" x2="50.4308" y2="50.7692" gradientUnits="userSpaceOnUse">
<stop stop-color="#851FC0"/>
<stop offset="1" stop-color="#4D15BE"/>
</linearGradient>
<linearGradient id="paint1_linear_135_4617" x1="5.84607" y1="5.1753" x2="38.2192" y2="36.199" gradientUnits="userSpaceOnUse">
<stop stop-color="#851FC0"/>
<stop offset="1" stop-color="#4D15BE"/>
</linearGradient>
</defs>
</svg>
