<svg width="44" height="44" viewBox="0 0 44 44" fill="none" xmlns="http://www.w3.org/2000/svg">
<rect width="44" height="44" rx="16" fill="url(#paint0_linear_135_4737)" fill-opacity="0.05"/>
<path fill-rule="evenodd" clip-rule="evenodd" d="M19.6817 29.771L15.3421 20.4647L12.7374 21.6793C11.2989 22.3501 10.6185 23.9355 11.2176 25.2204L13.3874 29.8736C13.8464 30.8577 14.9228 31.3802 16.0479 31.2695L17.327 34.155L19.7944 32.9376L18.5914 30.2794L19.6817 29.771Z" fill="url(#paint1_linear_135_4737)"/>
<path d="M23.9027 11.5265L17.5223 18.8639C17.0001 19.4645 16.8836 20.3175 17.2258 21.0361L20.8601 28.668C21.1803 29.3404 21.8475 29.7792 22.5918 29.8068L31.1121 30.1224C32.5413 30.1753 33.5625 28.7548 33.0571 27.4169L27.2828 12.132C26.748 10.7164 24.8956 10.3846 23.9027 11.5265Z" fill="url(#paint2_linear_135_4737)"/>
<defs>
<linearGradient id="paint0_linear_135_4737" x1="-8.46154" y1="-7.78461" x2="50.4308" y2="50.7692" gradientUnits="userSpaceOnUse">
<stop stop-color="#851FC0"/>
<stop offset="1" stop-color="#4D15BE"/>
</linearGradient>
<linearGradient id="paint1_linear_135_4737" x1="9.30877" y1="18.0426" x2="25.9339" y2="28.661" gradientUnits="userSpaceOnUse">
<stop stop-color="#851FC0"/>
<stop offset="1" stop-color="#4D15BE"/>
</linearGradient>
<linearGradient id="paint2_linear_135_4737" x1="13.3049" y1="5.24325" x2="41.1586" y2="28.0136" gradientUnits="userSpaceOnUse">
<stop stop-color="#851FC0"/>
<stop offset="1" stop-color="#4D15BE"/>
</linearGradient>
</defs>
</svg>
