<svg width="44" height="44" viewBox="0 0 44 44" fill="none" xmlns="http://www.w3.org/2000/svg">
<rect width="44" height="44" rx="16" fill="url(#paint0_linear_135_4699)" fill-opacity="0.05"/>
<path fill-rule="evenodd" clip-rule="evenodd" d="M12.25 12H24.75C25.4404 12 26 12.5876 26 13.3125V33H12.25C11.5596 33 11 32.4124 11 31.6875V13.3125C11 12.5876 11.5596 12 12.25 12ZM16.1642 18.4355C15.6694 18.4355 15.2683 18.8366 15.2683 19.3314C15.2683 19.8262 15.6694 20.2273 16.1642 20.2273C16.659 20.2273 17.0601 19.8262 17.0601 19.3314C17.0601 18.8366 16.659 18.4355 16.1642 18.4355ZM20.8329 18.4355C20.3381 18.4355 19.937 18.8366 19.937 19.3314C19.937 19.8262 20.3381 20.2273 20.8329 20.2273C21.3277 20.2273 21.7288 19.8262 21.7288 19.3314C21.7288 18.8366 21.3277 18.4355 20.8329 18.4355ZM15.2683 24C15.2683 23.5052 15.6694 23.1041 16.1642 23.1041C16.659 23.1041 17.0601 23.5052 17.0601 24C17.0601 24.4947 16.659 24.8959 16.1642 24.8959C15.6694 24.8959 15.2683 24.4947 15.2683 24ZM20.8329 23.1041C20.3381 23.1041 19.937 23.5052 19.937 24C19.937 24.4947 20.3381 24.8959 20.8329 24.8959C21.3277 24.8959 21.7288 24.4947 21.7288 24C21.7288 23.5052 21.3277 23.1041 20.8329 23.1041ZM15.2683 28.6686C15.2683 28.1738 15.6694 27.7727 16.1642 27.7727C16.659 27.7727 17.0601 28.1738 17.0601 28.6686C17.0601 29.1634 16.659 29.5645 16.1642 29.5645C15.6694 29.5645 15.2683 29.1634 15.2683 28.6686ZM20.8329 27.7727C20.3381 27.7727 19.937 28.1738 19.937 28.6686C19.937 29.1634 20.3381 29.5645 20.8329 29.5645C21.3277 29.5645 21.7288 29.1634 21.7288 28.6686C21.7288 28.1738 21.3277 27.7727 20.8329 27.7727Z" fill="url(#paint1_linear_135_4699)"/>
<path fill-rule="evenodd" clip-rule="evenodd" d="M27 17H32.8333C33.4777 17 34 17.597 34 18.3333V31.6667C34 32.403 33.4777 33 32.8333 33H27V17ZM30.0031 23.1041C29.5083 23.1041 29.1072 23.5052 29.1072 24C29.1072 24.4947 29.5083 24.8959 30.0031 24.8959C30.4979 24.8959 30.899 24.4947 30.899 24C30.899 23.5052 30.4979 23.1041 30.0031 23.1041ZM30.0031 27.7727C29.5083 27.7727 29.1072 28.1738 29.1072 28.6686C29.1072 29.1634 29.5083 29.5645 30.0031 29.5645C30.4979 29.5645 30.899 29.1634 30.899 28.6686C30.899 28.1738 30.4979 27.7727 30.0031 27.7727Z" fill="url(#paint2_linear_135_4699)"/>
<defs>
<linearGradient id="paint0_linear_135_4699" x1="-8.46154" y1="-7.78461" x2="50.4308" y2="50.7692" gradientUnits="userSpaceOnUse">
<stop stop-color="#851FC0"/>
<stop offset="1" stop-color="#4D15BE"/>
</linearGradient>
<linearGradient id="paint1_linear_135_4699" x1="8.11538" y1="8.28462" x2="34.6541" y2="27.1319" gradientUnits="userSpaceOnUse">
<stop stop-color="#851FC0"/>
<stop offset="1" stop-color="#4D15BE"/>
</linearGradient>
<linearGradient id="paint2_linear_135_4699" x1="25.6538" y1="14.1692" x2="41.3206" y2="20.984" gradientUnits="userSpaceOnUse">
<stop stop-color="#851FC0"/>
<stop offset="1" stop-color="#4D15BE"/>
</linearGradient>
</defs>
</svg>
