<svg width="44" height="44" viewBox="0 0 44 44" fill="none" xmlns="http://www.w3.org/2000/svg">
<rect width="44" height="44" rx="16" fill="url(#paint0_linear_135_4753)" fill-opacity="0.05"/>
<path fill-rule="evenodd" clip-rule="evenodd" d="M19.4801 13.9063C19.0607 14.9632 18.7195 16.247 18.4888 17.6882C19.6046 17.586 20.7835 17.5316 21.9999 17.5316C23.2164 17.5316 24.3953 17.586 25.511 17.6882C25.2804 16.247 24.9391 14.9632 24.5198 13.9063C24.1168 12.8905 23.659 12.1284 23.1961 11.6349C22.7349 11.1433 22.3304 10.9781 21.9999 10.9781C21.6695 10.9781 21.265 11.1433 20.8038 11.6349C20.3409 12.1284 19.8831 12.8905 19.4801 13.9063ZM17.834 13.2425C17.3108 14.5612 16.9094 16.1498 16.6633 17.9059C15.4521 18.086 14.3467 18.3263 13.388 18.6163C12.2725 18.9537 11.3052 19.3731 10.597 19.8796C10.5076 19.9435 10.4192 20.0112 10.3333 20.0824C11.115 15.211 14.8263 11.3292 19.586 10.3334C19.5624 10.3576 19.5389 10.3821 19.5157 10.4068C18.8475 11.1192 18.2865 12.1021 17.834 13.2425ZM24.4139 10.3334C24.4375 10.3576 24.4609 10.3821 24.4842 10.4068C25.1524 11.1192 25.7134 12.1021 26.1658 13.2425C26.6891 14.5612 27.0905 16.1498 27.3366 17.9059C28.5478 18.086 29.6532 18.3263 30.6119 18.6163C31.7274 18.9537 32.6947 19.3731 33.4029 19.8796C33.4923 19.9435 33.5807 20.0112 33.6666 20.0825C32.8849 15.211 29.1736 11.3292 24.4139 10.3334ZM33.6666 23.9173C33.5807 23.9886 33.4924 24.0562 33.4029 24.1202C32.6947 24.6266 31.7274 25.0461 30.6119 25.3835C29.6532 25.6734 28.5478 25.9137 27.3366 26.0938C27.0905 27.85 26.6891 29.4385 26.1658 30.7572C25.7134 31.8977 25.1524 32.8805 24.4842 33.5929C24.4608 33.6178 24.4373 33.6424 24.4136 33.6667C29.1736 32.671 32.885 28.7889 33.6666 23.9173ZM19.5863 33.6667C19.5626 33.6424 19.5391 33.6178 19.5157 33.5929C18.8475 32.8805 18.2865 31.8977 17.834 30.7572C17.3108 29.4385 16.9094 27.85 16.6633 26.0938C15.4521 25.9137 14.3467 25.6734 13.388 25.3835C12.2725 25.0461 11.3052 24.6266 10.597 24.1202C10.5075 24.0562 10.4192 23.9886 10.3333 23.9173C11.1149 28.7889 14.8263 32.671 19.5863 33.6667ZM13.8974 23.6716C14.6493 23.899 15.5144 24.0961 16.468 24.2543C16.414 23.5214 16.386 22.7679 16.386 21.9999C16.386 21.2319 16.414 20.4784 16.468 19.7455C15.5145 19.9037 14.6493 20.1008 13.8974 20.3282C12.8741 20.6377 12.1106 20.9885 11.6227 21.3374C11.1117 21.7028 11.0675 21.9396 11.0675 21.9999C11.0675 22.0602 11.1117 22.297 11.6227 22.6624C12.1106 23.0113 12.8741 23.3621 13.8974 23.6716ZM18.1588 21.9999C18.1588 22.8592 18.196 23.6938 18.2659 24.4942C19.4313 24.6147 20.6873 24.6808 21.9999 24.6808C23.3126 24.6808 24.5686 24.6147 25.734 24.4942C25.8039 23.6938 25.8411 22.8592 25.8411 21.9999C25.8411 21.1405 25.8039 20.3059 25.734 19.5056C24.5686 19.3851 23.3126 19.3189 21.9999 19.3189C20.6873 19.3189 19.4313 19.3851 18.2659 19.5056C18.196 20.3059 18.1588 21.1405 18.1588 21.9999ZM19.4801 30.0934C19.0607 29.0366 18.7195 27.7528 18.4888 26.3115C19.6046 26.4137 20.7835 26.4682 21.9999 26.4682C23.2164 26.4682 24.3953 26.4137 25.511 26.3115C25.2804 27.7528 24.9391 29.0366 24.5198 30.0934C24.1168 31.1093 23.659 31.8713 23.1961 32.3649C22.7349 32.8565 22.3304 33.0216 21.9999 33.0216C21.6695 33.0216 21.265 32.8565 20.8038 32.3649C20.3409 31.8713 19.8831 31.1093 19.4801 30.0934ZM30.1024 23.6716C29.3505 23.899 28.4854 24.0961 27.5319 24.2543C27.5859 23.5214 27.6139 22.7679 27.6139 21.9999C27.6139 21.2319 27.5859 20.4784 27.5319 19.7455C28.4854 19.9037 29.3505 20.1008 30.1024 20.3282C31.1258 20.6377 31.8893 20.9885 32.3772 21.3374C32.8882 21.7028 32.9324 21.9396 32.9324 21.9999C32.9324 22.0602 32.8882 22.297 32.3772 22.6624C31.8893 23.0113 31.1258 23.3621 30.1024 23.6716Z" fill="url(#paint1_linear_135_4753)"/>
<defs>
<linearGradient id="paint0_linear_135_4753" x1="-8.46154" y1="-7.78461" x2="50.4308" y2="50.7692" gradientUnits="userSpaceOnUse">
<stop stop-color="#851FC0"/>
<stop offset="1" stop-color="#4D15BE"/>
</linearGradient>
<linearGradient id="paint1_linear_135_4753" x1="5.84606" y1="6.20516" x2="37.0769" y2="37.2565" gradientUnits="userSpaceOnUse">
<stop stop-color="#851FC0"/>
<stop offset="1" stop-color="#4D15BE"/>
</linearGradient>
</defs>
</svg>
