<svg width="44" height="44" viewBox="0 0 44 44" fill="none" xmlns="http://www.w3.org/2000/svg">
<rect width="44" height="44" rx="16" fill="url(#paint0_linear_721_4913)" fill-opacity="0.05"/>
<path fill-rule="evenodd" clip-rule="evenodd" d="M24.7304 16.8921C24.1496 16.5817 23.522 16.3736 22.8752 16.2747V10.3662C24.4903 10.4877 26.0658 10.9444 27.4998 11.7109C29.1919 12.6154 30.6348 13.9231 31.7007 15.5184C32.7666 17.1136 33.4226 18.9471 33.6107 20.8565C33.6195 20.946 33.6273 21.0355 33.634 21.125H27.7255C27.5976 20.2882 27.2876 19.4883 26.8159 18.7823C26.2867 17.9904 25.5704 17.3411 24.7304 16.8921ZM15.5185 12.2995C17.1937 11.1802 19.1259 10.5166 21.1252 10.3662V16.2747C20.2906 16.4023 19.4903 16.7114 18.7824 17.1843C17.83 17.8208 17.0876 18.7253 16.6493 19.7836C16.2109 20.8419 16.0962 22.0065 16.3197 23.1299C16.4858 23.9649 16.8331 24.7494 17.3331 25.4297L13.1551 29.6077C11.8477 28.0877 10.9507 26.2521 10.5577 24.2761C10.1075 22.013 10.3386 19.6672 11.2216 17.5354C12.1046 15.4036 13.5999 13.5815 15.5185 12.2995ZM14.3926 30.8451C15.6205 31.9013 17.0575 32.6923 18.6135 33.1643C20.4495 33.7213 22.3945 33.8168 24.2762 33.4425C26.1405 33.0717 27.8856 32.2511 29.36 31.0524L24.1017 27.3971C23.7878 27.5193 23.4628 27.6143 23.1301 27.6805C22.196 27.8663 21.2304 27.8189 20.3189 27.5424C19.6887 27.3512 19.0978 27.0546 18.5705 26.6671L14.3926 30.8451ZM27.3511 24.2164C27.5301 23.7844 27.6554 23.3339 27.7255 22.875H33.634C33.5415 24.1051 33.2541 25.3171 32.7788 26.4647C32.2667 27.7009 31.5476 28.8357 30.6562 29.8221L25.7516 26.4127C26.451 25.8181 26.9994 25.0654 27.3511 24.2164Z" fill="url(#paint1_linear_721_4913)"/>
<defs>
<linearGradient id="paint0_linear_721_4913" x1="-8.46154" y1="-7.78461" x2="50.4308" y2="50.7692" gradientUnits="userSpaceOnUse">
<stop stop-color="#851FC0"/>
<stop offset="1" stop-color="#4D15BE"/>
</linearGradient>
<linearGradient id="paint1_linear_721_4913" x1="5.85263" y1="6.24382" x2="37.0394" y2="37.2514" gradientUnits="userSpaceOnUse">
<stop stop-color="#851FC0"/>
<stop offset="1" stop-color="#4D15BE"/>
</linearGradient>
</defs>
</svg>
