<svg width="44" height="44" viewBox="0 0 44 44" fill="none" xmlns="http://www.w3.org/2000/svg">
<rect width="44" height="44" rx="16" fill="url(#paint0_linear_721_5325)" fill-opacity="0.05"/>
<path fill-rule="evenodd" clip-rule="evenodd" d="M19.6668 17.3334C19.6668 19.2664 18.0998 20.8334 16.1668 20.8334C14.2338 20.8334 12.6668 19.2664 12.6668 17.3334C12.6668 15.4004 14.2338 13.8334 16.1668 13.8334C18.0998 13.8334 19.6668 15.4004 19.6668 17.3334ZM23.4585 16.1667C23.4585 15.6835 23.8502 15.2917 24.3335 15.2917H33.6668C34.1501 15.2917 34.5418 15.6835 34.5418 16.1667C34.5418 16.65 34.1501 17.0417 33.6668 17.0417H24.3335C23.8502 17.0417 23.4585 16.65 23.4585 16.1667ZM23.4585 22C23.4585 21.5168 23.8502 21.125 24.3335 21.125H33.6668C34.1501 21.125 34.5418 21.5168 34.5418 22C34.5418 22.4833 34.1501 22.875 33.6668 22.875H24.3335C23.8502 22.875 23.4585 22.4833 23.4585 22ZM26.6668 26.9584C26.1836 26.9584 25.7918 27.3501 25.7918 27.8334C25.7918 28.3166 26.1836 28.7084 26.6668 28.7084H33.6668C34.1501 28.7084 34.5418 28.3166 34.5418 27.8334C34.5418 27.3501 34.1501 26.9584 33.6668 26.9584H26.6668ZM16.1668 30.1667C19.3885 30.1667 22.0002 28.5997 22.0002 26.6667C22.0002 24.7337 19.3885 23.1667 16.1668 23.1667C12.9452 23.1667 10.3335 24.7337 10.3335 26.6667C10.3335 28.5997 12.9452 30.1667 16.1668 30.1667Z" fill="url(#paint1_linear_721_5325)"/>
<defs>
<linearGradient id="paint0_linear_721_5325" x1="-8.46154" y1="-7.78461" x2="50.4308" y2="50.7692" gradientUnits="userSpaceOnUse">
<stop stop-color="#851FC0"/>
<stop offset="1" stop-color="#4D15BE"/>
</linearGradient>
<linearGradient id="paint1_linear_721_5325" x1="5.67805" y1="10.9436" x2="25.9937" y2="40.8813" gradientUnits="userSpaceOnUse">
<stop stop-color="#851FC0"/>
<stop offset="1" stop-color="#4D15BE"/>
</linearGradient>
</defs>
</svg>
