<svg width="45" height="44" viewBox="0 0 45 44" fill="none" xmlns="http://www.w3.org/2000/svg">
<rect x="0.333496" width="44" height="44" rx="16" fill="url(#paint0_linear_721_4979)" fill-opacity="0.05"/>
<path fill-rule="evenodd" clip-rule="evenodd" d="M12.417 10.3333C11.4505 10.3333 10.667 11.1168 10.667 12.0833C10.667 13.0498 11.4505 13.8333 12.417 13.8333H32.2503C33.2168 13.8333 34.0003 13.0498 34.0003 12.0833C34.0003 11.1168 33.2168 10.3333 32.2503 10.3333H12.417ZM32.8337 15.5833H11.8337V26.6666C11.8337 27.9552 12.8783 28.9999 14.167 28.9999H21.4587V33.6666C21.4587 34.1498 21.8504 34.5416 22.3337 34.5416C22.8169 34.5416 23.2087 34.1498 23.2087 33.6666V28.9999H30.5003C31.789 28.9999 32.8337 27.9552 32.8337 26.6666V15.5833ZM27.7506 20.1169C27.9993 19.7025 27.8649 19.165 27.4505 18.9164C27.0361 18.6678 26.4986 18.8022 26.25 19.2165L24.9874 21.3209C24.5562 22.0396 23.5405 22.1079 23.0169 21.4534C21.7315 19.8467 19.238 20.0144 18.1793 21.7788L16.9167 23.8832C16.668 24.2976 16.8024 24.8351 17.2168 25.0837C17.6312 25.3323 18.1687 25.198 18.4173 24.7836L19.6799 22.6792C20.1111 21.9605 21.1268 21.8922 21.6504 22.5467C22.9358 24.1534 25.4293 23.9857 26.488 22.2213L27.7506 20.1169Z" fill="url(#paint1_linear_721_4979)"/>
<defs>
<linearGradient id="paint0_linear_721_4979" x1="-8.12804" y1="-7.78461" x2="50.7643" y2="50.7692" gradientUnits="userSpaceOnUse">
<stop stop-color="#851FC0"/>
<stop offset="1" stop-color="#4D15BE"/>
</linearGradient>
<linearGradient id="paint1_linear_721_4979" x1="6.17981" y1="6.05024" x2="38.5529" y2="37.0739" gradientUnits="userSpaceOnUse">
<stop stop-color="#851FC0"/>
<stop offset="1" stop-color="#4D15BE"/>
</linearGradient>
</defs>
</svg>
