<svg width="45" height="44" viewBox="0 0 45 44" fill="none" xmlns="http://www.w3.org/2000/svg">
<rect x="0.333496" width="44" height="44" rx="16" fill="url(#paint0_linear_721_5168)" fill-opacity="0.05"/>
<path fill-rule="evenodd" clip-rule="evenodd" d="M11.3335 15C11.3335 12.7909 13.1244 11 15.3335 11H29.0604C31.2695 11 33.0604 12.7909 33.0604 15L33.0604 24.3725H11.3335L11.3335 15ZM11.3537 25.8725H33.0402C32.8373 27.8916 31.1329 29.4679 29.0604 29.4679H23.0117V31.9121H25.4559C25.9059 31.9121 26.2707 32.2769 26.2707 32.7269C26.2707 33.1768 25.9059 33.5416 25.4559 33.5416H18.9379C18.4879 33.5416 18.1231 33.1768 18.1231 32.7269C18.1231 32.2769 18.4879 31.9121 18.9379 31.9121H21.3821V29.4679H15.3335C13.2609 29.4679 11.5565 27.8916 11.3537 25.8725ZM16.7653 15.6817C16.351 15.6817 16.0153 16.0175 16.0153 16.4317C16.0153 16.8459 16.351 17.1817 16.7653 17.1817H22.197C22.6112 17.1817 22.947 16.8459 22.947 16.4317C22.947 16.0175 22.6112 15.6817 22.197 15.6817H16.7653ZM16.0153 20.7771C16.0153 20.3629 16.351 20.0271 16.7653 20.0271H27.6287C28.0429 20.0271 28.3787 20.3629 28.3787 20.7771C28.3787 21.1913 28.0429 21.5271 27.6287 21.5271H16.7653C16.351 21.5271 16.0153 21.1913 16.0153 20.7771Z" fill="url(#paint1_linear_721_5168)"/>
<defs>
<linearGradient id="paint0_linear_721_5168" x1="-8.12804" y1="-7.78461" x2="50.7643" y2="50.7692" gradientUnits="userSpaceOnUse">
<stop stop-color="#851FC0"/>
<stop offset="1" stop-color="#4D15BE"/>
</linearGradient>
<linearGradient id="paint1_linear_721_5168" x1="7.15525" y1="7.01186" x2="37.2995" y2="35.8996" gradientUnits="userSpaceOnUse">
<stop stop-color="#851FC0"/>
<stop offset="1" stop-color="#4D15BE"/>
</linearGradient>
</defs>
</svg>
