<svg width="45" height="44" viewBox="0 0 45 44" fill="none" xmlns="http://www.w3.org/2000/svg">
<rect x="0.666504" width="44" height="44" rx="16" fill="url(#paint0_linear_721_5067)" fill-opacity="0.05"/>
<path fill-rule="evenodd" clip-rule="evenodd" d="M30.8329 9.45825C30.3497 9.45825 29.9579 9.85 29.9579 10.3333C29.9579 10.8165 30.3497 11.2083 30.8329 11.2083H32.1309C27.7624 14.6921 24.4382 16.8983 21.2775 18.3643C18.0139 19.878 14.883 20.6216 10.8887 21.132C10.4093 21.1932 10.0704 21.6315 10.1317 22.1108C10.1929 22.5902 10.6312 22.9291 11.1105 22.8679C15.2153 22.3433 18.5353 21.5652 22.0139 19.9518C25.4151 18.3743 28.9278 16.0168 33.4579 12.3879V13.8333C33.4579 14.3165 33.8497 14.7083 34.3329 14.7083C34.8162 14.7083 35.2079 14.3165 35.2079 13.8333V11.4999C35.2079 10.3723 34.2939 9.45825 33.1663 9.45825H30.8329ZM34.333 19.6666C34.333 18.3779 33.2883 17.3333 31.9997 17.3333C30.711 17.3333 29.6663 18.3779 29.6663 19.6666V31.3333C29.6663 32.6219 30.711 33.6666 31.9997 33.6666C33.2883 33.6666 34.333 32.6219 34.333 31.3333V19.6666ZM15.6663 28.9999C15.6663 27.7113 14.6217 26.6666 13.333 26.6666C12.0443 26.6666 10.9997 27.7113 10.9997 28.9999L10.9997 31.3333C10.9997 32.6219 12.0443 33.6666 13.333 33.6666C14.6217 33.6666 15.6663 32.6219 15.6663 31.3333V28.9999ZM22.6663 21.9999C23.955 21.9999 24.9997 23.0446 24.9997 24.3333V31.3333C24.9997 32.6219 23.955 33.6666 22.6663 33.6666C21.3777 33.6666 20.333 32.6219 20.333 31.3333V24.3333C20.333 23.0446 21.3777 21.9999 22.6663 21.9999Z" fill="url(#paint1_linear_721_5067)"/>
<defs>
<linearGradient id="paint0_linear_721_5067" x1="-7.79504" y1="-7.78461" x2="51.0973" y2="50.7692" gradientUnits="userSpaceOnUse">
<stop stop-color="#851FC0"/>
<stop offset="1" stop-color="#4D15BE"/>
</linearGradient>
<linearGradient id="paint1_linear_721_5067" x1="5.30078" y1="5.17524" x2="37.6889" y2="38.5413" gradientUnits="userSpaceOnUse">
<stop stop-color="#851FC0"/>
<stop offset="1" stop-color="#4D15BE"/>
</linearGradient>
</defs>
</svg>
