<svg width="45" height="44" viewBox="0 0 45 44" fill="none" xmlns="http://www.w3.org/2000/svg">
<rect x="0.666504" width="44" height="44" rx="16" fill="url(#paint0_linear_721_5258)" fill-opacity="0.05"/>
<path fill-rule="evenodd" clip-rule="evenodd" d="M14.4697 14.6697L20.9675 11.7818C22.0018 11.3221 23.1823 11.3221 24.2166 11.7818L30.6946 14.6609C32.1503 15.3079 33.101 16.7603 33.015 18.351C32.6059 25.9211 30.5298 29.1725 24.6605 33.079C23.4093 33.9118 21.7763 33.9099 20.5245 33.078C14.6781 29.1927 12.5181 25.9926 12.1507 18.3305C12.0749 16.7503 13.0241 15.3122 14.4697 14.6697ZM26.6565 20.887C26.9292 20.5752 26.8977 20.1014 26.5859 19.8286C26.2742 19.5559 25.8004 19.5875 25.5276 19.8992L22.0744 23.8458C21.9863 23.9464 21.8345 23.9599 21.7301 23.8763L19.5606 22.1408C19.2371 21.882 18.7652 21.9344 18.5064 22.2579C18.2476 22.5813 18.3001 23.0533 18.6235 23.3121L20.793 25.0476C21.5243 25.6327 22.5865 25.5383 23.2032 24.8335L26.6565 20.887Z" fill="url(#paint1_linear_721_5258)"/>
<defs>
<linearGradient id="paint0_linear_721_5258" x1="-7.79504" y1="-7.78461" x2="51.0973" y2="50.7692" gradientUnits="userSpaceOnUse">
<stop stop-color="#851FC0"/>
<stop offset="1" stop-color="#4D15BE"/>
</linearGradient>
<linearGradient id="paint1_linear_721_5258" x1="8.13227" y1="7.49768" x2="37.8611" y2="35.208" gradientUnits="userSpaceOnUse">
<stop stop-color="#851FC0"/>
<stop offset="1" stop-color="#4D15BE"/>
</linearGradient>
</defs>
</svg>
