<svg width="570" height="475" viewBox="0 0 570 475" fill="none" xmlns="http://www.w3.org/2000/svg">
<g clip-path="url(#clip0_648_14335)">
<g opacity="0.5" filter="url(#filter0_d_648_14335)">
<rect x="126.503" y="252.994" width="127.195" height="174.748" rx="12.9171" fill="white"/>
<g filter="url(#filter1_d_648_14335)">
<circle cx="190.101" cy="313.852" r="40" fill="#F1F2F5"/>
</g>
<g opacity="0.3">
<path d="M191.171 289.609C184.82 289.609 179.656 294.773 179.656 301.125C179.656 307.355 184.529 312.397 190.88 312.615C191.074 312.591 191.268 312.591 191.414 312.615C191.462 312.615 191.487 312.615 191.535 312.615C191.559 312.615 191.559 312.615 191.584 312.615C197.79 312.397 202.662 307.355 202.687 301.125C202.687 294.773 197.523 289.609 191.171 289.609Z" fill="#7E7982"/>
<path d="M203.489 319.061C196.725 314.552 185.695 314.552 178.883 319.061C175.804 321.122 174.107 323.91 174.107 326.892C174.107 329.873 175.804 332.637 178.858 334.673C182.252 336.952 186.713 338.092 191.174 338.092C195.634 338.092 200.095 336.952 203.489 334.673C206.543 332.613 208.24 329.849 208.24 326.843C208.216 323.861 206.543 321.098 203.489 319.061Z" fill="#7E7982"/>
</g>
<path fill-rule="evenodd" clip-rule="evenodd" d="M144.39 382.972C144.39 381.503 145.581 380.312 147.051 380.312H233.151C234.62 380.312 235.812 381.503 235.812 382.972V386.963C235.812 388.432 234.62 389.624 233.151 389.624H147.051C145.581 389.624 144.39 388.432 144.39 386.963V382.972Z" fill="#F1F3F8"/>
<path fill-rule="evenodd" clip-rule="evenodd" d="M155.686 400.234C155.686 398.764 156.877 397.573 158.347 397.573H221.855C223.324 397.573 224.516 398.764 224.516 400.234V404.225C224.516 405.694 223.324 406.885 221.855 406.885H158.347C156.877 406.885 155.686 405.694 155.686 404.225V400.234Z" fill="#F1F3F8"/>
<g clip-path="url(#clip1_648_14335)">
<circle cx="216.931" cy="344.606" r="9.93711" fill="white"/>
<path fill-rule="evenodd" clip-rule="evenodd" d="M216.931 354.543C222.419 354.543 226.868 350.094 226.868 344.606C226.868 339.118 222.419 334.669 216.931 334.669C211.443 334.669 206.994 339.118 206.994 344.606C206.994 350.094 211.443 354.543 216.931 354.543ZM221.455 342.128C221.733 341.825 221.713 341.354 221.409 341.075C221.106 340.797 220.634 340.818 220.356 341.121L215.44 346.484L213.505 344.373C213.227 344.07 212.756 344.049 212.452 344.328C212.149 344.606 212.128 345.077 212.407 345.381L214.891 348.091C215.032 348.245 215.231 348.332 215.44 348.332C215.649 348.332 215.848 348.245 215.99 348.091L221.455 342.128Z" fill="#34B53A"/>
<circle cx="216.5" cy="344.5" r="10.4167" fill="white"/>
<path fill-rule="evenodd" clip-rule="evenodd" d="M216.5 354.917C222.253 354.917 226.916 350.253 226.916 344.5C226.916 338.747 222.253 334.083 216.5 334.083C210.747 334.083 206.083 338.747 206.083 344.5C206.083 350.253 210.747 354.917 216.5 354.917ZM211.617 339.617C212.012 339.221 212.654 339.221 213.05 339.617L216.5 343.067L219.95 339.617C220.346 339.221 220.987 339.221 221.383 339.617C221.779 340.013 221.779 340.654 221.383 341.05L217.933 344.5L221.383 347.95C221.779 348.346 221.779 348.988 221.383 349.383C220.987 349.779 220.346 349.779 219.95 349.383L216.5 345.933L213.05 349.383C212.654 349.779 212.012 349.779 211.617 349.383C211.221 348.988 211.221 348.346 211.617 347.95L215.067 344.5L211.617 341.05C211.221 340.654 211.221 340.013 211.617 339.617Z" fill="#FF4C25"/>
</g>
</g>
<g opacity="0.5" filter="url(#filter2_d_648_14335)">
<rect x="349.094" y="158.016" width="172.906" height="237.549" rx="17.5591" fill="white"/>
<g filter="url(#filter3_d_648_14335)">
<circle cx="435.547" cy="240.745" r="54" fill="#F1F2F5"/>
</g>
<g opacity="0.3">
<path d="M437.176 214.334C430.19 214.334 424.51 220.014 424.51 227C424.51 233.854 429.87 239.4 436.856 239.64C437.07 239.614 437.283 239.614 437.443 239.64C437.496 239.64 437.523 239.64 437.576 239.64C437.603 239.64 437.603 239.64 437.63 239.64C444.456 239.4 449.816 233.854 449.843 227C449.843 220.014 444.163 214.334 437.176 214.334Z" fill="#7E7982"/>
<path d="M450.725 246.731C443.285 241.771 431.152 241.771 423.659 246.731C420.272 248.997 418.405 252.064 418.405 255.344C418.405 258.624 420.272 261.664 423.632 263.904C427.365 266.411 432.272 267.664 437.179 267.664C442.085 267.664 446.992 266.411 450.725 263.904C454.085 261.637 455.952 258.597 455.952 255.291C455.925 252.011 454.085 248.971 450.725 246.731Z" fill="#7E7982"/>
</g>
<path fill-rule="evenodd" clip-rule="evenodd" d="M373.409 334.33C373.409 332.333 375.028 330.713 377.026 330.713H494.068C496.066 330.713 497.685 332.333 497.685 334.33V339.755C497.685 341.753 496.066 343.372 494.068 343.372H377.026C375.028 343.372 373.409 341.753 373.409 339.755V334.33Z" fill="#F1F3F8"/>
<path fill-rule="evenodd" clip-rule="evenodd" d="M388.765 357.795C388.765 355.798 390.384 354.179 392.381 354.179H478.713C480.71 354.179 482.33 355.798 482.33 357.795V363.22C482.33 365.218 480.71 366.837 478.713 366.837H392.381C390.384 366.837 388.765 365.218 388.765 363.22V357.795Z" fill="#F1F3F8"/>
<circle cx="472.019" cy="282.551" r="13.5083" fill="white"/>
<path fill-rule="evenodd" clip-rule="evenodd" d="M472.019 296.059C479.479 296.059 485.527 290.011 485.527 282.551C485.527 275.09 479.479 269.042 472.019 269.042C464.559 269.042 458.511 275.09 458.511 282.551C458.511 290.011 464.559 296.059 472.019 296.059ZM465.899 276.431C466.295 276.035 466.936 276.035 467.332 276.431L472.019 281.118L476.706 276.431C477.102 276.035 477.743 276.035 478.139 276.431C478.534 276.827 478.534 277.468 478.139 277.864L473.452 282.551L478.139 287.238C478.534 287.633 478.534 288.275 478.139 288.67C477.743 289.066 477.102 289.066 476.706 288.67L472.019 283.984L467.332 288.67C466.936 289.066 466.295 289.066 465.899 288.67C465.504 288.275 465.504 287.633 465.899 287.238L470.586 282.551L465.899 277.864C465.504 277.468 465.504 276.827 465.899 276.431Z" fill="#FF4C25"/>
</g>
<g opacity="0.5" filter="url(#filter4_d_648_14335)">
<rect x="48" y="78.3297" width="127.195" height="174.748" rx="12.9171" fill="white"/>
<g filter="url(#filter5_d_648_14335)">
<circle cx="111.598" cy="139.187" r="40" fill="#F1F2F5"/>
</g>
<g opacity="0.3">
<path d="M112.668 114.945C106.316 114.945 101.153 120.108 101.153 126.46C101.153 132.69 106.026 137.733 112.377 137.951C112.571 137.927 112.765 137.927 112.91 137.951C112.959 137.951 112.983 137.951 113.032 137.951C113.056 137.951 113.056 137.951 113.08 137.951C119.286 137.733 124.159 132.69 124.183 126.46C124.183 120.108 119.019 114.945 112.668 114.945Z" fill="#7E7982"/>
<path d="M124.985 144.397C118.222 139.887 107.191 139.887 100.379 144.397C97.3005 146.457 95.6035 149.245 95.6035 152.227C95.6035 155.209 97.3005 157.972 100.355 160.009C103.749 162.287 108.21 163.427 112.67 163.427C117.131 163.427 121.591 162.287 124.985 160.009C128.04 157.948 129.737 155.184 129.737 152.178C129.713 149.197 128.04 146.433 124.985 144.397Z" fill="#7E7982"/>
</g>
<path fill-rule="evenodd" clip-rule="evenodd" d="M65.8867 208.307C65.8867 206.838 67.0779 205.647 68.5473 205.647H154.648C156.117 205.647 157.308 206.838 157.308 208.307V212.298C157.308 213.768 156.117 214.959 154.648 214.959H68.5473C67.0779 214.959 65.8867 213.768 65.8867 212.298V208.307Z" fill="#F1F3F8"/>
<path fill-rule="evenodd" clip-rule="evenodd" d="M77.1826 225.569C77.1826 224.1 78.3738 222.909 79.8432 222.909H143.352C144.821 222.909 146.012 224.1 146.012 225.569V229.56C146.012 231.03 144.821 232.221 143.352 232.221H79.8432C78.3738 232.221 77.1826 231.03 77.1826 229.56V225.569Z" fill="#F1F3F8"/>
<g clip-path="url(#clip2_648_14335)">
<circle cx="138.427" cy="169.941" r="9.93711" fill="white"/>
<path fill-rule="evenodd" clip-rule="evenodd" d="M138.427 179.878C143.915 179.878 148.364 175.429 148.364 169.941C148.364 164.453 143.915 160.004 138.427 160.004C132.939 160.004 128.49 164.453 128.49 169.941C128.49 175.429 132.939 179.878 138.427 179.878ZM142.952 167.464C143.23 167.16 143.209 166.689 142.906 166.411C142.602 166.133 142.131 166.153 141.853 166.457L136.937 171.82L135.002 169.709C134.724 169.405 134.252 169.385 133.949 169.663C133.645 169.941 133.625 170.413 133.903 170.716L136.387 173.426C136.529 173.58 136.728 173.668 136.937 173.668C137.146 173.668 137.345 173.58 137.486 173.426L142.952 167.464Z" fill="#34B53A"/>
<circle cx="137.999" cy="170" r="10.8333" fill="white"/>
<path fill-rule="evenodd" clip-rule="evenodd" d="M137.999 180.834C143.982 180.834 148.833 175.983 148.833 170C148.833 164.017 143.982 159.167 137.999 159.167C132.016 159.167 127.166 164.017 127.166 170C127.166 175.983 132.016 180.834 137.999 180.834ZM132.95 164.951C133.345 164.555 133.987 164.555 134.383 164.951L138 168.567L141.616 164.951C142.012 164.555 142.654 164.555 143.049 164.951C143.445 165.346 143.445 165.988 143.049 166.383L139.432 170L143.049 173.617C143.445 174.013 143.445 174.654 143.049 175.05C142.654 175.446 142.012 175.446 141.616 175.05L138 171.433L134.383 175.05C133.987 175.446 133.345 175.446 132.95 175.05C132.554 174.654 132.554 174.013 132.95 173.617L136.567 170L132.95 166.383C132.554 165.988 132.554 165.346 132.95 164.951Z" fill="#FF4C25"/>
</g>
</g>
<g filter="url(#filter6_d_648_14335)">
<rect x="165.258" y="38.7711" width="195.761" height="253.866" rx="18.4283" fill="white"/>
<circle cx="263.139" cy="125.594" r="56.6239" fill="#F1F2F5"/>
<g opacity="0.3">
<path d="M264.177 99.3334C257.19 99.3334 251.51 105.013 251.51 112C251.51 118.853 256.87 124.4 263.857 124.64C264.07 124.613 264.284 124.613 264.444 124.64C264.497 124.64 264.524 124.64 264.577 124.64C264.604 124.64 264.604 124.64 264.63 124.64C271.457 124.4 276.817 118.853 276.844 112C276.844 105.013 271.164 99.3334 264.177 99.3334Z" fill="#7E7982"/>
<path d="M277.726 131.73C270.286 126.77 258.153 126.77 250.66 131.73C247.273 133.997 245.406 137.064 245.406 140.344C245.406 143.624 247.273 146.664 250.633 148.904C254.366 151.41 259.273 152.664 264.18 152.664C269.086 152.664 273.993 151.41 277.726 148.904C281.086 146.637 282.953 143.597 282.953 140.29C282.926 137.01 281.086 133.97 277.726 131.73Z" fill="#7E7982"/>
</g>
<path fill-rule="evenodd" clip-rule="evenodd" d="M185.132 223.763C185.132 221.667 186.831 219.968 188.928 219.968H337.349C339.445 219.968 341.144 221.667 341.144 223.763V229.457C341.144 231.553 339.445 233.253 337.349 233.253H188.928C186.831 233.253 185.132 231.553 185.132 229.457V223.763Z" fill="#F1F3F8"/>
<path fill-rule="evenodd" clip-rule="evenodd" d="M214.04 252.948C214.04 250.852 215.739 249.152 217.835 249.152H308.44C310.537 249.152 312.236 250.852 312.236 252.948V258.642C312.236 260.738 310.537 262.437 308.44 262.437H217.835C215.739 262.437 214.04 260.738 214.04 258.642V252.948Z" fill="#F1F3F8"/>
<ellipse cx="301.397" cy="167.456" rx="18.218" ry="17.804" fill="white"/>
<path fill-rule="evenodd" clip-rule="evenodd" d="M301.397 185.26C311.458 185.26 319.615 177.289 319.615 167.456C319.615 157.624 311.458 149.652 301.397 149.652C291.335 149.652 283.179 157.624 283.179 167.456C283.179 177.289 291.335 185.26 301.397 185.26ZM309.691 163.018C310.201 162.474 310.164 161.63 309.607 161.131C309.051 160.633 308.187 160.67 307.677 161.213L298.664 170.822L295.117 167.04C294.607 166.496 293.743 166.46 293.186 166.958C292.63 167.456 292.593 168.301 293.102 168.845L297.657 173.7C297.916 173.976 298.281 174.133 298.664 174.133C299.047 174.133 299.413 173.976 299.671 173.7L309.691 163.018Z" fill="#34B53A"/>
</g>
</g>
<defs>
<filter id="filter0_d_648_14335" x="86.755" y="233.12" width="206.692" height="254.245" filterUnits="userSpaceOnUse" color-interpolation-filters="sRGB">
<feFlood flood-opacity="0" result="BackgroundImageFix"/>
<feColorMatrix in="SourceAlpha" type="matrix" values="0 0 0 0 0 0 0 0 0 0 0 0 0 0 0 0 0 0 127 0" result="hardAlpha"/>
<feOffset dy="19.8742"/>
<feGaussianBlur stdDeviation="19.8742"/>
<feColorMatrix type="matrix" values="0 0 0 0 0 0 0 0 0 0.145098 0 0 0 0 0.368627 0 0 0 0.1 0"/>
<feBlend mode="normal" in2="BackgroundImageFix" result="effect1_dropShadow_648_14335"/>
<feBlend mode="normal" in="SourceGraphic" in2="effect1_dropShadow_648_14335" result="shape"/>
</filter>
<filter id="filter1_d_648_14335" x="114.239" y="255.921" width="151.724" height="151.724" filterUnits="userSpaceOnUse" color-interpolation-filters="sRGB">
<feFlood flood-opacity="0" result="BackgroundImageFix"/>
<feColorMatrix in="SourceAlpha" type="matrix" values="0 0 0 0 0 0 0 0 0 0 0 0 0 0 0 0 0 0 127 0" result="hardAlpha"/>
<feOffset dy="17.931"/>
<feGaussianBlur stdDeviation="17.931"/>
<feColorMatrix type="matrix" values="0 0 0 0 0 0 0 0 0 0.145098 0 0 0 0 0.368627 0 0 0 0.1 0"/>
<feBlend mode="normal" in2="BackgroundImageFix" result="effect1_dropShadow_648_14335"/>
<feBlend mode="normal" in="SourceGraphic" in2="effect1_dropShadow_648_14335" result="shape"/>
</filter>
<filter id="filter2_d_648_14335" x="309.346" y="138.142" width="252.403" height="317.046" filterUnits="userSpaceOnUse" color-interpolation-filters="sRGB">
<feFlood flood-opacity="0" result="BackgroundImageFix"/>
<feColorMatrix in="SourceAlpha" type="matrix" values="0 0 0 0 0 0 0 0 0 0 0 0 0 0 0 0 0 0 127 0" result="hardAlpha"/>
<feOffset dy="19.8742"/>
<feGaussianBlur stdDeviation="19.8742"/>
<feColorMatrix type="matrix" values="0 0 0 0 0 0 0 0 0 0.145098 0 0 0 0 0.368627 0 0 0 0.1 0"/>
<feBlend mode="normal" in2="BackgroundImageFix" result="effect1_dropShadow_648_14335"/>
<feBlend mode="normal" in="SourceGraphic" in2="effect1_dropShadow_648_14335" result="shape"/>
</filter>
<filter id="filter3_d_648_14335" x="345.685" y="168.814" width="179.724" height="179.724" filterUnits="userSpaceOnUse" color-interpolation-filters="sRGB">
<feFlood flood-opacity="0" result="BackgroundImageFix"/>
<feColorMatrix in="SourceAlpha" type="matrix" values="0 0 0 0 0 0 0 0 0 0 0 0 0 0 0 0 0 0 127 0" result="hardAlpha"/>
<feOffset dy="17.931"/>
<feGaussianBlur stdDeviation="17.931"/>
<feColorMatrix type="matrix" values="0 0 0 0 0 0 0 0 0 0.145098 0 0 0 0 0.368627 0 0 0 0.1 0"/>
<feBlend mode="normal" in2="BackgroundImageFix" result="effect1_dropShadow_648_14335"/>
<feBlend mode="normal" in="SourceGraphic" in2="effect1_dropShadow_648_14335" result="shape"/>
</filter>
<filter id="filter4_d_648_14335" x="8.25157" y="58.4554" width="206.692" height="254.245" filterUnits="userSpaceOnUse" color-interpolation-filters="sRGB">
<feFlood flood-opacity="0" result="BackgroundImageFix"/>
<feColorMatrix in="SourceAlpha" type="matrix" values="0 0 0 0 0 0 0 0 0 0 0 0 0 0 0 0 0 0 127 0" result="hardAlpha"/>
<feOffset dy="19.8742"/>
<feGaussianBlur stdDeviation="19.8742"/>
<feColorMatrix type="matrix" values="0 0 0 0 0 0 0 0 0 0.145098 0 0 0 0 0.368627 0 0 0 0.1 0"/>
<feBlend mode="normal" in2="BackgroundImageFix" result="effect1_dropShadow_648_14335"/>
<feBlend mode="normal" in="SourceGraphic" in2="effect1_dropShadow_648_14335" result="shape"/>
</filter>
<filter id="filter5_d_648_14335" x="35.7356" y="81.256" width="151.724" height="151.724" filterUnits="userSpaceOnUse" color-interpolation-filters="sRGB">
<feFlood flood-opacity="0" result="BackgroundImageFix"/>
<feColorMatrix in="SourceAlpha" type="matrix" values="0 0 0 0 0 0 0 0 0 0 0 0 0 0 0 0 0 0 127 0" result="hardAlpha"/>
<feOffset dy="17.931"/>
<feGaussianBlur stdDeviation="17.931"/>
<feColorMatrix type="matrix" values="0 0 0 0 0 0 0 0 0 0.145098 0 0 0 0 0.368627 0 0 0 0.1 0"/>
<feBlend mode="normal" in2="BackgroundImageFix" result="effect1_dropShadow_648_14335"/>
<feBlend mode="normal" in="SourceGraphic" in2="effect1_dropShadow_648_14335" result="shape"/>
</filter>
<filter id="filter6_d_648_14335" x="125.509" y="18.8968" width="275.258" height="333.362" filterUnits="userSpaceOnUse" color-interpolation-filters="sRGB">
<feFlood flood-opacity="0" result="BackgroundImageFix"/>
<feColorMatrix in="SourceAlpha" type="matrix" values="0 0 0 0 0 0 0 0 0 0 0 0 0 0 0 0 0 0 127 0" result="hardAlpha"/>
<feOffset dy="19.8742"/>
<feGaussianBlur stdDeviation="19.8742"/>
<feColorMatrix type="matrix" values="0 0 0 0 0 0 0 0 0 0.145098 0 0 0 0 0.368627 0 0 0 0.1 0"/>
<feBlend mode="normal" in2="BackgroundImageFix" result="effect1_dropShadow_648_14335"/>
<feBlend mode="normal" in="SourceGraphic" in2="effect1_dropShadow_648_14335" result="shape"/>
</filter>
<clipPath id="clip0_648_14335">
<rect width="570" height="475" fill="white"/>
</clipPath>
<clipPath id="clip1_648_14335">
<rect width="23.8491" height="23.8491" fill="white" transform="translate(205.006 332.681)"/>
</clipPath>
<clipPath id="clip2_648_14335">
<rect width="23.8491" height="23.8491" fill="white" transform="translate(126.503 158.017)"/>
</clipPath>
</defs>
</svg>
