<svg width="570" height="475" viewBox="0 0 570 475" fill="none" xmlns="http://www.w3.org/2000/svg">
<g clip-path="url(#clip0_648_14252)">
<g filter="url(#filter0_d_648_14252)">
<circle cx="184" cy="88" r="32" fill="#F1F2F5"/>
<circle cx="184" cy="88" r="33.25" stroke="white" stroke-width="2.5"/>
</g>
<g opacity="0.3">
<path d="M184.856 68.6061C179.774 68.6061 175.644 72.737 175.644 77.8182C175.644 82.8024 179.542 86.8364 184.623 87.0109C184.778 86.9915 184.933 86.9915 185.05 87.0109C185.088 87.0109 185.108 87.0109 185.147 87.0109C185.166 87.0109 185.166 87.0109 185.185 87.0109C190.15 86.8364 194.048 82.8024 194.068 77.8182C194.068 72.737 189.937 68.6061 184.856 68.6061Z" fill="#7E7982"/>
<path d="M194.709 92.1676C189.299 88.5603 180.474 88.5603 175.025 92.1676C172.562 93.8161 171.204 96.0464 171.204 98.4319C171.204 100.817 172.562 103.028 175.005 104.657C177.72 106.48 181.289 107.392 184.857 107.392C188.426 107.392 191.994 106.48 194.709 104.657C197.153 103.009 198.511 100.798 198.511 98.3931C198.491 96.0076 197.153 93.7967 194.709 92.1676Z" fill="#7E7982"/>
</g>
<g filter="url(#filter1_d_648_14252)">
<circle cx="61" cy="88" r="32" fill="#F1F2F5"/>
<circle cx="61" cy="88" r="33.25" stroke="white" stroke-width="2.5"/>
</g>
<g opacity="0.3">
<path d="M61.8557 68.6061C56.7745 68.6061 52.6436 72.737 52.6436 77.8182C52.6436 82.8024 56.5417 86.8364 61.6229 87.0109C61.7781 86.9915 61.9333 86.9915 62.0496 87.0109C62.0884 87.0109 62.1078 87.0109 62.1466 87.0109C62.166 87.0109 62.166 87.0109 62.1854 87.0109C67.1502 86.8364 71.0484 82.8024 71.0678 77.8182C71.0678 72.737 66.9369 68.6061 61.8557 68.6061Z" fill="#7E7982"/>
<path d="M71.7095 92.1676C66.2986 88.5603 57.4744 88.5603 52.0247 92.1676C49.5617 93.8161 48.2041 96.0464 48.2041 98.4319C48.2041 100.817 49.5617 103.028 52.0053 104.657C54.7205 106.48 58.289 107.392 61.8574 107.392C65.4258 107.392 68.9943 106.48 71.7095 104.657C74.1531 103.009 75.5107 100.798 75.5107 98.3931C75.4913 96.0076 74.1531 93.7967 71.7095 92.1676Z" fill="#7E7982"/>
</g>
<g filter="url(#filter2_d_648_14252)">
<circle cx="61" cy="88" r="32" fill="#F1F2F5"/>
<circle cx="61" cy="88" r="33.25" stroke="white" stroke-width="2.5"/>
</g>
<g opacity="0.3">
<path d="M61.8557 68.6061C56.7745 68.6061 52.6436 72.737 52.6436 77.8182C52.6436 82.8024 56.5417 86.8364 61.6229 87.0109C61.7781 86.9915 61.9333 86.9915 62.0496 87.0109C62.0884 87.0109 62.1078 87.0109 62.1466 87.0109C62.166 87.0109 62.166 87.0109 62.1854 87.0109C67.1502 86.8364 71.0484 82.8024 71.0678 77.8182C71.0678 72.737 66.9369 68.6061 61.8557 68.6061Z" fill="#7E7982"/>
<path d="M71.7095 92.1676C66.2986 88.5603 57.4744 88.5603 52.0247 92.1676C49.5617 93.8161 48.2041 96.0464 48.2041 98.4319C48.2041 100.817 49.5617 103.028 52.0053 104.657C54.7205 106.48 58.289 107.392 61.8574 107.392C65.4258 107.392 68.9943 106.48 71.7095 104.657C74.1531 103.009 75.5107 100.798 75.5107 98.3931C75.4913 96.0076 74.1531 93.7967 71.7095 92.1676Z" fill="#7E7982"/>
</g>
<g filter="url(#filter3_d_648_14252)">
<circle cx="120" cy="88" r="44" fill="#F1F2F5"/>
<circle cx="120" cy="88" r="45.25" stroke="white" stroke-width="2.5"/>
</g>
<g opacity="0.3">
<path d="M121.177 61.3334C114.191 61.3334 108.511 67.0134 108.511 74C108.511 80.8534 113.871 86.4 120.857 86.64C121.071 86.6134 121.284 86.6134 121.444 86.64C121.497 86.64 121.524 86.64 121.577 86.64C121.604 86.64 121.604 86.64 121.631 86.64C128.457 86.4 133.817 80.8534 133.844 74C133.844 67.0134 128.164 61.3334 121.177 61.3334Z" fill="#7E7982"/>
<path d="M134.726 93.7305C127.286 88.7705 115.153 88.7705 107.66 93.7305C104.273 95.9972 102.406 99.0638 102.406 102.344C102.406 105.624 104.273 108.664 107.633 110.904C111.366 113.41 116.273 114.664 121.18 114.664C126.086 114.664 130.993 113.41 134.726 110.904C138.086 108.637 139.953 105.597 139.953 102.29C139.926 99.0105 138.086 95.9705 134.726 93.7305Z" fill="#7E7982"/>
</g>
<g filter="url(#filter4_d_648_14252)">
<rect x="61.8276" y="306" width="120" height="120" rx="60" fill="white"/>
<path opacity="0.1" d="M93.9186 392.405H149.521C151.679 392.405 153.435 390.649 153.435 388.491V350.894C153.435 350.077 152.777 349.418 151.96 349.418H91.4799C90.6632 349.418 90.0044 350.077 90.0044 350.894V388.491C90.0044 390.649 91.7606 392.405 93.9186 392.405Z" fill="#4339F2" stroke="#4339F2"/>
<path d="M151 350.704C151 351.355 151.524 351.879 152.175 351.879C152.826 351.879 153.351 351.355 153.351 350.704V343.509C153.351 341.517 151.729 339.895 149.737 339.895H94.1339C92.1416 339.895 90.5197 341.517 90.5197 343.509V350.704C90.5197 351.355 91.0442 351.879 91.6952 351.879C92.3462 351.879 92.8707 351.355 92.8707 350.704V343.509C92.8707 342.811 93.4355 342.246 94.1339 342.246H149.737C150.435 342.246 151 342.811 151 343.509V350.704Z" fill="#4339F2" stroke="#4339F2" stroke-width="0.4"/>
<path d="M94.1339 391.915H149.737C151.729 391.915 153.351 390.293 153.351 388.3V350.704C153.351 350.053 152.826 349.528 152.175 349.528H91.6952C91.0442 349.528 90.5197 350.053 90.5197 350.704V388.3C90.5197 390.293 92.1416 391.915 94.1339 391.915ZM92.8707 388.3V351.879H151V388.3C151 388.999 150.435 389.564 149.737 389.564H94.1339C93.4355 389.564 92.8707 388.999 92.8707 388.3Z" fill="#4339F2" stroke="#4339F2" stroke-width="0.4"/>
<path d="M121.72 370.461L123.346 375.633C123.346 375.633 123.346 375.633 123.346 375.633C123.498 376.124 123.954 376.456 124.467 376.456C124.981 376.456 125.437 376.124 125.589 375.637L128.336 366.899C128.533 366.281 128.184 365.62 127.568 365.425C126.949 365.228 126.289 365.577 126.094 366.193L126.093 366.194L124.467 371.37L122.842 366.194C122.842 366.194 122.842 366.194 122.841 366.194C122.689 365.703 122.233 365.371 121.72 365.371C121.206 365.371 120.75 365.703 120.598 366.194C120.598 366.194 120.598 366.194 120.598 366.194L118.972 371.37L117.346 366.194L117.346 366.194C117.15 365.572 116.489 365.229 115.872 365.425C115.25 365.621 114.907 366.281 115.103 366.899C115.103 366.899 115.103 366.899 115.103 366.899L117.851 375.638L117.851 375.639C118.007 376.127 118.457 376.461 118.972 376.461C119.486 376.461 119.942 376.128 120.094 375.637C120.094 375.637 120.094 375.637 120.094 375.637L121.72 370.461Z" fill="#4339F2" stroke="#4339F2" stroke-width="0.4"/>
<path d="M107.482 375.634L107.482 375.635C107.639 376.123 108.089 376.456 108.604 376.456C109.117 376.456 109.573 376.124 109.722 375.628L112.469 366.891C112.665 366.273 112.316 365.612 111.7 365.417C111.082 365.22 110.421 365.569 110.226 366.185L110.226 366.186L108.6 371.362L106.974 366.186L106.973 366.185C106.817 365.696 106.367 365.363 105.852 365.363C105.339 365.363 104.883 365.695 104.73 366.186C104.73 366.186 104.73 366.186 104.73 366.186L103.104 371.362L101.482 366.194L101.482 366.194C101.287 365.572 100.626 365.229 100.008 365.425C99.3867 365.621 99.0433 366.281 99.2393 366.899C99.2393 366.899 99.2394 366.899 99.2394 366.899L101.987 375.638L101.987 375.639C102.143 376.127 102.594 376.46 103.108 376.46C103.622 376.46 104.078 376.128 104.23 375.637C104.23 375.637 104.23 375.637 104.23 375.637L105.856 370.461L107.482 375.634Z" fill="#4339F2" stroke="#4339F2" stroke-width="0.4"/>
<path d="M137.587 370.457L139.213 375.633C139.213 375.633 139.213 375.633 139.213 375.633C139.366 376.124 139.822 376.456 140.335 376.456C140.846 376.456 141.3 376.123 141.456 375.63L141.457 375.63L144.204 366.891C144.401 366.273 144.052 365.612 143.436 365.417C142.817 365.22 142.157 365.569 141.961 366.185L141.961 366.186L140.335 371.362L138.709 366.19C138.709 366.19 138.709 366.19 138.709 366.19C138.557 365.699 138.101 365.367 137.587 365.367C137.074 365.367 136.618 365.699 136.466 366.19C136.466 366.19 136.466 366.19 136.466 366.19L134.84 371.366L133.214 366.19L133.214 366.189C133.018 365.568 132.357 365.225 131.739 365.421C131.118 365.617 130.775 366.277 130.971 366.895C130.971 366.895 130.971 366.895 130.971 366.895L133.718 375.633C133.718 375.633 133.718 375.633 133.718 375.633C133.87 376.124 134.326 376.456 134.84 376.456C135.353 376.456 135.809 376.124 135.962 375.633C135.962 375.633 135.962 375.633 135.962 375.633L137.587 370.457Z" fill="#4339F2" stroke="#4339F2" stroke-width="0.4"/>
<path d="M97.6735 345.887C97.6735 346.782 98.4012 347.51 99.2961 347.51C100.191 347.51 100.919 346.782 100.919 345.887C100.919 344.992 100.191 344.265 99.2961 344.265C98.4012 344.265 97.6735 344.992 97.6735 345.887Z" fill="#4339F2" stroke="#4339F2" stroke-width="0.4"/>
<path d="M103.282 345.887C103.282 346.782 104.01 347.51 104.905 347.51C105.8 347.51 106.528 346.782 106.528 345.887C106.528 344.992 105.8 344.265 104.905 344.265C104.01 344.265 103.282 344.992 103.282 345.887Z" fill="#4339F2" stroke="#4339F2" stroke-width="0.4"/>
<path d="M108.892 345.887C108.892 346.782 109.619 347.51 110.514 347.51C111.409 347.51 112.137 346.782 112.137 345.887C112.137 344.992 111.409 344.265 110.514 344.265C109.619 344.265 108.892 344.992 108.892 345.887Z" fill="#4339F2" stroke="#4339F2" stroke-width="0.4"/>
</g>
<g filter="url(#filter5_d_648_14252)">
<rect x="242.828" y="130" width="120" height="120" rx="60" fill="white"/>
<g clip-path="url(#clip1_648_14252)">
<path d="M329.076 188.251H306.91C305.944 188.251 305.16 187.467 305.16 186.501C305.16 185.535 305.944 184.751 306.91 184.751H329.076C330.042 184.751 330.826 185.535 330.826 186.501C330.826 187.467 330.042 188.251 329.076 188.251Z" fill="#FF4C25"/>
<path d="M320.326 197.001C319.878 197.001 319.43 196.83 319.089 196.487C318.406 195.803 318.406 194.695 319.089 194.012L326.603 186.499L319.089 178.985C318.406 178.302 318.406 177.194 319.089 176.51C319.773 175.826 320.882 175.826 321.565 176.51L330.315 185.26C330.998 185.943 330.998 187.052 330.315 187.735L321.565 196.485C321.222 196.83 320.774 197.001 320.326 197.001Z" fill="#FF4C25"/>
<path d="M293.494 218C292.994 218 292.521 217.93 292.047 217.783L278.005 213.105C276.095 212.437 274.828 210.657 274.828 208.667V166.668C274.828 164.095 276.921 162.002 279.494 162.002C279.993 162.002 280.467 162.072 280.941 162.219L294.982 166.897C296.893 167.564 298.16 169.345 298.16 171.335V213.333C298.16 215.907 296.068 218 293.494 218Z" fill="#FF4C25" fill-opacity="0.1"/>
<path d="M293.494 218C292.994 218 292.521 217.93 292.047 217.783L278.005 213.105C276.095 212.437 274.828 210.657 274.828 208.667V166.668C274.828 164.095 276.921 162.002 279.494 162.002C279.993 162.002 280.467 162.072 280.941 162.219L294.982 166.897C296.893 167.564 298.16 169.345 298.16 171.335V213.333C298.16 215.907 296.068 218 293.494 218ZM279.494 165.502C278.853 165.502 278.328 166.027 278.328 166.668V208.667C278.328 209.164 278.661 209.626 279.137 209.792L293.113 214.449C293.214 214.481 293.344 214.5 293.494 214.5C294.136 214.5 294.66 213.975 294.66 213.333V171.335C294.66 170.838 294.327 170.376 293.851 170.21L279.875 165.553C279.774 165.52 279.643 165.502 279.494 165.502Z" fill="#FF4C25"/>
<path d="M310.41 180.668C309.444 180.668 308.66 179.884 308.66 178.918V168.418C308.66 166.811 307.351 165.502 305.743 165.502H279.494C278.528 165.502 277.744 164.718 277.744 163.752C277.744 162.786 278.528 162.002 279.494 162.002H305.743C309.283 162.002 312.159 164.879 312.159 168.418V178.918C312.159 179.884 311.375 180.668 310.41 180.668Z" fill="#FF4C25"/>
<path d="M305.743 211H296.41C295.444 211 294.66 210.216 294.66 209.25C294.66 208.284 295.444 207.5 296.41 207.5H305.743C307.351 207.5 308.66 206.191 308.66 204.584V194.084C308.66 193.118 309.444 192.334 310.41 192.334C311.376 192.334 312.16 193.118 312.16 194.084V204.584C312.16 208.123 309.283 211 305.743 211Z" fill="#FF4C25"/>
</g>
</g>
<g filter="url(#filter6_d_648_14252)">
<rect x="423.828" y="306" width="120" height="120" rx="60" fill="white"/>
<path opacity="0.1" d="M456.026 391.81H511.629C513.511 391.81 515.043 390.277 515.043 388.396V350.799C515.043 350.258 514.608 349.823 514.068 349.823H453.588C453.047 349.823 452.612 350.258 452.612 350.799V388.396C452.612 390.277 454.145 391.81 456.026 391.81Z" fill="#34B53A"/>
<path fill-rule="evenodd" clip-rule="evenodd" d="M504.752 374.28L503.082 378.177C502.866 378.68 502.37 379.004 501.824 379C501.277 378.996 500.786 378.665 500.577 378.159L495.931 366.876C495.722 366.369 495.838 365.786 496.226 365.398C496.614 365.01 497.197 364.894 497.704 365.102L508.987 369.749C509.493 369.958 509.824 370.449 509.828 370.995C509.832 371.542 509.508 372.038 509.005 372.253L505.108 373.924C504.948 373.992 504.82 374.12 504.752 374.28V374.28Z" stroke="#34B53A" stroke-width="2.5" stroke-linecap="round" stroke-linejoin="round"/>
<path d="M492.189 370.333L491.067 371.455" stroke="#34B53A" stroke-width="2.5" stroke-linecap="round" stroke-linejoin="round"/>
<path d="M496.676 357.996V359.582" stroke="#34B53A" stroke-width="2.5" stroke-linecap="round" stroke-linejoin="round"/>
<path d="M491.067 360.239L492.189 361.361" stroke="#34B53A" stroke-width="2.5" stroke-linecap="round" stroke-linejoin="round"/>
<path d="M488.825 365.847H490.41" stroke="#34B53A" stroke-width="2.5" stroke-linecap="round" stroke-linejoin="round"/>
<path d="M502.283 360.239L501.162 361.361" stroke="#34B53A" stroke-width="2.5" stroke-linecap="round" stroke-linejoin="round"/>
<path d="M512.892 350.799C512.892 351.45 513.417 351.974 514.068 351.974C514.719 351.974 515.243 351.45 515.243 350.799V343.605C515.243 341.612 513.621 339.99 511.629 339.99H456.026C454.034 339.99 452.412 341.612 452.412 343.605V350.799C452.412 351.45 452.937 351.974 453.588 351.974C454.239 351.974 454.763 351.45 454.763 350.799V343.605C454.763 342.906 455.328 342.341 456.026 342.341H511.629C512.327 342.341 512.892 342.906 512.892 343.605V350.799Z" fill="#34B53A" stroke="#34B53A" stroke-width="0.4"/>
<path d="M456.026 392.01H511.629C513.621 392.01 515.243 390.388 515.243 388.396V350.799C515.243 350.148 514.719 349.623 514.068 349.623H453.588C452.937 349.623 452.412 350.148 452.412 350.799V388.396C452.412 390.388 454.034 392.01 456.026 392.01ZM454.763 388.396V351.974H512.892V388.396C512.892 389.094 512.327 389.659 511.629 389.659H456.026C455.328 389.659 454.763 389.094 454.763 388.396Z" fill="#34B53A" stroke="#34B53A" stroke-width="0.4"/>
<path d="M459.566 345.982C459.566 346.877 460.293 347.605 461.188 347.605C462.083 347.605 462.811 346.877 462.811 345.982C462.811 345.087 462.083 344.36 461.188 344.36C460.293 344.36 459.566 345.087 459.566 345.982Z" fill="#34B53A" stroke="#34B53A" stroke-width="0.4"/>
<path d="M465.175 345.982C465.175 346.877 465.903 347.605 466.798 347.605C467.692 347.605 468.42 346.877 468.42 345.982C468.42 345.087 467.692 344.36 466.798 344.36C465.903 344.36 465.175 345.087 465.175 345.982Z" fill="#34B53A" stroke="#34B53A" stroke-width="0.4"/>
<path d="M470.784 345.982C470.784 346.877 471.512 347.605 472.406 347.605C473.301 347.605 474.029 346.877 474.029 345.982C474.029 345.087 473.301 344.36 472.406 344.36C471.512 344.36 470.784 345.087 470.784 345.982Z" fill="#34B53A" stroke="#34B53A" stroke-width="0.4"/>
<rect x="461.078" y="357.25" width="22.5" height="5.5" rx="2.75" stroke="#34B53A" stroke-width="2.5"/>
<rect x="461.078" y="368.25" width="22.5" height="16.5" rx="2.75" stroke="#34B53A" stroke-width="2.5"/>
</g>
<path opacity="0.8" d="M120.767 288.061C121.353 288.646 122.303 288.646 122.888 288.061L132.434 278.515C133.02 277.929 133.02 276.979 132.434 276.393C131.848 275.808 130.899 275.808 130.313 276.393L121.828 284.879L113.342 276.393C112.757 275.808 111.807 275.808 111.221 276.393C110.635 276.979 110.635 277.929 111.221 278.515L120.767 288.061ZM120.328 150.917C120.328 151.745 120.999 152.417 121.828 152.417C122.656 152.417 123.328 151.745 123.328 150.917H120.328ZM123.328 158.583C123.328 157.755 122.656 157.083 121.828 157.083C120.999 157.083 120.328 157.755 120.328 158.583H123.328ZM120.328 162.417C120.328 163.245 120.999 163.917 121.828 163.917C122.656 163.917 123.328 163.245 123.328 162.417H120.328ZM123.328 170.083C123.328 169.255 122.656 168.583 121.828 168.583C120.999 168.583 120.328 169.255 120.328 170.083H123.328ZM120.328 173.917C120.328 174.745 120.999 175.417 121.828 175.417C122.656 175.417 123.328 174.745 123.328 173.917H120.328ZM123.328 181.583C123.328 180.755 122.656 180.083 121.828 180.083C120.999 180.083 120.328 180.755 120.328 181.583H123.328ZM120.328 185.417C120.328 186.245 120.999 186.917 121.828 186.917C122.656 186.917 123.328 186.245 123.328 185.417H120.328ZM123.328 193.083C123.328 192.255 122.656 191.583 121.828 191.583C120.999 191.583 120.328 192.255 120.328 193.083H123.328ZM120.328 196.917C120.328 197.745 120.999 198.417 121.828 198.417C122.656 198.417 123.328 197.745 123.328 196.917H120.328ZM123.328 204.583C123.328 203.755 122.656 203.083 121.828 203.083C120.999 203.083 120.328 203.755 120.328 204.583H123.328ZM120.328 208.417C120.328 209.245 120.999 209.917 121.828 209.917C122.656 209.917 123.328 209.245 123.328 208.417H120.328ZM123.328 216.083C123.328 215.255 122.656 214.583 121.828 214.583C120.999 214.583 120.328 215.255 120.328 216.083H123.328ZM120.328 219.917C120.328 220.745 120.999 221.417 121.828 221.417C122.656 221.417 123.328 220.745 123.328 219.917H120.328ZM123.328 227.583C123.328 226.755 122.656 226.083 121.828 226.083C120.999 226.083 120.328 226.755 120.328 227.583H123.328ZM120.328 231.417C120.328 232.245 120.999 232.917 121.828 232.917C122.656 232.917 123.328 232.245 123.328 231.417H120.328ZM123.328 239.083C123.328 238.255 122.656 237.583 121.828 237.583C120.999 237.583 120.328 238.255 120.328 239.083H123.328ZM120.328 242.917C120.328 243.745 120.999 244.417 121.828 244.417C122.656 244.417 123.328 243.745 123.328 242.917H120.328ZM123.328 250.583C123.328 249.755 122.656 249.083 121.828 249.083C120.999 249.083 120.328 249.755 120.328 250.583H123.328ZM120.328 254.417C120.328 255.245 120.999 255.917 121.828 255.917C122.656 255.917 123.328 255.245 123.328 254.417H120.328ZM123.328 262.083C123.328 261.255 122.656 260.583 121.828 260.583C120.999 260.583 120.328 261.255 120.328 262.083H123.328ZM120.328 265.917C120.328 266.745 120.999 267.417 121.828 267.417C122.656 267.417 123.328 266.745 123.328 265.917H120.328ZM123.328 273.583C123.328 272.755 122.656 272.083 121.828 272.083C120.999 272.083 120.328 272.755 120.328 273.583H123.328ZM120.328 277.417C120.328 278.245 120.999 278.917 121.828 278.917C122.656 278.917 123.328 278.245 123.328 277.417H120.328ZM123.328 285.083C123.328 284.255 122.656 283.583 121.828 283.583C120.999 283.583 120.328 284.255 120.328 285.083H123.328ZM120.328 149V150.917H123.328V149H120.328ZM120.328 158.583V162.417H123.328V158.583H120.328ZM120.328 170.083V173.917H123.328V170.083H120.328ZM120.328 181.583V185.417H123.328V181.583H120.328ZM120.328 193.083V196.917H123.328V193.083H120.328ZM120.328 204.583V208.417H123.328V204.583H120.328ZM120.328 216.083V219.917H123.328V216.083H120.328ZM120.328 227.583V231.417H123.328V227.583H120.328ZM120.328 239.083V242.917H123.328V239.083H120.328ZM120.328 250.583V254.417H123.328V250.583H120.328ZM120.328 262.083V265.917H123.328V262.083H120.328ZM120.328 273.583V277.417H123.328V273.583H120.328ZM120.328 285.083V287H123.328V285.083H120.328Z" fill="#673098"/>
<path opacity="0.8" d="M244.827 233.98C244.817 233.152 244.136 232.489 243.308 232.5L229.809 232.676C228.981 232.687 228.318 233.368 228.329 234.196C228.34 235.024 229.02 235.687 229.848 235.676L241.847 235.519L242.004 247.518C242.015 248.347 242.695 249.009 243.524 248.999C244.352 248.988 245.015 248.307 245.004 247.479L244.827 233.98ZM170.3 311.112C170.878 310.518 170.866 309.568 170.272 308.99C169.679 308.412 168.729 308.425 168.151 309.018L170.3 311.112ZM173.744 303.277C173.166 303.871 173.178 304.82 173.772 305.398C174.365 305.977 175.315 305.964 175.893 305.371L173.744 303.277ZM178.689 302.5C179.267 301.907 179.255 300.957 178.661 300.379C178.068 299.801 177.118 299.814 176.54 300.407L178.689 302.5ZM182.133 294.666C181.555 295.26 181.567 296.209 182.161 296.787C182.754 297.365 183.704 297.353 184.282 296.76L182.133 294.666ZM187.078 293.889C187.656 293.296 187.644 292.346 187.05 291.768C186.457 291.19 185.507 291.202 184.929 291.796L187.078 293.889ZM190.522 286.055C189.944 286.649 189.956 287.598 190.549 288.176C191.143 288.754 192.092 288.742 192.671 288.149L190.522 286.055ZM195.467 285.278C196.045 284.685 196.033 283.735 195.439 283.157C194.846 282.579 193.896 282.591 193.318 283.185L195.467 285.278ZM198.911 277.444C198.332 278.037 198.345 278.987 198.938 279.565C199.532 280.143 200.481 280.131 201.059 279.537L198.911 277.444ZM203.856 276.667C204.434 276.074 204.421 275.124 203.828 274.546C203.235 273.968 202.285 273.98 201.707 274.574L203.856 276.667ZM207.299 268.833C206.721 269.426 206.734 270.376 207.327 270.954C207.921 271.532 208.87 271.52 209.448 270.926L207.299 268.833ZM212.245 268.056C212.823 267.463 212.81 266.513 212.217 265.935C211.623 265.357 210.674 265.369 210.096 265.962L212.245 268.056ZM215.688 260.222C215.11 260.815 215.123 261.765 215.716 262.343C216.309 262.921 217.259 262.909 217.837 262.315L215.688 260.222ZM220.633 259.445C221.212 258.851 221.199 257.902 220.606 257.324C220.012 256.746 219.063 256.758 218.485 257.351L220.633 259.445ZM224.077 251.611C223.499 252.204 223.512 253.154 224.105 253.732C224.698 254.31 225.648 254.297 226.226 253.704L224.077 251.611ZM229.022 250.834C229.6 250.24 229.588 249.291 228.995 248.713C228.401 248.134 227.452 248.147 226.873 248.74L229.022 250.834ZM232.466 242.999C231.888 243.593 231.9 244.543 232.494 245.121C233.087 245.699 234.037 245.686 234.615 245.093L232.466 242.999ZM237.411 242.223C237.989 241.629 237.977 240.679 237.384 240.101C236.79 239.523 235.84 239.536 235.262 240.129L237.411 242.223ZM240.855 234.388C240.277 234.982 240.289 235.931 240.883 236.51C241.476 237.088 242.426 237.075 243.004 236.482L240.855 234.388ZM168.902 312.547L170.3 311.112L168.151 309.018L166.753 310.453L168.902 312.547ZM175.893 305.371L178.689 302.5L176.54 300.407L173.744 303.277L175.893 305.371ZM184.282 296.76L187.078 293.889L184.929 291.796L182.133 294.666L184.282 296.76ZM192.671 288.149L195.467 285.278L193.318 283.185L190.522 286.055L192.671 288.149ZM201.059 279.537L203.856 276.667L201.707 274.574L198.911 277.444L201.059 279.537ZM209.448 270.926L212.245 268.056L210.096 265.962L207.299 268.833L209.448 270.926ZM217.837 262.315L220.633 259.445L218.485 257.351L215.688 260.222L217.837 262.315ZM226.226 253.704L229.022 250.834L226.873 248.74L224.077 251.611L226.226 253.704ZM234.615 245.093L237.411 242.223L235.262 240.129L232.466 242.999L234.615 245.093ZM243.004 236.482L244.402 235.047L242.253 232.953L240.855 234.388L243.004 236.482Z" fill="#673098"/>
<path opacity="0.8" d="M434.842 315C435.67 314.992 436.336 314.314 436.328 313.486L436.198 299.986C436.19 299.158 435.512 298.493 434.684 298.501C433.855 298.509 433.19 299.187 433.198 300.015L433.313 312.014L421.314 312.129C420.485 312.137 419.82 312.815 419.828 313.644C419.836 314.472 420.514 315.137 421.343 315.129L434.842 315ZM434.415 310.994C433.824 310.414 432.874 310.423 432.294 311.014C431.714 311.606 431.723 312.555 432.314 313.136L434.415 310.994ZM426.462 307.395C427.054 307.975 428.003 307.966 428.584 307.375C429.164 306.783 429.155 305.833 428.563 305.253L426.462 307.395ZM425.637 302.383C425.046 301.803 424.096 301.812 423.516 302.403C422.936 302.995 422.945 303.944 423.536 304.524L425.637 302.383ZM417.685 298.784C418.276 299.364 419.226 299.355 419.806 298.763C420.386 298.172 420.377 297.222 419.785 296.642L417.685 298.784ZM416.86 293.772C416.268 293.192 415.318 293.201 414.738 293.792C414.158 294.384 414.167 295.333 414.759 295.913L416.86 293.772ZM408.907 290.173C409.498 290.753 410.448 290.744 411.028 290.152C411.608 289.561 411.599 288.611 411.008 288.031L408.907 290.173ZM408.082 285.161C407.49 284.581 406.541 284.59 405.961 285.181C405.38 285.772 405.39 286.722 405.981 287.302L408.082 285.161ZM400.129 281.562C400.72 282.142 401.67 282.133 402.25 281.541C402.83 280.95 402.821 280 402.23 279.42L400.129 281.562ZM399.304 276.55C398.713 275.969 397.763 275.979 397.183 276.57C396.603 277.161 396.612 278.111 397.203 278.691L399.304 276.55ZM391.351 272.95C391.943 273.531 392.892 273.521 393.472 272.93C394.053 272.339 394.044 271.389 393.452 270.809L391.351 272.95ZM390.526 267.939C389.935 267.358 388.985 267.367 388.405 267.959C387.825 268.55 387.834 269.5 388.425 270.08L390.526 267.939ZM382.573 264.339C383.165 264.919 384.115 264.91 384.695 264.319C385.275 263.728 385.266 262.778 384.674 262.198L382.573 264.339ZM381.748 259.327C381.157 258.747 380.207 258.756 379.627 259.348C379.047 259.939 379.056 260.889 379.648 261.469L381.748 259.327ZM373.796 255.728C374.387 256.308 375.337 256.299 375.917 255.708C376.497 255.117 376.488 254.167 375.897 253.587L373.796 255.728ZM372.971 250.716C372.379 250.136 371.43 250.145 370.849 250.737C370.269 251.328 370.278 252.278 370.87 252.858L372.971 250.716ZM365.018 247.117C365.609 247.697 366.559 247.688 367.139 247.097C367.719 246.505 367.71 245.556 367.119 244.976L365.018 247.117ZM364.193 242.105C363.602 241.525 362.652 241.534 362.072 242.126C361.492 242.717 361.501 243.667 362.092 244.247L364.193 242.105ZM356.24 238.506C356.832 239.086 357.781 239.077 358.361 238.486C358.942 237.894 358.932 236.945 358.341 236.364L356.24 238.506ZM435.878 312.429L434.415 310.994L432.314 313.136L433.777 314.571L435.878 312.429ZM428.563 305.253L425.637 302.383L423.536 304.524L426.462 307.395L428.563 305.253ZM419.785 296.642L416.86 293.772L414.759 295.913L417.685 298.784L419.785 296.642ZM411.008 288.031L408.082 285.161L405.981 287.302L408.907 290.173L411.008 288.031ZM402.23 279.42L399.304 276.55L397.203 278.691L400.129 281.562L402.23 279.42ZM393.452 270.809L390.526 267.939L388.425 270.08L391.351 272.95L393.452 270.809ZM384.674 262.198L381.748 259.327L379.648 261.469L382.573 264.339L384.674 262.198ZM375.897 253.587L372.971 250.716L370.87 252.858L373.796 255.728L375.897 253.587ZM367.119 244.976L364.193 242.105L362.092 244.247L365.018 247.117L367.119 244.976ZM358.341 236.364L356.878 234.929L354.777 237.071L356.24 238.506L358.341 236.364Z" fill="#673098"/>
<path opacity="0.8" d="M192.762 364.944C192.179 365.533 192.183 366.482 192.772 367.065L202.361 376.568C202.95 377.151 203.899 377.147 204.483 376.558C205.066 375.97 205.061 375.02 204.473 374.437L195.949 365.99L204.395 357.466C204.978 356.878 204.974 355.928 204.386 355.345C203.797 354.762 202.848 354.766 202.264 355.355L192.762 364.944ZM195.862 367.491C196.691 367.487 197.359 366.812 197.355 365.984C197.352 365.155 196.677 364.487 195.849 364.491L195.862 367.491ZM203.96 364.454C203.131 364.458 202.463 365.132 202.467 365.961C202.47 366.789 203.145 367.457 203.973 367.454L203.96 364.454ZM208.029 367.435C208.857 367.431 209.526 366.757 209.522 365.928C209.518 365.1 208.844 364.431 208.015 364.435L208.029 367.435ZM216.126 364.398C215.298 364.402 214.629 365.077 214.633 365.905C214.637 366.733 215.312 367.402 216.14 367.398L216.126 364.398ZM220.196 367.38C221.024 367.376 221.693 366.701 221.689 365.873C221.685 365.044 221.01 364.376 220.182 364.38L220.196 367.38ZM228.293 364.343C227.465 364.346 226.796 365.021 226.8 365.849C226.804 366.678 227.478 367.346 228.307 367.343L228.293 364.343ZM232.362 367.324C233.191 367.32 233.859 366.646 233.855 365.817C233.852 364.989 233.177 364.32 232.349 364.324L232.362 367.324ZM240.46 364.287C239.631 364.291 238.963 364.965 238.967 365.794C238.97 366.622 239.645 367.291 240.473 367.287L240.46 364.287ZM244.529 367.269C245.357 367.265 246.026 366.59 246.022 365.762C246.018 364.933 245.344 364.265 244.515 364.269L244.529 367.269ZM252.626 364.231C251.798 364.235 251.129 364.91 251.133 365.738C251.137 366.567 251.812 367.235 252.64 367.231L252.626 364.231ZM256.696 367.213C257.524 367.209 258.193 366.535 258.189 365.706C258.185 364.878 257.51 364.209 256.682 364.213L256.696 367.213ZM264.793 364.176C263.965 364.18 263.296 364.854 263.3 365.683C263.304 366.511 263.978 367.18 264.807 367.176L264.793 364.176ZM268.862 367.157C269.691 367.154 270.359 366.479 270.355 365.651C270.352 364.822 269.677 364.154 268.849 364.157L268.862 367.157ZM276.96 364.12C276.131 364.124 275.463 364.799 275.467 365.627C275.47 366.456 276.145 367.124 276.973 367.12L276.96 364.12ZM281.029 367.102C281.857 367.098 282.526 366.423 282.522 365.595C282.518 364.767 281.844 364.098 281.015 364.102L281.029 367.102ZM289.126 364.065C288.298 364.069 287.629 364.743 287.633 365.572C287.637 366.4 288.312 367.069 289.14 367.065L289.126 364.065ZM293.196 367.046C294.024 367.042 294.692 366.368 294.689 365.539C294.685 364.711 294.01 364.043 293.182 364.046L293.196 367.046ZM301.293 364.009C300.465 364.013 299.796 364.688 299.8 365.516C299.804 366.345 300.478 367.013 301.307 367.009L301.293 364.009ZM305.362 366.991C306.191 366.987 306.859 366.312 306.855 365.484C306.852 364.655 306.177 363.987 305.349 363.991L305.362 366.991ZM313.46 363.954C312.631 363.958 311.963 364.632 311.967 365.461C311.97 366.289 312.645 366.957 313.473 366.954L313.46 363.954ZM317.529 366.935C318.357 366.931 319.026 366.257 319.022 365.428C319.018 364.6 318.344 363.931 317.515 363.935L317.529 366.935ZM325.626 363.898C324.798 363.902 324.129 364.577 324.133 365.405C324.137 366.233 324.812 366.902 325.64 366.898L325.626 363.898ZM329.696 366.88C330.524 366.876 331.193 366.201 331.189 365.373C331.185 364.544 330.51 363.876 329.682 363.88L329.696 366.88ZM337.793 363.843C336.965 363.846 336.296 364.521 336.3 365.349C336.304 366.178 336.978 366.846 337.807 366.843L337.793 363.843ZM341.862 366.824C342.691 366.82 343.359 366.146 343.355 365.317C343.352 364.489 342.677 363.82 341.849 363.824L341.862 366.824ZM349.96 363.787C349.131 363.791 348.463 364.465 348.467 365.294C348.47 366.122 349.145 366.791 349.973 366.787L349.96 363.787ZM354.029 366.769C354.857 366.765 355.526 366.09 355.522 365.262C355.518 364.433 354.844 363.765 354.015 363.769L354.029 366.769ZM362.126 363.731C361.298 363.735 360.629 364.41 360.633 365.238C360.637 366.067 361.312 366.735 362.14 366.731L362.126 363.731ZM366.196 366.713C367.024 366.709 367.693 366.035 367.689 365.206C367.685 364.378 367.01 363.709 366.182 363.713L366.196 366.713ZM374.293 363.676C373.465 363.68 372.796 364.354 372.8 365.183C372.804 366.011 373.478 366.68 374.307 366.676L374.293 363.676ZM378.362 366.657C379.191 366.654 379.859 365.979 379.855 365.151C379.852 364.322 379.177 363.654 378.349 363.657L378.362 366.657ZM386.46 363.62C385.631 363.624 384.963 364.299 384.967 365.127C384.97 365.956 385.645 366.624 386.473 366.62L386.46 363.62ZM390.529 366.602C391.357 366.598 392.026 365.923 392.022 365.095C392.018 364.267 391.344 363.598 390.515 363.602L390.529 366.602ZM398.626 363.565C397.798 363.569 397.129 364.243 397.133 365.072C397.137 365.9 397.812 366.569 398.64 366.565L398.626 363.565ZM402.696 366.546C403.524 366.542 404.192 365.868 404.189 365.039C404.185 364.211 403.51 363.543 402.682 363.546L402.696 366.546ZM410.793 363.509C409.965 363.513 409.296 364.188 409.3 365.016C409.304 365.845 409.978 366.513 410.807 366.509L410.793 363.509ZM193.834 367.5L195.862 367.491L195.849 364.491L193.821 364.5L193.834 367.5ZM203.973 367.454L208.029 367.435L208.015 364.435L203.96 364.454L203.973 367.454ZM216.14 367.398L220.196 367.38L220.182 364.38L216.126 364.398L216.14 367.398ZM228.307 367.343L232.362 367.324L232.349 364.324L228.293 364.343L228.307 367.343ZM240.473 367.287L244.529 367.269L244.515 364.269L240.46 364.287L240.473 367.287ZM252.64 367.231L256.696 367.213L256.682 364.213L252.626 364.231L252.64 367.231ZM264.807 367.176L268.862 367.157L268.849 364.157L264.793 364.176L264.807 367.176ZM276.973 367.12L281.029 367.102L281.015 364.102L276.96 364.12L276.973 367.12ZM289.14 367.065L293.196 367.046L293.182 364.046L289.126 364.065L289.14 367.065ZM301.307 367.009L305.362 366.991L305.349 363.991L301.293 364.009L301.307 367.009ZM313.473 366.954L317.529 366.935L317.515 363.935L313.46 363.954L313.473 366.954ZM325.64 366.898L329.696 366.88L329.682 363.88L325.626 363.898L325.64 366.898ZM337.807 366.843L341.862 366.824L341.849 363.824L337.793 363.843L337.807 366.843ZM349.973 366.787L354.029 366.769L354.015 363.769L349.96 363.787L349.973 366.787ZM362.14 366.731L366.196 366.713L366.182 363.713L362.126 363.731L362.14 366.731ZM374.307 366.676L378.362 366.657L378.349 363.657L374.293 363.676L374.307 366.676ZM386.473 366.62L390.529 366.602L390.515 363.602L386.46 363.62L386.473 366.62ZM398.64 366.565L402.696 366.546L402.682 363.546L398.626 363.565L398.64 366.565ZM410.807 366.509L412.834 366.5L412.821 363.5L410.793 363.509L410.807 366.509Z" fill="#673098"/>
</g>
<defs>
<filter id="filter0_d_648_14252" x="113.638" y="35.569" width="140.724" height="140.724" filterUnits="userSpaceOnUse" color-interpolation-filters="sRGB">
<feFlood flood-opacity="0" result="BackgroundImageFix"/>
<feColorMatrix in="SourceAlpha" type="matrix" values="0 0 0 0 0 0 0 0 0 0 0 0 0 0 0 0 0 0 127 0" result="hardAlpha"/>
<feOffset dy="17.931"/>
<feGaussianBlur stdDeviation="17.931"/>
<feColorMatrix type="matrix" values="0 0 0 0 0 0 0 0 0 0.145098 0 0 0 0 0.368627 0 0 0 0.1 0"/>
<feBlend mode="normal" in2="BackgroundImageFix" result="effect1_dropShadow_648_14252"/>
<feBlend mode="normal" in="SourceGraphic" in2="effect1_dropShadow_648_14252" result="shape"/>
</filter>
<filter id="filter1_d_648_14252" x="-9.36207" y="35.569" width="140.724" height="140.724" filterUnits="userSpaceOnUse" color-interpolation-filters="sRGB">
<feFlood flood-opacity="0" result="BackgroundImageFix"/>
<feColorMatrix in="SourceAlpha" type="matrix" values="0 0 0 0 0 0 0 0 0 0 0 0 0 0 0 0 0 0 127 0" result="hardAlpha"/>
<feOffset dy="17.931"/>
<feGaussianBlur stdDeviation="17.931"/>
<feColorMatrix type="matrix" values="0 0 0 0 0 0 0 0 0 0.145098 0 0 0 0 0.368627 0 0 0 0.1 0"/>
<feBlend mode="normal" in2="BackgroundImageFix" result="effect1_dropShadow_648_14252"/>
<feBlend mode="normal" in="SourceGraphic" in2="effect1_dropShadow_648_14252" result="shape"/>
</filter>
<filter id="filter2_d_648_14252" x="-9.36207" y="35.569" width="140.724" height="140.724" filterUnits="userSpaceOnUse" color-interpolation-filters="sRGB">
<feFlood flood-opacity="0" result="BackgroundImageFix"/>
<feColorMatrix in="SourceAlpha" type="matrix" values="0 0 0 0 0 0 0 0 0 0 0 0 0 0 0 0 0 0 127 0" result="hardAlpha"/>
<feOffset dy="17.931"/>
<feGaussianBlur stdDeviation="17.931"/>
<feColorMatrix type="matrix" values="0 0 0 0 0 0 0 0 0 0.145098 0 0 0 0 0.368627 0 0 0 0.1 0"/>
<feBlend mode="normal" in2="BackgroundImageFix" result="effect1_dropShadow_648_14252"/>
<feBlend mode="normal" in="SourceGraphic" in2="effect1_dropShadow_648_14252" result="shape"/>
</filter>
<filter id="filter3_d_648_14252" x="37.6379" y="23.569" width="164.724" height="164.724" filterUnits="userSpaceOnUse" color-interpolation-filters="sRGB">
<feFlood flood-opacity="0" result="BackgroundImageFix"/>
<feColorMatrix in="SourceAlpha" type="matrix" values="0 0 0 0 0 0 0 0 0 0 0 0 0 0 0 0 0 0 127 0" result="hardAlpha"/>
<feOffset dy="17.931"/>
<feGaussianBlur stdDeviation="17.931"/>
<feColorMatrix type="matrix" values="0 0 0 0 0 0 0 0 0 0.145098 0 0 0 0 0.368627 0 0 0 0.1 0"/>
<feBlend mode="normal" in2="BackgroundImageFix" result="effect1_dropShadow_648_14252"/>
<feBlend mode="normal" in="SourceGraphic" in2="effect1_dropShadow_648_14252" result="shape"/>
</filter>
<filter id="filter4_d_648_14252" x="43.2822" y="296.727" width="157.091" height="157.091" filterUnits="userSpaceOnUse" color-interpolation-filters="sRGB">
<feFlood flood-opacity="0" result="BackgroundImageFix"/>
<feColorMatrix in="SourceAlpha" type="matrix" values="0 0 0 0 0 0 0 0 0 0 0 0 0 0 0 0 0 0 127 0" result="hardAlpha"/>
<feOffset dy="9.27273"/>
<feGaussianBlur stdDeviation="9.27273"/>
<feColorMatrix type="matrix" values="0 0 0 0 0 0 0 0 0 0.145098 0 0 0 0 0.368627 0 0 0 0.1 0"/>
<feBlend mode="normal" in2="BackgroundImageFix" result="effect1_dropShadow_648_14252"/>
<feBlend mode="normal" in="SourceGraphic" in2="effect1_dropShadow_648_14252" result="shape"/>
</filter>
<filter id="filter5_d_648_14252" x="224.282" y="120.727" width="157.091" height="157.091" filterUnits="userSpaceOnUse" color-interpolation-filters="sRGB">
<feFlood flood-opacity="0" result="BackgroundImageFix"/>
<feColorMatrix in="SourceAlpha" type="matrix" values="0 0 0 0 0 0 0 0 0 0 0 0 0 0 0 0 0 0 127 0" result="hardAlpha"/>
<feOffset dy="9.27273"/>
<feGaussianBlur stdDeviation="9.27273"/>
<feColorMatrix type="matrix" values="0 0 0 0 0 0 0 0 0 0.145098 0 0 0 0 0.368627 0 0 0 0.1 0"/>
<feBlend mode="normal" in2="BackgroundImageFix" result="effect1_dropShadow_648_14252"/>
<feBlend mode="normal" in="SourceGraphic" in2="effect1_dropShadow_648_14252" result="shape"/>
</filter>
<filter id="filter6_d_648_14252" x="405.282" y="296.727" width="157.091" height="157.091" filterUnits="userSpaceOnUse" color-interpolation-filters="sRGB">
<feFlood flood-opacity="0" result="BackgroundImageFix"/>
<feColorMatrix in="SourceAlpha" type="matrix" values="0 0 0 0 0 0 0 0 0 0 0 0 0 0 0 0 0 0 127 0" result="hardAlpha"/>
<feOffset dy="9.27273"/>
<feGaussianBlur stdDeviation="9.27273"/>
<feColorMatrix type="matrix" values="0 0 0 0 0 0 0 0 0 0.145098 0 0 0 0 0.368627 0 0 0 0.1 0"/>
<feBlend mode="normal" in2="BackgroundImageFix" result="effect1_dropShadow_648_14252"/>
<feBlend mode="normal" in="SourceGraphic" in2="effect1_dropShadow_648_14252" result="shape"/>
</filter>
<clipPath id="clip0_648_14252">
<rect width="570" height="475" fill="white"/>
</clipPath>
<clipPath id="clip1_648_14252">
<rect width="56" height="56" fill="white" transform="translate(274.828 162)"/>
</clipPath>
</defs>
</svg>
