<svg width="570" height="475" viewBox="0 0 570 475" fill="none" xmlns="http://www.w3.org/2000/svg">
<g clip-path="url(#clip0_648_14167)">
<g filter="url(#filter0_d_648_14167)">
<rect x="39.4716" y="50.4716" width="471.761" height="313.902" rx="17.8312" fill="#F6F7FB" stroke="white" stroke-width="3.05677"/>
<rect x="107.224" y="90.1226" width="91.2643" height="48.0417" rx="5.86501" fill="white"/>
<path opacity="0.1" d="M117.304 104.488C116.82 104.488 116.418 104.328 116.103 104.009C115.789 103.689 115.633 103.297 115.633 102.831C115.633 102.366 115.789 101.973 116.103 101.654C116.418 101.334 116.82 101.175 117.304 101.175C117.888 101.175 118.408 101.476 118.682 101.951L118.312 102.165C118.13 101.814 117.742 101.585 117.304 101.585C116.934 101.585 116.633 101.704 116.4 101.941C116.167 102.179 116.053 102.475 116.053 102.831C116.053 103.183 116.167 103.479 116.4 103.716C116.633 103.954 116.934 104.072 117.304 104.072C117.742 104.072 118.13 103.844 118.312 103.497L118.682 103.707C118.549 103.945 118.358 104.136 118.111 104.278C117.865 104.419 117.596 104.488 117.304 104.488ZM119.532 104.428H119.135V101.097H119.532V104.428ZM120.338 101.864C120.187 101.864 120.069 101.745 120.069 101.599C120.069 101.453 120.187 101.33 120.338 101.33C120.484 101.33 120.603 101.453 120.603 101.599C120.603 101.745 120.484 101.864 120.338 101.864ZM120.534 104.428H120.137V102.147H120.534V104.428ZM122.212 104.488C121.87 104.488 121.583 104.374 121.354 104.145C121.126 103.913 121.012 103.63 121.012 103.288C121.012 102.945 121.126 102.662 121.354 102.434C121.583 102.201 121.87 102.087 122.212 102.087C122.664 102.087 123.043 102.32 123.221 102.685L122.888 102.877C122.774 102.635 122.518 102.475 122.212 102.475C121.984 102.475 121.792 102.553 121.637 102.708C121.487 102.863 121.409 103.055 121.409 103.288C121.409 103.516 121.487 103.707 121.637 103.863C121.792 104.018 121.984 104.095 122.212 104.095C122.518 104.095 122.774 103.94 122.901 103.698L123.239 103.894C123.043 104.255 122.655 104.488 122.212 104.488ZM124.439 103.251L125.566 104.428H125.073L124.032 103.347V104.428H123.635V101.234H124.032V103.155L125.018 102.147H125.529L124.439 103.251Z" fill="#5D6276"/>
<path opacity="0.1" d="M117.175 110.877H117.621C118.16 110.877 118.606 111.041 118.958 111.362C119.318 111.683 119.498 112.128 119.498 112.707C119.498 113.278 119.302 113.732 118.919 114.053C118.536 114.374 118.059 114.538 117.503 114.538C116.596 114.538 115.868 114.147 115.548 113.364L116.627 112.739C116.76 113.122 117.057 113.318 117.503 113.318C118.497 113.38 118.473 112.035 117.542 112.097H115.829L116.056 108.952H119.224V110.126H117.229L117.175 110.877ZM121.399 110.877H121.845C122.385 110.877 122.831 111.041 123.183 111.362C123.543 111.683 123.723 112.128 123.723 112.707C123.723 113.278 123.527 113.732 123.144 114.053C122.76 114.374 122.283 114.538 121.728 114.538C120.82 114.538 120.093 114.147 119.772 113.364L120.852 112.739C120.985 113.122 121.282 113.318 121.728 113.318C122.721 113.38 122.698 112.035 121.767 112.097H120.054L120.281 108.952H123.449V110.126H121.454L121.399 110.877ZM127.978 113.763C127.586 114.28 127.039 114.538 126.343 114.538C125.646 114.538 125.099 114.28 124.7 113.763C124.309 113.239 124.113 112.551 124.113 111.69C124.113 110.83 124.309 110.142 124.7 109.625C125.099 109.101 125.646 108.843 126.343 108.843C127.039 108.843 127.586 109.101 127.978 109.625C128.376 110.142 128.572 110.83 128.572 111.69C128.572 112.551 128.376 113.239 127.978 113.763ZM125.365 111.69C125.365 112.778 125.693 113.318 126.343 113.318C126.992 113.318 127.32 112.778 127.32 111.69C127.32 110.603 126.992 110.063 126.343 110.063C125.693 110.063 125.365 110.603 125.365 111.69ZM131.778 111.62L133.703 114.428H132.279L130.527 111.894V114.428H129.275V108.952H130.527V111.331L132.201 108.952H133.625L131.778 111.62Z" fill="#5D6276"/>
<path opacity="0.2" d="M115.047 128.859H131.344" stroke="#5D6276" stroke-width="2.60755" stroke-miterlimit="10" stroke-linecap="round"/>
<circle opacity="0.15" cx="182.843" cy="107.251" r="7.82265" fill="#5D6276"/>
<rect x="206.311" y="90.1226" width="91.2643" height="48.0417" rx="5.86501" fill="white"/>
<path opacity="0.1" d="M214.607 103.356V101.234H215.032V103.338C215.032 103.789 215.31 104.072 215.807 104.072C216.305 104.072 216.583 103.789 216.583 103.338V101.234H217.003V103.356C217.003 103.698 216.893 103.977 216.67 104.182C216.446 104.387 216.159 104.488 215.807 104.488C215.456 104.488 215.164 104.387 214.94 104.182C214.717 103.977 214.607 103.698 214.607 103.356ZM219.637 103.616V101.234H220.061V104.428H219.719L218.076 102.042V104.428H217.652V101.234H217.994L219.637 103.616ZM220.744 104.428V101.234H221.169V104.428H220.744ZM224.994 102.831C224.994 103.269 224.843 103.648 224.542 103.967L224.893 104.319L224.601 104.583L224.241 104.218C223.962 104.396 223.661 104.488 223.337 104.488C222.881 104.488 222.493 104.328 222.169 104.004C221.845 103.68 221.685 103.292 221.685 102.831C221.685 102.37 221.845 101.982 222.169 101.658C222.493 101.334 222.881 101.175 223.337 101.175C223.793 101.175 224.181 101.334 224.505 101.658C224.829 101.982 224.994 102.37 224.994 102.831ZM223.337 104.072C223.556 104.072 223.757 104.022 223.939 103.917L223.301 103.274L223.593 103.014L224.25 103.671C224.464 103.438 224.569 103.16 224.569 102.831C224.569 102.48 224.451 102.188 224.209 101.946C223.971 101.704 223.679 101.585 223.337 101.585C222.995 101.585 222.703 101.704 222.461 101.946C222.224 102.188 222.105 102.48 222.105 102.831C222.105 103.178 222.224 103.47 222.461 103.712C222.703 103.954 222.995 104.072 223.337 104.072ZM225.485 103.356V101.234H225.909V103.338C225.909 103.789 226.188 104.072 226.685 104.072C227.182 104.072 227.461 103.789 227.461 103.338V101.234H227.881V103.356C227.881 103.698 227.771 103.977 227.548 104.182C227.324 104.387 227.036 104.488 226.685 104.488C226.334 104.488 226.042 104.387 225.818 104.182C225.594 103.977 225.485 103.698 225.485 103.356ZM228.954 103.014V104.027H230.437V104.428H228.53V101.234H230.414V101.636H228.954V102.617H230.3V103.014H228.954ZM233.591 104.488C233.108 104.488 232.706 104.328 232.391 104.009C232.076 103.689 231.921 103.297 231.921 102.831C231.921 102.366 232.076 101.973 232.391 101.654C232.706 101.334 233.108 101.175 233.591 101.175C234.175 101.175 234.696 101.476 234.969 101.951L234.6 102.165C234.417 101.814 234.029 101.585 233.591 101.585C233.222 101.585 232.921 101.704 232.688 101.941C232.455 102.179 232.341 102.475 232.341 102.831C232.341 103.183 232.455 103.479 232.688 103.716C232.921 103.954 233.222 104.072 233.591 104.072C234.029 104.072 234.417 103.844 234.6 103.497L234.969 103.707C234.837 103.945 234.645 104.136 234.399 104.278C234.153 104.419 233.883 104.488 233.591 104.488ZM235.874 101.234V104.027H237.253V104.428H235.45V101.234H235.874ZM237.678 104.428V101.234H238.103V104.428H237.678ZM240.289 104.488C239.805 104.488 239.404 104.328 239.089 104.009C238.774 103.689 238.619 103.297 238.619 102.831C238.619 102.366 238.774 101.973 239.089 101.654C239.404 101.334 239.805 101.175 240.289 101.175C240.873 101.175 241.393 101.476 241.667 101.951L241.298 102.165C241.115 101.814 240.727 101.585 240.289 101.585C239.92 101.585 239.618 101.704 239.386 101.941C239.153 102.179 239.039 102.475 239.039 102.831C239.039 103.183 239.153 103.479 239.386 103.716C239.618 103.954 239.92 104.072 240.289 104.072C240.727 104.072 241.115 103.844 241.298 103.497L241.667 103.707C241.535 103.945 241.343 104.136 241.097 104.278C240.85 104.419 240.581 104.488 240.289 104.488ZM243.015 102.786L244.471 104.428H243.95L242.572 102.895V104.428H242.148V101.234H242.572V102.676L243.905 101.234H244.425L243.015 102.786ZM245.697 104.488C245.099 104.488 244.657 104.191 244.488 103.703L244.853 103.493C244.976 103.881 245.263 104.072 245.706 104.072C246.144 104.072 246.381 103.876 246.381 103.58C246.381 103.429 246.322 103.315 246.208 103.237C246.094 103.16 245.898 103.082 245.629 102.995L245.323 102.895C245.254 102.868 245.163 102.827 245.058 102.776C244.953 102.722 244.876 102.667 244.825 102.612C244.72 102.498 244.625 102.311 244.625 102.078C244.625 101.8 244.72 101.581 244.917 101.421C245.113 101.257 245.35 101.175 245.629 101.175C246.135 101.175 246.523 101.453 246.71 101.873L246.354 102.078C246.217 101.75 245.975 101.585 245.629 101.585C245.282 101.585 245.049 101.768 245.049 102.06C245.049 102.201 245.099 102.306 245.2 102.379C245.3 102.452 245.473 102.53 245.72 102.608L245.907 102.667C245.943 102.681 245.998 102.699 246.076 102.731C246.235 102.79 246.272 102.813 246.395 102.881C246.523 102.95 246.564 103 246.642 103.091C246.756 103.205 246.801 103.37 246.801 103.57C246.801 103.849 246.701 104.072 246.496 104.241C246.29 104.406 246.026 104.488 245.697 104.488Z" fill="#5D6276"/>
<path opacity="0.1" d="M218.42 114.428H214.696V113.521L216.534 111.612C216.902 111.229 217.09 110.908 217.09 110.642C217.09 110.298 216.871 110.063 216.503 110.063C216.135 110.063 215.869 110.259 215.697 110.658L214.641 110.04C214.978 109.258 215.697 108.843 216.487 108.843C216.996 108.843 217.434 108.999 217.794 109.32C218.161 109.633 218.341 110.055 218.341 110.587C218.341 111.166 218.06 111.737 217.489 112.308L216.581 113.224H218.42V114.428ZM222.467 109.969L221.521 111.174C222.217 111.417 222.686 111.98 222.686 112.707C222.686 113.278 222.491 113.732 222.107 114.053C221.724 114.374 221.247 114.538 220.692 114.538C219.823 114.538 219.096 114.139 218.775 113.364L219.855 112.739C219.988 113.122 220.269 113.318 220.692 113.318C221.677 113.38 221.677 112.035 220.692 112.097H220.433L219.956 111.385L220.95 110.126H218.947V108.952H222.467V109.969ZM227.019 113.763C226.627 114.28 226.08 114.538 225.384 114.538C224.687 114.538 224.14 114.28 223.741 113.763C223.35 113.239 223.154 112.551 223.154 111.69C223.154 110.83 223.35 110.142 223.741 109.625C224.14 109.101 224.687 108.843 225.384 108.843C226.08 108.843 226.627 109.101 227.019 109.625C227.418 110.142 227.613 110.83 227.613 111.69C227.613 112.551 227.418 113.239 227.019 113.763ZM224.406 111.69C224.406 112.778 224.734 113.318 225.384 113.318C226.033 113.318 226.361 112.778 226.361 111.69C226.361 110.603 226.033 110.063 225.384 110.063C224.734 110.063 224.406 110.603 224.406 111.69ZM230.819 111.62L232.744 114.428H231.32L229.568 111.894V114.428H228.316V108.952H229.568V111.331L231.242 108.952H232.666L230.819 111.62Z" fill="#5D6276"/>
<path opacity="0.2" d="M214.134 128.859H230.431" stroke="#5D6276" stroke-width="2.60755" stroke-miterlimit="10" stroke-linecap="round"/>
<circle opacity="0.15" cx="281.93" cy="107.251" r="7.82265" fill="#5D6276"/>
<rect x="305.398" y="90.1226" width="91.2643" height="48.0417" rx="5.86501" fill="white"/>
<path opacity="0.1" d="M313.93 104.428V101.234H314.354V104.428H313.93ZM317.549 101.234H318.028V104.428H317.609V101.932L316.564 103.671H316.509L315.464 101.937V104.428H315.04V101.234H315.519L316.536 102.922L317.549 101.234ZM318.711 101.234H319.871C320.167 101.234 320.409 101.334 320.605 101.531C320.801 101.727 320.902 101.969 320.902 102.261C320.902 102.548 320.801 102.795 320.605 102.991C320.409 103.187 320.167 103.288 319.871 103.288H319.136V104.428H318.711V101.234ZM319.136 102.891H319.871C320.048 102.891 320.195 102.831 320.309 102.713C320.423 102.589 320.482 102.439 320.482 102.261C320.482 101.896 320.222 101.631 319.871 101.631H319.136V102.891ZM323.767 104.428H323.297L322.58 103.205H321.827V104.428H321.403V101.234H322.681C322.955 101.234 323.187 101.33 323.383 101.526C323.58 101.718 323.676 101.951 323.676 102.224C323.676 102.43 323.612 102.621 323.488 102.79C323.365 102.959 323.21 103.082 323.014 103.151L323.767 104.428ZM322.681 101.631H321.827V102.822H322.681C322.84 102.822 322.973 102.763 323.082 102.649C323.196 102.53 323.251 102.389 323.251 102.224C323.251 102.06 323.196 101.919 323.082 101.804C322.973 101.69 322.84 101.631 322.681 101.631ZM324.617 103.014V104.027H326.1V104.428H324.193V101.234H326.077V101.636H324.617V102.617H325.963V103.014H324.617ZM327.644 104.488C327.046 104.488 326.603 104.191 326.434 103.703L326.8 103.493C326.923 103.881 327.21 104.072 327.653 104.072C328.091 104.072 328.328 103.876 328.328 103.58C328.328 103.429 328.269 103.315 328.155 103.237C328.041 103.16 327.844 103.082 327.575 102.995L327.27 102.895C327.201 102.868 327.11 102.827 327.005 102.776C326.9 102.722 326.822 102.667 326.772 102.612C326.667 102.498 326.571 102.311 326.571 102.078C326.571 101.8 326.667 101.581 326.863 101.421C327.06 101.257 327.297 101.175 327.575 101.175C328.082 101.175 328.47 101.453 328.657 101.873L328.301 102.078C328.164 101.75 327.922 101.585 327.575 101.585C327.228 101.585 326.996 101.768 326.996 102.06C326.996 102.201 327.046 102.306 327.146 102.379C327.247 102.452 327.42 102.53 327.667 102.608L327.854 102.667C327.89 102.681 327.945 102.699 328.022 102.731C328.182 102.79 328.219 102.813 328.342 102.881C328.47 102.95 328.511 103 328.588 103.091C328.702 103.205 328.748 103.37 328.748 103.57C328.748 103.849 328.648 104.072 328.442 104.241C328.237 104.406 327.972 104.488 327.644 104.488ZM330.17 104.488C329.573 104.488 329.13 104.191 328.961 103.703L329.326 103.493C329.449 103.881 329.737 104.072 330.18 104.072C330.618 104.072 330.855 103.876 330.855 103.58C330.855 103.429 330.796 103.315 330.681 103.237C330.567 103.16 330.371 103.082 330.102 102.995L329.796 102.895C329.728 102.868 329.637 102.827 329.532 102.776C329.427 102.722 329.349 102.667 329.299 102.612C329.194 102.498 329.098 102.311 329.098 102.078C329.098 101.8 329.194 101.581 329.39 101.421C329.586 101.257 329.824 101.175 330.102 101.175C330.608 101.175 330.996 101.453 331.183 101.873L330.828 102.078C330.691 101.75 330.449 101.585 330.102 101.585C329.755 101.585 329.522 101.768 329.522 102.06C329.522 102.201 329.573 102.306 329.673 102.379C329.773 102.452 329.947 102.53 330.193 102.608L330.38 102.667C330.417 102.681 330.472 102.699 330.549 102.731C330.709 102.79 330.745 102.813 330.869 102.881C330.996 102.95 331.037 103 331.115 103.091C331.229 103.205 331.275 103.37 331.275 103.57C331.275 103.849 331.174 104.072 330.969 104.241C330.764 104.406 330.499 104.488 330.17 104.488ZM331.755 104.428V101.234H332.179V104.428H331.755ZM332.696 102.831C332.696 102.37 332.855 101.978 333.175 101.658C333.494 101.334 333.887 101.175 334.348 101.175C334.808 101.175 335.201 101.334 335.52 101.658C335.844 101.978 336.004 102.37 336.004 102.831C336.004 103.292 335.844 103.68 335.52 104.004C335.201 104.328 334.808 104.488 334.348 104.488C333.887 104.488 333.494 104.328 333.175 104.004C332.855 103.68 332.696 103.292 332.696 102.831ZM335.58 102.831C335.58 102.48 335.461 102.183 335.224 101.946C334.991 101.704 334.699 101.585 334.348 101.585C333.996 101.585 333.704 101.704 333.467 101.946C333.234 102.183 333.116 102.48 333.116 102.831C333.116 103.183 333.234 103.475 333.467 103.716C333.704 103.954 333.996 104.072 334.348 104.072C334.699 104.072 334.991 103.954 335.224 103.716C335.461 103.475 335.58 103.183 335.58 102.831ZM338.499 103.616V101.234H338.924V104.428H338.581L336.939 102.042V104.428H336.514V101.234H336.856L338.499 103.616ZM340.589 104.488C339.991 104.488 339.549 104.191 339.38 103.703L339.745 103.493C339.868 103.881 340.156 104.072 340.598 104.072C341.036 104.072 341.274 103.876 341.274 103.58C341.274 103.429 341.214 103.315 341.1 103.237C340.986 103.16 340.79 103.082 340.521 102.995L340.215 102.895C340.147 102.868 340.055 102.827 339.95 102.776C339.845 102.722 339.768 102.667 339.718 102.612C339.613 102.498 339.517 102.311 339.517 102.078C339.517 101.8 339.613 101.581 339.809 101.421C340.005 101.257 340.242 101.175 340.521 101.175C341.027 101.175 341.415 101.453 341.602 101.873L341.246 102.078C341.109 101.75 340.868 101.585 340.521 101.585C340.174 101.585 339.941 101.768 339.941 102.06C339.941 102.201 339.991 102.306 340.092 102.379C340.192 102.452 340.366 102.53 340.612 102.608L340.799 102.667C340.836 102.681 340.89 102.699 340.968 102.731C341.128 102.79 341.164 102.813 341.287 102.881C341.415 102.95 341.456 103 341.534 103.091C341.648 103.205 341.693 103.37 341.693 103.57C341.693 103.849 341.593 104.072 341.388 104.241C341.182 104.406 340.918 104.488 340.589 104.488Z" fill="#5D6276"/>
<path opacity="0.1" d="M313.461 109.469L314.892 108.952H315.987V114.428H314.736V110.275L313.766 110.54L313.461 109.469ZM320.433 114.428H316.71V113.521L318.548 111.612C318.916 111.229 319.103 110.908 319.103 110.642C319.103 110.298 318.884 110.063 318.517 110.063C318.149 110.063 317.883 110.259 317.711 110.658L316.655 110.04C316.991 109.258 317.711 108.843 318.501 108.843C319.009 108.843 319.447 108.999 319.807 109.32C320.175 109.633 320.355 110.055 320.355 110.587C320.355 111.166 320.073 111.737 319.502 112.308L318.595 113.224H320.433V114.428ZM324.214 111.573C324.691 111.878 324.926 112.316 324.926 112.887C324.926 113.896 324.19 114.538 322.915 114.538C321.64 114.538 320.905 113.896 320.905 112.887C320.905 112.316 321.14 111.878 321.617 111.573C321.265 111.299 321.093 110.932 321.093 110.47C321.093 109.962 321.265 109.563 321.609 109.273C321.953 108.984 322.391 108.843 322.915 108.843C323.44 108.843 323.878 108.984 324.222 109.273C324.566 109.563 324.738 109.962 324.738 110.47C324.738 110.932 324.566 111.299 324.214 111.573ZM323.33 110.165C323.119 109.969 322.712 109.969 322.501 110.165C322.29 110.361 322.29 110.736 322.501 110.932C322.712 111.127 323.119 111.127 323.33 110.932C323.541 110.736 323.541 110.361 323.33 110.165ZM322.368 113.192C322.509 113.31 322.689 113.364 322.915 113.364C323.142 113.364 323.322 113.31 323.463 113.192C323.604 113.075 323.674 112.911 323.674 112.707C323.674 112.504 323.604 112.348 323.463 112.23C323.322 112.113 323.142 112.05 322.915 112.05C322.689 112.05 322.509 112.113 322.368 112.23C322.227 112.348 322.157 112.504 322.157 112.707C322.157 112.911 322.227 113.075 322.368 113.192ZM328.135 111.62L330.059 114.428H328.635L326.883 111.894V114.428H325.632V108.952H326.883V111.331L328.557 108.952H329.981L328.135 111.62Z" fill="#5D6276"/>
<path opacity="0.2" d="M313.221 128.859H329.518" stroke="#5D6276" stroke-width="2.60755" stroke-miterlimit="10" stroke-linecap="round"/>
<circle opacity="0.15" cx="381.017" cy="107.251" r="7.82265" fill="#5D6276"/>
<rect x="404.485" y="90.1226" width="91.2643" height="48.0417" rx="5.86501" fill="white"/>
<path opacity="0.1" d="M414.134 104.488C413.536 104.488 413.093 104.191 412.924 103.703L413.289 103.493C413.413 103.881 413.7 104.072 414.143 104.072C414.581 104.072 414.818 103.876 414.818 103.58C414.818 103.429 414.759 103.315 414.645 103.237C414.531 103.16 414.334 103.082 414.065 102.995L413.759 102.895C413.691 102.868 413.6 102.827 413.495 102.776C413.39 102.722 413.312 102.667 413.262 102.612C413.157 102.498 413.061 102.311 413.061 102.078C413.061 101.8 413.157 101.581 413.353 101.421C413.549 101.257 413.787 101.175 414.065 101.175C414.572 101.175 414.96 101.453 415.147 101.873L414.791 102.078C414.654 101.75 414.412 101.585 414.065 101.585C413.718 101.585 413.486 101.768 413.486 102.06C413.486 102.201 413.536 102.306 413.636 102.379C413.737 102.452 413.91 102.53 414.156 102.608L414.343 102.667C414.38 102.681 414.435 102.699 414.512 102.731C414.672 102.79 414.709 102.813 414.832 102.881C414.96 102.95 415.001 103 415.078 103.091C415.192 103.205 415.238 103.37 415.238 103.57C415.238 103.849 415.137 104.072 414.932 104.241C414.727 104.406 414.462 104.488 414.134 104.488ZM415.718 101.234H416.877C417.174 101.234 417.416 101.334 417.612 101.531C417.808 101.727 417.908 101.969 417.908 102.261C417.908 102.548 417.808 102.795 417.612 102.991C417.416 103.187 417.174 103.288 416.877 103.288H416.142V104.428H415.718V101.234ZM416.142 102.891H416.877C417.055 102.891 417.201 102.831 417.315 102.713C417.429 102.589 417.489 102.439 417.489 102.261C417.489 101.896 417.229 101.631 416.877 101.631H416.142V102.891ZM418.834 103.014V104.027H420.317V104.428H418.41V101.234H420.294V101.636H418.834V102.617H420.18V103.014H418.834ZM422.814 103.616V101.234H423.239V104.428H422.897L421.254 102.042V104.428H420.829V101.234H421.172L422.814 103.616ZM423.922 101.234H425.168C425.601 101.234 425.962 101.389 426.249 101.7C426.537 102.005 426.683 102.384 426.683 102.831C426.683 103.278 426.537 103.657 426.249 103.967C425.962 104.273 425.601 104.428 425.168 104.428H423.922V101.234ZM424.346 104.027H425.168C425.492 104.027 425.761 103.913 425.966 103.685C426.172 103.456 426.277 103.173 426.277 102.831C426.277 102.489 426.172 102.206 425.966 101.978C425.761 101.75 425.492 101.636 425.168 101.636H424.346V104.027Z" fill="#5D6276"/>
<path opacity="0.1" d="M416.555 114.428H412.832V113.521L414.67 111.612C415.038 111.229 415.225 110.908 415.225 110.642C415.225 110.298 415.006 110.063 414.639 110.063C414.271 110.063 414.005 110.259 413.833 110.658L412.777 110.04C413.113 109.258 413.833 108.843 414.623 108.843C415.132 108.843 415.57 108.999 415.929 109.32C416.297 109.633 416.477 110.055 416.477 110.587C416.477 111.166 416.195 111.737 415.624 112.308L414.717 113.224H416.555V114.428ZM420.345 108.952L419.156 110.681C419.696 110.72 420.134 110.924 420.47 111.276C420.806 111.628 420.978 112.074 420.978 112.606C420.978 113.177 420.791 113.638 420.407 113.998C420.032 114.358 419.547 114.538 418.945 114.538C418.342 114.538 417.849 114.358 417.474 113.998C417.098 113.638 416.911 113.177 416.911 112.606C416.911 112.183 417.02 111.816 417.231 111.495L418.905 108.952H420.345ZM418.389 113.161C418.694 113.435 419.195 113.435 419.5 113.161C419.649 113.02 419.727 112.833 419.727 112.606C419.727 112.379 419.649 112.191 419.5 112.058C419.195 111.776 418.694 111.776 418.389 112.05C418.241 112.183 418.162 112.371 418.162 112.606C418.162 112.84 418.241 113.028 418.389 113.161ZM425.231 113.763C424.839 114.28 424.292 114.538 423.596 114.538C422.899 114.538 422.352 114.28 421.953 113.763C421.562 113.239 421.366 112.551 421.366 111.69C421.366 110.83 421.562 110.142 421.953 109.625C422.352 109.101 422.899 108.843 423.596 108.843C424.292 108.843 424.839 109.101 425.231 109.625C425.63 110.142 425.825 110.83 425.825 111.69C425.825 112.551 425.63 113.239 425.231 113.763ZM422.618 111.69C422.618 112.778 422.946 113.318 423.596 113.318C424.245 113.318 424.574 112.778 424.574 111.69C424.574 110.603 424.245 110.063 423.596 110.063C422.946 110.063 422.618 110.603 422.618 111.69ZM429.031 111.62L430.956 114.428H429.532L427.78 111.894V114.428H426.528V108.952H427.78V111.331L429.454 108.952H430.878L429.031 111.62Z" fill="#5D6276"/>
<path opacity="0.2" d="M412.308 128.859H428.605" stroke="#5D6276" stroke-width="2.60755" stroke-miterlimit="10" stroke-linecap="round"/>
<circle opacity="0.15" cx="480.104" cy="107.251" r="7.82265" fill="#5D6276"/>
<rect x="93.9839" y="53.0189" width="414.702" height="34.2613" rx="17.1306" fill="#F6F7FB"/>
<rect x="107.688" y="66.7234" width="47.5099" height="6.85226" rx="1.14204" fill="#EBEBF2"/>
<ellipse cx="433.14" cy="70.1496" rx="10.2554" ry="10.2784" fill="#EBEBF2"/>
<rect x="447.471" y="66.7235" width="47.5099" height="6.85226" rx="1.14204" fill="#EBEBF2"/>
<path d="M41.9746 69.2771C41.9746 60.2734 49.2736 52.9744 58.2774 52.9744H93.6198V361.871H58.2774C49.2736 361.871 41.9746 354.572 41.9746 345.568V69.2771Z" fill="white"/>
<rect x="107.262" y="73.4376" width="84.7761" height="7.79551" rx="3.89775" fill="#F6F7FB"/>
<rect x="55.2651" y="65.3224" width="23.4119" height="23.4119" rx="2.03785" fill="#DBE0E8"/>
<rect x="59.1758" y="109.113" width="15.591" height="15.591" rx="2.03785" fill="#DBE0E8"/>
<rect x="59.1758" y="141.006" width="15.591" height="15.591" rx="2.03785" fill="#DBE0E8"/>
<rect x="59.1758" y="172.9" width="15.591" height="15.591" rx="2.03785" fill="#DBE0E8"/>
<rect x="59.1758" y="204.794" width="15.591" height="15.591" rx="2.03785" fill="#DBE0E8"/>
</g>
<g filter="url(#filter1_d_648_14167)">
<rect x="116" y="157" width="237.228" height="164.478" rx="12" fill="white"/>
</g>
<path opacity="0.1" d="M235.258 235.516C234.928 235.483 234.533 235.483 234.171 235.516C226.329 235.253 220.102 228.828 220.102 220.92C220.102 212.848 226.625 206.291 234.731 206.291C242.803 206.291 249.36 212.848 249.36 220.92C249.327 228.828 243.1 235.253 235.258 235.516Z" fill="#673098"/>
<path opacity="0.1" d="M218.782 247.674C210.808 253.012 210.808 261.71 218.782 267.015C227.843 273.077 242.703 273.077 251.763 267.015C259.737 261.677 259.737 252.979 251.763 247.674C242.735 241.644 227.876 241.644 218.782 247.674Z" fill="#673098"/>
<path d="M235.257 235.516C234.927 235.483 234.532 235.483 234.17 235.516C226.328 235.253 220.101 228.828 220.101 220.92C220.101 212.848 226.624 206.291 234.73 206.291C242.802 206.291 249.359 212.848 249.359 220.92C249.326 228.828 243.099 235.253 235.257 235.516Z" stroke="#673098" stroke-width="2.76766" stroke-linecap="round" stroke-linejoin="round"/>
<path d="M258.144 212.88C264.536 212.88 269.676 218.053 269.676 224.412C269.676 230.64 264.734 235.714 258.572 235.944C258.309 235.911 258.012 235.911 257.716 235.944" stroke="#FFA800" stroke-width="2.76766" stroke-linecap="round" stroke-linejoin="round"/>
<path d="M218.782 247.674C210.808 253.012 210.808 261.71 218.782 267.015C227.843 273.077 242.703 273.077 251.763 267.015C259.737 261.677 259.737 252.979 251.763 247.674C242.735 241.644 227.876 241.644 218.782 247.674Z" stroke="#673098" stroke-width="2.76766" stroke-linecap="round" stroke-linejoin="round"/>
<path d="M264.504 265.598C266.876 265.103 269.117 264.148 270.962 262.731C276.102 258.876 276.102 252.517 270.962 248.662C269.15 247.278 266.942 246.356 264.603 245.829" stroke="#FFA800" stroke-width="2.76766" stroke-linecap="round" stroke-linejoin="round"/>
<path d="M211.388 212.88C204.996 212.88 199.856 218.053 199.856 224.412C199.856 230.64 204.798 235.714 210.96 235.944C211.223 235.911 211.52 235.911 211.816 235.944" stroke="#FFA800" stroke-width="2.76766" stroke-linecap="round" stroke-linejoin="round"/>
<path d="M205.028 265.598C202.656 265.104 200.416 264.148 198.57 262.732C193.43 258.877 193.43 252.518 198.57 248.663C200.383 247.279 202.59 246.356 204.929 245.829" stroke="#FFA800" stroke-width="2.76766" stroke-linecap="round" stroke-linejoin="round"/>
<g filter="url(#filter2_d_648_14167)">
<rect x="291" y="246" width="237.228" height="164.478" rx="12" fill="white"/>
</g>
<path opacity="0.1" d="M409.614 328.239C418.712 328.239 426.088 320.863 426.088 311.765C426.088 302.667 418.712 295.291 409.614 295.291C400.515 295.291 393.14 302.667 393.14 311.765C393.14 320.863 400.515 328.239 409.614 328.239Z" fill="#34B53A"/>
<path opacity="0.1" d="M442.563 348.008C442.563 349.062 442.431 350.084 442.168 351.072C441.871 352.39 441.344 353.675 440.652 354.795C438.379 358.617 434.194 361.187 429.384 361.187C425.99 361.187 422.926 359.902 420.62 357.794C419.631 356.937 418.775 355.916 418.116 354.795C416.897 352.819 416.205 350.479 416.205 348.008C416.205 344.45 417.621 341.188 419.928 338.815C422.333 336.344 425.694 334.829 429.384 334.829C433.272 334.829 436.797 336.509 439.17 339.211C441.278 341.55 442.563 344.647 442.563 348.008Z" fill="#34B53A"/>
<path d="M409.615 328.239C418.713 328.239 426.089 320.863 426.089 311.765C426.089 302.666 418.713 295.291 409.615 295.291C400.516 295.291 393.141 302.666 393.141 311.765C393.141 320.863 400.516 328.239 409.615 328.239Z" stroke="#34B53A" stroke-width="2.76766" stroke-linecap="round" stroke-linejoin="round"/>
<path d="M381.312 361.187C381.312 348.436 393.997 338.124 409.614 338.124C412.777 338.124 415.841 338.552 418.708 339.343" stroke="#34B53A" stroke-width="2.76766" stroke-linecap="round" stroke-linejoin="round"/>
<path d="M442.562 348.008C442.562 349.062 442.431 350.084 442.167 351.072C441.87 352.39 441.343 353.675 440.651 354.795C438.378 358.617 434.193 361.187 429.383 361.187C425.989 361.187 422.925 359.902 420.619 357.794C419.63 356.937 418.774 355.916 418.115 354.795C416.896 352.819 416.204 350.479 416.204 348.008C416.204 344.45 417.62 341.188 419.927 338.815C422.332 336.344 425.693 334.829 429.383 334.829C433.271 334.829 436.796 336.509 439.169 339.211C441.277 341.55 442.562 344.647 442.562 348.008Z" stroke="#34B53A" stroke-width="2.76766" stroke-miterlimit="10" stroke-linecap="round" stroke-linejoin="round"/>
<path d="M434.293 347.942H424.474" stroke="#34B53A" stroke-width="2.76766" stroke-miterlimit="10" stroke-linecap="round" stroke-linejoin="round"/>
<path d="M429.383 343.132V352.983" stroke="#34B53A" stroke-width="2.76766" stroke-miterlimit="10" stroke-linecap="round" stroke-linejoin="round"/>
<path opacity="0.8" d="M421.939 239.061C422.525 239.646 423.475 239.646 424.061 239.061L433.607 229.515C434.192 228.929 434.192 227.979 433.607 227.393C433.021 226.808 432.071 226.808 431.485 227.393L423 235.879L414.515 227.393C413.929 226.808 412.979 226.808 412.393 227.393C411.808 227.979 411.808 228.929 412.393 229.515L421.939 239.061ZM371.068 192.668C371.895 192.616 372.524 191.904 372.472 191.078C372.421 190.251 371.709 189.622 370.882 189.673L371.068 192.668ZM378.92 189.541C378.092 189.514 377.399 190.164 377.372 190.992C377.346 191.82 377.996 192.513 378.824 192.539L378.92 189.541ZM382.678 192.766C383.503 192.838 384.23 192.227 384.302 191.402C384.374 190.577 383.763 189.849 382.938 189.778L382.678 192.766ZM390.939 190.982C390.13 190.804 389.329 191.315 389.151 192.124C388.973 192.933 389.484 193.734 390.293 193.912L390.939 190.982ZM394.006 194.878C394.799 195.118 395.636 194.67 395.876 193.877C396.116 193.084 395.667 192.247 394.874 192.007L394.006 194.878ZM402.445 195.039C401.708 194.661 400.804 194.952 400.426 195.689C400.048 196.427 400.339 197.331 401.076 197.709L402.445 195.039ZM404.361 199.61C405.055 200.061 405.985 199.865 406.436 199.17C406.888 198.476 406.691 197.547 405.997 197.095L404.361 199.61ZM412.351 202.299C411.772 201.706 410.822 201.694 410.229 202.272C409.636 202.851 409.624 203.8 410.203 204.394L412.351 202.299ZM412.686 207.244C413.194 207.898 414.136 208.016 414.791 207.508C415.445 206.999 415.563 206.057 415.054 205.403L412.686 207.244ZM419.365 212.375C419.004 211.629 418.107 211.318 417.361 211.679C416.615 212.04 416.304 212.937 416.665 213.683L419.365 212.375ZM418.161 217.183C418.451 217.958 419.316 218.352 420.092 218.061C420.868 217.771 421.261 216.906 420.97 216.131L418.161 217.183ZM423.187 223.947C423.022 223.135 422.23 222.61 421.418 222.775C420.607 222.94 420.082 223.732 420.247 224.543L423.187 223.947ZM420.886 228.349C420.996 229.17 421.752 229.746 422.573 229.635C423.394 229.525 423.97 228.769 423.859 227.948L420.886 228.349ZM424.476 235.973C424.456 235.145 423.769 234.489 422.941 234.509C422.112 234.529 421.457 235.216 421.477 236.045L424.476 235.973ZM369.124 192.808C369.776 192.754 370.424 192.707 371.068 192.668L370.882 189.673C370.217 189.715 369.548 189.763 368.876 189.819L369.124 192.808ZM378.824 192.539C380.13 192.581 381.415 192.656 382.678 192.766L382.938 189.778C381.618 189.663 380.278 189.584 378.92 189.541L378.824 192.539ZM390.293 193.912C391.562 194.191 392.8 194.513 394.006 194.878L394.874 192.007C393.592 191.619 392.279 191.278 390.939 190.982L390.293 193.912ZM401.076 197.709C402.212 198.291 403.307 198.925 404.361 199.61L405.997 197.095C404.854 196.352 403.67 195.667 402.445 195.039L401.076 197.709ZM410.203 204.394C411.075 205.288 411.904 206.238 412.686 207.244L415.054 205.403C414.204 204.309 413.302 203.274 412.351 202.299L410.203 204.394ZM416.665 213.683C417.206 214.799 417.705 215.965 418.161 217.183L420.97 216.131C420.483 214.829 419.947 213.577 419.365 212.375L416.665 213.683ZM420.247 224.543C420.496 225.771 420.709 227.039 420.886 228.349L423.859 227.948C423.674 226.576 423.45 225.242 423.187 223.947L420.247 224.543ZM421.477 236.045C421.492 236.688 421.5 237.34 421.5 238H424.5C424.5 237.317 424.492 236.641 424.476 235.973L421.477 236.045Z" fill="#34B53A"/>
</g>
<defs>
<filter id="filter0_d_648_14167" x="-2.81356" y="28.5648" width="556.332" height="398.473" filterUnits="userSpaceOnUse" color-interpolation-filters="sRGB">
<feFlood flood-opacity="0" result="BackgroundImageFix"/>
<feColorMatrix in="SourceAlpha" type="matrix" values="0 0 0 0 0 0 0 0 0 0 0 0 0 0 0 0 0 0 127 0" result="hardAlpha"/>
<feOffset dy="20.3785"/>
<feGaussianBlur stdDeviation="20.3785"/>
<feColorMatrix type="matrix" values="0 0 0 0 0 0 0 0 0 0.145098 0 0 0 0 0.368627 0 0 0 0.1 0"/>
<feBlend mode="normal" in2="BackgroundImageFix" result="effect1_dropShadow_648_14167"/>
<feBlend mode="normal" in="SourceGraphic" in2="effect1_dropShadow_648_14167" result="shape"/>
</filter>
<filter id="filter1_d_648_14167" x="84.3696" y="141.185" width="300.489" height="227.739" filterUnits="userSpaceOnUse" color-interpolation-filters="sRGB">
<feFlood flood-opacity="0" result="BackgroundImageFix"/>
<feColorMatrix in="SourceAlpha" type="matrix" values="0 0 0 0 0 0 0 0 0 0 0 0 0 0 0 0 0 0 127 0" result="hardAlpha"/>
<feOffset dy="15.8152"/>
<feGaussianBlur stdDeviation="15.8152"/>
<feColorMatrix type="matrix" values="0 0 0 0 0 0 0 0 0 0.145098 0 0 0 0 0.368627 0 0 0 0.1 0"/>
<feBlend mode="normal" in2="BackgroundImageFix" result="effect1_dropShadow_648_14167"/>
<feBlend mode="normal" in="SourceGraphic" in2="effect1_dropShadow_648_14167" result="shape"/>
</filter>
<filter id="filter2_d_648_14167" x="259.37" y="230.185" width="300.489" height="227.739" filterUnits="userSpaceOnUse" color-interpolation-filters="sRGB">
<feFlood flood-opacity="0" result="BackgroundImageFix"/>
<feColorMatrix in="SourceAlpha" type="matrix" values="0 0 0 0 0 0 0 0 0 0 0 0 0 0 0 0 0 0 127 0" result="hardAlpha"/>
<feOffset dy="15.8152"/>
<feGaussianBlur stdDeviation="15.8152"/>
<feColorMatrix type="matrix" values="0 0 0 0 0 0 0 0 0 0.145098 0 0 0 0 0.368627 0 0 0 0.1 0"/>
<feBlend mode="normal" in2="BackgroundImageFix" result="effect1_dropShadow_648_14167"/>
<feBlend mode="normal" in="SourceGraphic" in2="effect1_dropShadow_648_14167" result="shape"/>
</filter>
<clipPath id="clip0_648_14167">
<rect width="570" height="475" fill="white"/>
</clipPath>
</defs>
</svg>
