<svg width="570" height="475" viewBox="0 0 570 475" fill="none" xmlns="http://www.w3.org/2000/svg">
<g clip-path="url(#clip0_648_14077)">
<g opacity="0.2" filter="url(#filter0_d_648_14077)">
<rect x="110" y="297" width="124" height="46" rx="11.0311" fill="white"/>
<path fill-rule="evenodd" clip-rule="evenodd" d="M121.031 319.482C121.031 317.559 122.59 316 124.514 316H219.487C221.41 316 222.969 317.559 222.969 319.482V320.518C222.969 322.441 221.41 324 219.487 324H124.514C122.59 324 121.031 322.441 121.031 320.518V319.482Z" fill="#F1F3F8"/>
</g>
<g opacity="0.2" filter="url(#filter1_d_648_14077)">
<rect x="401" y="334" width="124" height="44" rx="11.0311" fill="white"/>
<path fill-rule="evenodd" clip-rule="evenodd" d="M412.031 355.482C412.031 353.559 413.59 352 415.514 352H510.487C512.41 352 513.969 353.559 513.969 355.482V356.518C513.969 358.441 512.41 360 510.487 360H415.514C413.59 360 412.031 358.441 412.031 356.518V355.482Z" fill="#F1F3F8"/>
</g>
<g filter="url(#filter2_d_648_14077)">
<rect x="176" y="183" width="251.47" height="249.255" rx="124.627" fill="white"/>
<mask id="path-6-inside-1_648_14077" fill="white">
<path d="M339.771 394.021C318.275 403.331 294.079 404.447 271.807 397.156C249.536 389.865 230.75 374.679 219.04 354.5C207.331 334.321 203.518 310.564 208.332 287.77C213.146 264.975 226.248 244.742 245.134 230.936C264.021 217.131 287.367 210.722 310.712 212.933C334.056 215.145 355.761 225.823 371.679 242.926C387.597 260.029 396.611 282.358 396.999 305.645C397.386 328.932 389.12 351.545 373.781 369.161L336.76 337.363C344.226 328.789 348.25 317.783 348.061 306.448C347.872 295.114 343.485 284.246 335.738 275.922C327.99 267.598 317.426 262.401 306.064 261.324C294.702 260.248 283.339 263.367 274.146 270.087C264.954 276.806 258.577 286.654 256.234 297.749C253.891 308.843 255.747 320.406 261.446 330.227C267.145 340.049 276.289 347.44 287.129 350.988C297.969 354.537 309.745 353.994 320.207 349.463L339.771 394.021Z"/>
</mask>
<path d="M339.771 394.021C318.275 403.331 294.079 404.447 271.807 397.156C249.536 389.865 230.75 374.679 219.04 354.5C207.331 334.321 203.518 310.564 208.332 287.77C213.146 264.975 226.248 244.742 245.134 230.936C264.021 217.131 287.367 210.722 310.712 212.933C334.056 215.145 355.761 225.823 371.679 242.926C387.597 260.029 396.611 282.358 396.999 305.645C397.386 328.932 389.12 351.545 373.781 369.161L336.76 337.363C344.226 328.789 348.25 317.783 348.061 306.448C347.872 295.114 343.485 284.246 335.738 275.922C327.99 267.598 317.426 262.401 306.064 261.324C294.702 260.248 283.339 263.367 274.146 270.087C264.954 276.806 258.577 286.654 256.234 297.749C253.891 308.843 255.747 320.406 261.446 330.227C267.145 340.049 276.289 347.44 287.129 350.988C297.969 354.537 309.745 353.994 320.207 349.463L339.771 394.021Z" fill="#4339F2" stroke="white" stroke-width="4.75215" mask="url(#path-6-inside-1_648_14077)"/>
<mask id="path-7-inside-2_648_14077" fill="white">
<path d="M397.012 307.21C397.012 325.941 391.42 344.252 380.942 359.826C370.465 375.4 355.572 387.539 338.148 394.707C320.724 401.875 301.552 403.75 283.055 400.096C264.557 396.442 247.567 387.422 234.231 374.177C220.895 360.932 211.814 344.057 208.134 325.686C204.455 307.315 206.344 288.273 213.561 270.968C220.778 253.663 233 238.872 248.681 228.466C264.362 218.059 282.798 212.505 301.657 212.505V261.393C292.533 261.393 283.614 264.08 276.028 269.115C268.442 274.149 262.529 281.305 259.037 289.677C255.546 298.049 254.632 307.261 256.412 316.149C258.192 325.037 262.586 333.2 269.037 339.608C275.489 346.016 283.709 350.379 292.658 352.147C301.606 353.915 310.882 353.008 319.311 349.54C327.741 346.072 334.945 340.2 340.014 332.665C345.083 325.13 347.789 316.272 347.789 307.21H397.012Z"/>
</mask>
<path d="M397.012 307.21C397.012 325.941 391.42 344.252 380.942 359.826C370.465 375.4 355.572 387.539 338.148 394.707C320.724 401.875 301.552 403.75 283.055 400.096C264.557 396.442 247.567 387.422 234.231 374.177C220.895 360.932 211.814 344.057 208.134 325.686C204.455 307.315 206.344 288.273 213.561 270.968C220.778 253.663 233 238.872 248.681 228.466C264.362 218.059 282.798 212.505 301.657 212.505V261.393C292.533 261.393 283.614 264.08 276.028 269.115C268.442 274.149 262.529 281.305 259.037 289.677C255.546 298.049 254.632 307.261 256.412 316.149C258.192 325.037 262.586 333.2 269.037 339.608C275.489 346.016 283.709 350.379 292.658 352.147C301.606 353.915 310.882 353.008 319.311 349.54C327.741 346.072 334.945 340.2 340.014 332.665C345.083 325.13 347.789 316.272 347.789 307.21H397.012Z" fill="#34B53A" stroke="white" stroke-width="4.75215" mask="url(#path-7-inside-2_648_14077)"/>
<mask id="path-8-inside-3_648_14077" fill="white">
<path d="M395.228 288.975C399.089 308.519 396.648 328.775 388.252 346.862C379.856 364.949 365.932 379.947 348.461 389.723C330.989 399.498 310.859 403.555 290.933 401.315C271.006 399.075 252.298 390.652 237.469 377.245L270.436 341.275C277.649 347.796 286.749 351.893 296.441 352.982C306.133 354.072 315.924 352.099 324.422 347.344C332.92 342.589 339.693 335.294 343.777 326.497C347.861 317.699 349.048 307.847 347.17 298.341L395.228 288.975Z"/>
</mask>
<path d="M395.228 288.975C399.089 308.519 396.648 328.775 388.252 346.862C379.856 364.949 365.932 379.947 348.461 389.723C330.989 399.498 310.859 403.555 290.933 401.315C271.006 399.075 252.298 390.652 237.469 377.245L270.436 341.275C277.649 347.796 286.749 351.893 296.441 352.982C306.133 354.072 315.924 352.099 324.422 347.344C332.92 342.589 339.693 335.294 343.777 326.497C347.861 317.699 349.048 307.847 347.17 298.341L395.228 288.975Z" fill="#FFB200" stroke="white" stroke-width="4.75215" mask="url(#path-8-inside-3_648_14077)"/>
</g>
<g filter="url(#filter3_d_648_14077)">
<rect x="36" y="145" width="150.743" height="78.7248" rx="17.7248" fill="white"/>
<mask id="mask0_648_14077" style="mask-type:luminance" maskUnits="userSpaceOnUse" x="56" y="156" width="57" height="57">
<path d="M104.302 204.439C115.27 193.472 115.27 175.689 104.302 164.721C93.3345 153.753 75.5521 153.753 64.5842 164.721C53.6163 175.689 53.6163 193.472 64.5842 204.439C75.5521 215.407 93.3345 215.407 104.302 204.439Z" fill="white"/>
</mask>
<g mask="url(#mask0_648_14077)">
<path d="M104.302 204.439C115.27 193.472 115.27 175.689 104.302 164.721C93.3345 153.753 75.5521 153.753 64.5842 164.721C53.6163 175.689 53.6163 193.472 64.5842 204.439C75.5521 215.407 93.3345 215.407 104.302 204.439Z" fill="#F6F7FB"/>
<path d="M103.333 209.37C103.333 215.738 65.5513 215.738 65.5513 209.37C65.5513 203.003 80.4585 200.527 84.4422 200.527C88.4259 200.527 103.333 203.003 103.333 209.37Z" fill="#34B53A"/>
<path d="M81.0974 192.829H87.7906V200.455C87.7906 202.301 86.292 203.803 84.4424 203.803C82.596 203.803 81.0942 202.304 81.0942 200.455V192.829H81.0974Z" fill="#FFF0C9"/>
<path d="M87.7875 198.494V195.576H81.0942V198.494C82.1281 198.915 83.26 199.146 84.4424 199.146C85.6249 199.146 86.7536 198.915 87.7875 198.494Z" fill="black" fill-opacity="0.14"/>
<path d="M84.4451 172.12H84.442C79.5161 172.12 75.5229 176.113 75.5229 181.039V188.124C75.5229 193.05 79.5161 197.043 84.442 197.043H84.4451C89.371 197.043 93.3642 193.05 93.3642 188.124V181.039C93.3642 176.113 89.371 172.12 84.4451 172.12Z" fill="#FFF0C9"/>
<path d="M75.5823 189.301C76.8225 188.773 77.3997 187.34 76.8715 186.099C76.3432 184.859 74.9097 184.282 73.6694 184.81C72.4292 185.338 71.852 186.772 72.3803 188.012C72.9085 189.252 74.3421 189.83 75.5823 189.301Z" fill="#FFF0C9"/>
<path d="M72.8803 187.226C72.7917 187.226 72.7222 187.157 72.7222 187.068C72.7222 186.022 73.5758 185.168 74.6223 185.168C74.7109 185.168 74.7804 185.238 74.7804 185.326C74.7804 185.415 74.7109 185.484 74.6223 185.484C73.7497 185.484 73.0383 186.196 73.0383 187.068C73.0383 187.157 72.9688 187.226 72.8803 187.226Z" fill="#352E38"/>
<path d="M96.5349 187.921C97.0129 186.661 96.3787 185.251 95.1183 184.773C93.8578 184.295 92.4486 184.93 91.9705 186.19C91.4925 187.45 92.1267 188.86 93.3872 189.338C94.6476 189.816 96.0569 189.181 96.5349 187.921Z" fill="#FFF0C9"/>
<path d="M96.0051 187.226C95.9166 187.226 95.847 187.157 95.847 187.068C95.847 186.196 95.1357 185.484 94.2631 185.484C94.1745 185.484 94.105 185.415 94.105 185.326C94.105 185.238 94.1745 185.168 94.2631 185.168C95.3096 185.168 96.1632 186.022 96.1632 187.068C96.1632 187.157 96.0936 187.226 96.0051 187.226Z" fill="#352E38"/>
<path d="M95.9474 178.111L93.9334 176.948C95.0716 173.625 92.8837 170.741 92.8837 170.741C92.8837 170.741 91.4673 172.389 89.0581 171.367C79.2918 167.229 75.9879 171.845 74.9572 173.691C74.1794 175.082 74.5683 176.878 74.5683 176.878L72.7061 178.111L75.2891 184.899C75.2891 184.899 75.991 185.712 76.4558 178.162H92.6466C92.8079 184.308 93.3675 184.899 93.3675 184.899L95.9506 178.111H95.9474Z" fill="#352E38"/>
</g>
<path d="M138.742 177.879L135.84 181.645C137.944 182.266 139.385 183.883 139.385 186.077C139.385 187.672 138.853 188.913 137.767 189.821C136.704 190.729 135.396 191.172 133.846 191.172C131.431 191.172 129.392 190.043 128.528 187.893L131.143 186.387C131.519 187.583 132.428 188.181 133.846 188.181C135.419 188.181 136.327 187.384 136.327 186.077C136.327 184.814 135.419 183.972 133.846 183.972H133.181L132.007 182.199L135.064 178.211H128.993V175.353H138.742V177.879ZM151.187 185.39H152.848V188.226H151.187V190.862H148.107V188.226H140.773V185.39L145.936 175.353H149.215L144.075 185.39H148.107V181.712H151.187V185.39ZM159.457 181.313C158.748 182 157.862 182.354 156.798 182.354C155.735 182.354 154.849 182 154.117 181.291C153.408 180.582 153.054 179.718 153.054 178.699C153.054 177.68 153.408 176.815 154.117 176.106C154.849 175.397 155.735 175.043 156.798 175.043C157.862 175.043 158.748 175.397 159.457 176.106C160.166 176.793 160.52 177.657 160.52 178.699C160.52 179.74 160.166 180.604 159.457 181.313ZM155.956 189.289L154.627 188.514L164.73 177.281L166.082 178.034L155.956 189.289ZM155.779 179.718C156.311 180.25 157.241 180.25 157.773 179.718C158.305 179.164 158.305 178.233 157.773 177.702C157.241 177.17 156.311 177.17 155.779 177.702C155.27 178.233 155.27 179.164 155.779 179.718ZM166.946 190.065C166.237 190.774 165.35 191.128 164.287 191.128C163.224 191.128 162.337 190.774 161.628 190.065C160.919 189.356 160.565 188.492 160.565 187.472C160.565 186.453 160.919 185.589 161.628 184.88C162.337 184.171 163.224 183.817 164.287 183.817C165.35 183.817 166.237 184.171 166.946 184.88C167.655 185.589 168.009 186.453 168.009 187.472C168.009 188.492 167.655 189.356 166.946 190.065ZM165.661 187.472C165.661 186.675 165.085 186.054 164.287 186.054C163.489 186.054 162.913 186.675 162.913 187.472C162.913 188.27 163.489 188.89 164.287 188.89C165.085 188.89 165.661 188.248 165.661 187.472Z" fill="#34B53A"/>
<path d="M163.918 238L133.918 217.165H163.918V238Z" fill="white"/>
</g>
<g filter="url(#filter4_d_648_14077)">
<rect x="194" y="35" width="156.743" height="82" rx="17.7248" fill="white"/>
<mask id="mask1_648_14077" style="mask-type:luminance" maskUnits="userSpaceOnUse" x="213" y="44" width="64" height="64">
<path d="M267.455 98.1077C279.809 85.7536 279.809 65.7235 267.455 53.3693C255.101 41.0152 235.071 41.0152 222.717 53.3693C210.363 65.7235 210.363 85.7536 222.717 98.1077C235.071 110.462 255.101 110.462 267.455 98.1077Z" fill="white"/>
</mask>
<g mask="url(#mask1_648_14077)">
<path d="M267.455 98.1077C279.809 85.7536 279.809 65.7235 267.455 53.3693C255.101 41.0152 235.071 41.0152 222.717 53.3693C210.363 65.7235 210.363 85.7536 222.717 98.1077C235.071 110.462 255.101 110.462 267.455 98.1077Z" fill="#F6F7FB"/>
<path d="M250.018 92.1456C254.687 92.1456 258.469 88.36 258.469 83.6947C258.469 83.4383 258.451 83.1854 258.43 82.9361C261.357 81.6078 263.398 78.6662 263.398 75.2402C263.398 72.1526 261.738 69.4638 259.27 67.9859C259.605 67.0742 259.801 66.0949 259.801 65.0657C259.801 60.3968 256.015 56.6147 251.35 56.6147C248.868 56.6147 246.635 57.6867 245.086 59.389C243.54 57.6831 241.307 56.6147 238.821 56.6147C234.152 56.6147 230.37 60.4004 230.37 65.0657C230.37 66.0949 230.563 67.0742 230.901 67.9859C228.429 69.4603 226.773 72.1526 226.773 75.2402C226.773 78.6662 228.814 81.6078 231.741 82.9361C231.72 83.1854 231.702 83.4383 231.702 83.6947C231.702 88.3635 235.488 92.1456 240.153 92.1456H250.018Z" fill="#352E38"/>
<path d="M266.364 103.663C266.364 110.835 223.807 110.835 223.807 103.663C223.807 96.4904 240.598 93.7019 245.085 93.7019C249.572 93.7019 266.364 96.4904 266.364 103.663Z" fill="#4339F2"/>
<path d="M241.317 85.0303H248.856V93.6201C248.856 95.6999 247.168 97.3915 245.085 97.3915C243.005 97.3915 241.313 95.7034 241.313 93.6201V85.0303H241.317Z" fill="#FFF0C9"/>
<path opacity="0.1" d="M248.853 91.4121V88.125H241.313V91.4121C242.478 91.8857 243.753 92.1457 245.085 92.1457C246.417 92.1457 247.688 91.8857 248.853 91.4121Z" fill="black"/>
<path d="M245.089 61.7036H245.085C239.537 61.7036 235.039 66.2015 235.039 71.75V79.7308C235.039 85.2792 239.537 89.7772 245.085 89.7772H245.089C250.637 89.7772 255.135 85.2792 255.135 79.7308V71.75C255.135 66.2015 250.637 61.7036 245.089 61.7036Z" fill="#FFF0C9"/>
<path d="M234.024 81.2908C235.542 81.2908 236.773 80.0599 236.773 78.5415C236.773 77.0231 235.542 75.7922 234.024 75.7922C232.505 75.7922 231.274 77.0231 231.274 78.5415C231.274 80.0599 232.505 81.2908 234.024 81.2908Z" fill="#FFF0C9"/>
<path d="M232.062 78.7195C231.962 78.7195 231.884 78.6412 231.884 78.5414C231.884 77.3627 232.845 76.4011 234.024 76.4011C234.124 76.4011 234.202 76.4795 234.202 76.5792C234.202 76.6789 234.124 76.7573 234.024 76.7573C233.041 76.7573 232.24 77.5585 232.24 78.5414C232.24 78.6412 232.162 78.7195 232.062 78.7195Z" fill="#352E38"/>
<path d="M256.147 81.2908C257.665 81.2908 258.896 80.0599 258.896 78.5415C258.896 77.0231 257.665 75.7922 256.147 75.7922C254.628 75.7922 253.397 77.0231 253.397 78.5415C253.397 80.0599 254.628 81.2908 256.147 81.2908Z" fill="#FFF0C9"/>
<path d="M258.109 78.7195C258.009 78.7195 257.931 78.6412 257.931 78.5414C257.931 77.5585 257.13 76.7573 256.147 76.7573C256.047 76.7573 255.969 76.6789 255.969 76.5792C255.969 76.4795 256.047 76.4011 256.147 76.4011C257.326 76.4011 258.287 77.3627 258.287 78.5414C258.287 78.6412 258.209 78.7195 258.109 78.7195Z" fill="#352E38"/>
<path d="M234.023 71.7323C234.472 71.8569 234.942 71.921 235.43 71.921C237.83 71.921 239.857 70.3184 240.498 68.1247C241.174 68.4416 241.929 68.6233 242.724 68.6233C243.796 68.6233 244.796 68.3028 245.63 67.7508C246.028 70.9345 248.742 73.4025 252.036 73.4025H256.146V71.1731C256.146 65.0656 251.192 60.1118 245.085 60.1118C238.977 60.1118 234.023 65.0656 234.023 71.1731V71.7358V71.7323Z" fill="#352E38"/>
</g>
<path d="M302.986 82.5H292.617V80.2179L297.912 74.7676C299.086 73.5268 299.685 72.4855 299.685 71.6657C299.685 70.4472 298.843 69.6495 297.668 69.6495C296.494 69.6495 295.63 70.2478 295.076 71.4663L292.506 69.9597C293.481 67.8328 295.431 66.6806 297.624 66.6806C299.02 66.6806 300.238 67.1238 301.235 68.01C302.232 68.8741 302.742 70.0705 302.742 71.555C302.742 73.1723 301.9 74.8119 300.194 76.5179L297.159 79.5533H302.986V82.5ZM314.756 82.5H304.387V80.2179L309.682 74.7676C310.857 73.5268 311.455 72.4855 311.455 71.6657C311.455 70.4472 310.613 69.6495 309.439 69.6495C308.264 69.6495 307.4 70.2478 306.846 71.4663L304.276 69.9597C305.251 67.8328 307.201 66.6806 309.394 66.6806C310.79 66.6806 312.009 67.1238 313.006 68.01C314.003 68.8741 314.512 70.0705 314.512 71.555C314.512 73.1723 313.67 74.8119 311.964 76.5179L308.929 79.5533H314.756V82.5ZM322.743 72.9508C322.034 73.6376 321.148 73.9921 320.084 73.9921C319.021 73.9921 318.135 73.6376 317.403 72.9286C316.694 72.2196 316.34 71.3555 316.34 70.3364C316.34 69.3172 316.694 68.4531 317.403 67.7441C318.135 67.0351 319.021 66.6806 320.084 66.6806C321.148 66.6806 322.034 67.0351 322.743 67.7441C323.452 68.431 323.806 69.295 323.806 70.3364C323.806 71.3777 323.452 72.2418 322.743 72.9508ZM319.242 80.9269L317.913 80.1515L328.016 68.9184L329.368 69.6717L319.242 80.9269ZM319.065 71.3555C319.597 71.8873 320.527 71.8873 321.059 71.3555C321.591 70.8017 321.591 69.8711 321.059 69.3394C320.527 68.8076 319.597 68.8076 319.065 69.3394C318.556 69.8711 318.556 70.8017 319.065 71.3555ZM330.232 81.7024C329.523 82.4114 328.636 82.7659 327.573 82.7659C326.51 82.7659 325.623 82.4114 324.914 81.7024C324.205 80.9934 323.851 80.1293 323.851 79.1101C323.851 78.091 324.205 77.2269 324.914 76.5179C325.623 75.8089 326.51 75.4544 327.573 75.4544C328.636 75.4544 329.523 75.8089 330.232 76.5179C330.941 77.2269 331.295 78.091 331.295 79.1101C331.295 80.1293 330.941 80.9934 330.232 81.7024ZM328.947 79.1101C328.947 78.3125 328.371 77.6922 327.573 77.6922C326.775 77.6922 326.199 78.3125 326.199 79.1101C326.199 79.9078 326.775 80.5281 327.573 80.5281C328.371 80.5281 328.947 79.8856 328.947 79.1101Z" fill="#4339F2"/>
</g>
<path d="M308 139.5L292 115H322L308 139.5Z" fill="white"/>
<g filter="url(#filter5_d_648_14077)">
<rect x="385" y="107" width="151.652" height="77.7248" rx="17.7248" fill="white"/>
<mask id="mask2_648_14077" style="mask-type:luminance" maskUnits="userSpaceOnUse" x="404" y="116" width="58" height="59">
<path d="M453.389 165.96C464.62 154.729 464.62 136.52 453.389 125.289C442.158 114.058 423.949 114.058 412.717 125.289C401.486 136.52 401.486 154.729 412.717 165.96C423.949 177.191 442.158 177.191 453.389 165.96Z" fill="white"/>
</mask>
<g mask="url(#mask2_648_14077)">
<path d="M453.389 165.96C464.62 154.729 464.62 136.52 453.389 125.289C442.158 114.058 423.949 114.058 412.717 125.289C401.486 136.52 401.486 154.729 412.717 165.96C423.949 177.191 442.158 177.191 453.389 165.96Z" fill="#F6F7FB"/>
<path d="M429.662 133.33C429.243 132.682 428.706 131.755 428.091 131.288C427.475 130.825 426.671 130.552 425.922 130.733C425.217 130.901 424.646 131.447 424.315 132.092C423.985 132.736 423.871 133.469 423.842 134.193C423.788 135.536 424.017 136.889 424.503 138.14C423.763 137.073 422.093 136.895 421.042 137.654C419.988 138.413 419.6 139.899 419.972 141.141C420.346 142.382 421.359 144.649 423.864 144.649H441.931C443.709 144.649 444.515 142.011 444.541 141.353C444.652 138.486 443.067 138.086 442.02 137.851C442.947 137.016 443.76 136.057 444.43 135.006C444.976 134.152 445.439 133.149 445.23 132.158C445.052 131.32 444.398 130.637 443.636 130.247C442.871 129.856 442.004 129.723 441.15 129.663C437.044 129.374 432.847 130.71 429.665 133.323" fill="#352E38"/>
<path d="M451.942 171.053C451.942 177.448 414 177.448 414 171.053C414 164.658 428.97 162.172 432.971 162.172C436.971 162.172 451.942 164.658 451.942 171.053Z" fill="#FFA800"/>
<path d="M432.97 165.459C431.113 165.459 429.608 163.954 429.608 162.096V154.438H436.33V162.096C436.33 163.954 434.825 165.459 432.967 165.459H432.97Z" fill="#FFF0C9"/>
<path d="M436.33 160.131V157.2H429.608V160.131C430.646 160.553 431.783 160.785 432.97 160.785C434.158 160.785 435.291 160.553 436.33 160.131Z" fill="black" fill-opacity="0.14"/>
<path d="M432.971 158.67C428.024 158.67 424.014 154.66 424.014 149.713V142.601C424.014 137.654 428.024 133.644 432.971 133.644C437.917 133.644 441.928 137.654 441.928 142.601V149.713C441.928 154.66 437.917 158.67 432.971 158.67Z" fill="#FFF0C9"/>
<path d="M423.108 151.108C424.462 151.108 425.56 150.01 425.56 148.657C425.56 147.303 424.462 146.205 423.108 146.205C421.755 146.205 420.657 147.303 420.657 148.657C420.657 150.01 421.755 151.108 423.108 151.108Z" fill="#FFF0C9"/>
<path d="M421.358 148.815C421.27 148.815 421.2 148.745 421.2 148.657C421.2 147.606 422.057 146.748 423.108 146.748C423.197 146.748 423.267 146.818 423.267 146.907C423.267 146.996 423.197 147.066 423.108 147.066C422.232 147.066 421.517 147.78 421.517 148.657C421.517 148.745 421.447 148.815 421.358 148.815Z" fill="#352E38"/>
<path d="M442.833 151.107C444.187 151.107 445.284 150.01 445.284 148.656C445.284 147.303 444.187 146.205 442.833 146.205C441.479 146.205 440.382 147.303 440.382 148.656C440.382 150.01 441.479 151.107 442.833 151.107Z" fill="#FFF0C9"/>
<path d="M444.583 148.815C444.494 148.815 444.424 148.745 444.424 148.657C444.424 147.78 443.71 147.066 442.834 147.066C442.745 147.066 442.675 146.996 442.675 146.907C442.675 146.818 442.745 146.748 442.834 146.748C443.885 146.748 444.742 147.606 444.742 148.657C444.742 148.745 444.672 148.815 444.583 148.815Z" fill="#352E38"/>
<path d="M437.422 139.467C437.302 140.639 437.524 141.842 438.054 142.893C438.368 143.512 439.213 144.157 439.908 144.157C441.194 144.157 442.194 143.09 442.194 142.185C442.194 142.185 441.931 133.396 432.971 133.396C425.265 133.396 423.747 139.067 423.747 144.649C423.747 144.928 424.642 145.116 425.547 145.116C432.974 145.116 433.387 140.633 433.447 139.759C433.447 139.759 433.669 141.791 435.479 141.791C437.038 141.791 437.422 139.467 437.422 139.467Z" fill="#352E38"/>
</g>
<path d="M487.806 146.89H489.468V149.726H487.806V152.362H484.726V149.726H477.393V146.89L482.555 136.853H485.834L480.694 146.89H484.726V143.212H487.806V146.89ZM494.388 142.503H495.983C497.468 142.503 498.73 142.946 499.75 143.854C500.769 144.741 501.278 145.981 501.278 147.577C501.278 149.172 500.747 150.413 499.661 151.321C498.598 152.229 497.29 152.672 495.739 152.672C493.236 152.672 491.197 151.543 490.333 149.349L492.948 147.82C493.324 149.061 494.255 149.681 495.739 149.681C497.312 149.681 498.221 148.884 498.221 147.577C498.221 146.314 497.312 145.472 495.828 145.472H491.131L491.751 136.853H500.547V139.711H494.587L494.388 142.503ZM508.885 142.813C508.176 143.5 507.29 143.854 506.226 143.854C505.163 143.854 504.277 143.5 503.545 142.791C502.836 142.082 502.482 141.218 502.482 140.199C502.482 139.18 502.836 138.315 503.545 137.606C504.277 136.897 505.163 136.543 506.226 136.543C507.29 136.543 508.176 136.897 508.885 137.606C509.594 138.293 509.948 139.157 509.948 140.199C509.948 141.24 509.594 142.104 508.885 142.813ZM505.384 150.789L504.055 150.014L514.158 138.781L515.51 139.534L505.384 150.789ZM505.207 141.218C505.739 141.75 506.669 141.75 507.201 141.218C507.733 140.664 507.733 139.733 507.201 139.202C506.669 138.67 505.739 138.67 505.207 139.202C504.697 139.733 504.697 140.664 505.207 141.218ZM516.374 151.565C515.665 152.274 514.778 152.628 513.715 152.628C512.651 152.628 511.765 152.274 511.056 151.565C510.347 150.856 509.993 149.992 509.993 148.972C509.993 147.953 510.347 147.089 511.056 146.38C511.765 145.671 512.651 145.317 513.715 145.317C514.778 145.317 515.665 145.671 516.374 146.38C517.083 147.089 517.437 147.953 517.437 148.972C517.437 149.992 517.083 150.856 516.374 151.565ZM515.089 148.972C515.089 148.175 514.513 147.554 513.715 147.554C512.917 147.554 512.341 148.175 512.341 148.972C512.341 149.77 512.917 150.39 513.715 150.39C514.513 150.39 515.089 149.748 515.089 148.972Z" fill="#FFB200"/>
<path d="M408.5 195.5L402.918 182.165H432.918L408.5 195.5Z" fill="white"/>
</g>
</g>
<defs>
<filter id="filter0_d_648_14077" x="97.3154" y="290.658" width="149.369" height="71.3691" filterUnits="userSpaceOnUse" color-interpolation-filters="sRGB">
<feFlood flood-opacity="0" result="BackgroundImageFix"/>
<feColorMatrix in="SourceAlpha" type="matrix" values="0 0 0 0 0 0 0 0 0 0 0 0 0 0 0 0 0 0 127 0" result="hardAlpha"/>
<feOffset dy="6.34228"/>
<feGaussianBlur stdDeviation="6.34228"/>
<feColorMatrix type="matrix" values="0 0 0 0 0 0 0 0 0 0.145098 0 0 0 0 0.368627 0 0 0 0.1 0"/>
<feBlend mode="normal" in2="BackgroundImageFix" result="effect1_dropShadow_648_14077"/>
<feBlend mode="normal" in="SourceGraphic" in2="effect1_dropShadow_648_14077" result="shape"/>
</filter>
<filter id="filter1_d_648_14077" x="388.315" y="327.658" width="149.369" height="69.3691" filterUnits="userSpaceOnUse" color-interpolation-filters="sRGB">
<feFlood flood-opacity="0" result="BackgroundImageFix"/>
<feColorMatrix in="SourceAlpha" type="matrix" values="0 0 0 0 0 0 0 0 0 0 0 0 0 0 0 0 0 0 127 0" result="hardAlpha"/>
<feOffset dy="6.34228"/>
<feGaussianBlur stdDeviation="6.34228"/>
<feColorMatrix type="matrix" values="0 0 0 0 0 0 0 0 0 0.145098 0 0 0 0 0.368627 0 0 0 0.1 0"/>
<feBlend mode="normal" in2="BackgroundImageFix" result="effect1_dropShadow_648_14077"/>
<feBlend mode="normal" in="SourceGraphic" in2="effect1_dropShadow_648_14077" result="shape"/>
</filter>
<filter id="filter2_d_648_14077" x="136" y="163" width="331.47" height="329.255" filterUnits="userSpaceOnUse" color-interpolation-filters="sRGB">
<feFlood flood-opacity="0" result="BackgroundImageFix"/>
<feColorMatrix in="SourceAlpha" type="matrix" values="0 0 0 0 0 0 0 0 0 0 0 0 0 0 0 0 0 0 127 0" result="hardAlpha"/>
<feOffset dy="20"/>
<feGaussianBlur stdDeviation="20"/>
<feColorMatrix type="matrix" values="0 0 0 0 0 0 0 0 0 0.145098 0 0 0 0 0.368627 0 0 0 0.1 0"/>
<feBlend mode="normal" in2="BackgroundImageFix" result="effect1_dropShadow_648_14077"/>
<feBlend mode="normal" in="SourceGraphic" in2="effect1_dropShadow_648_14077" result="shape"/>
</filter>
<filter id="filter3_d_648_14077" x="15.6185" y="134.809" width="191.506" height="133.763" filterUnits="userSpaceOnUse" color-interpolation-filters="sRGB">
<feFlood flood-opacity="0" result="BackgroundImageFix"/>
<feColorMatrix in="SourceAlpha" type="matrix" values="0 0 0 0 0 0 0 0 0 0 0 0 0 0 0 0 0 0 127 0" result="hardAlpha"/>
<feOffset dy="10.1908"/>
<feGaussianBlur stdDeviation="10.1908"/>
<feColorMatrix type="matrix" values="0 0 0 0 0 0 0 0 0 0.145098 0 0 0 0 0.368627 0 0 0 0.1 0"/>
<feBlend mode="normal" in2="BackgroundImageFix" result="effect1_dropShadow_648_14077"/>
<feBlend mode="normal" in="SourceGraphic" in2="effect1_dropShadow_648_14077" result="shape"/>
</filter>
<filter id="filter4_d_648_14077" x="173.618" y="24.8092" width="197.506" height="122.763" filterUnits="userSpaceOnUse" color-interpolation-filters="sRGB">
<feFlood flood-opacity="0" result="BackgroundImageFix"/>
<feColorMatrix in="SourceAlpha" type="matrix" values="0 0 0 0 0 0 0 0 0 0 0 0 0 0 0 0 0 0 127 0" result="hardAlpha"/>
<feOffset dy="10.1908"/>
<feGaussianBlur stdDeviation="10.1908"/>
<feColorMatrix type="matrix" values="0 0 0 0 0 0 0 0 0 0.145098 0 0 0 0 0.368627 0 0 0 0.1 0"/>
<feBlend mode="normal" in2="BackgroundImageFix" result="effect1_dropShadow_648_14077"/>
<feBlend mode="normal" in="SourceGraphic" in2="effect1_dropShadow_648_14077" result="shape"/>
</filter>
<filter id="filter5_d_648_14077" x="364.618" y="96.8092" width="192.415" height="129.263" filterUnits="userSpaceOnUse" color-interpolation-filters="sRGB">
<feFlood flood-opacity="0" result="BackgroundImageFix"/>
<feColorMatrix in="SourceAlpha" type="matrix" values="0 0 0 0 0 0 0 0 0 0 0 0 0 0 0 0 0 0 127 0" result="hardAlpha"/>
<feOffset dy="10.1908"/>
<feGaussianBlur stdDeviation="10.1908"/>
<feColorMatrix type="matrix" values="0 0 0 0 0 0 0 0 0 0.145098 0 0 0 0 0.368627 0 0 0 0.1 0"/>
<feBlend mode="normal" in2="BackgroundImageFix" result="effect1_dropShadow_648_14077"/>
<feBlend mode="normal" in="SourceGraphic" in2="effect1_dropShadow_648_14077" result="shape"/>
</filter>
<clipPath id="clip0_648_14077">
<rect width="570" height="475" fill="white"/>
</clipPath>
</defs>
</svg>
