<svg width="81" height="80" viewBox="0 0 81 80" fill="none" xmlns="http://www.w3.org/2000/svg">
<circle cx="40.002" cy="40" r="40" fill="#E9EDF6"/>
<path d="M54.8333 23.375H26.1667C25.6915 23.375 25.2358 23.5638 24.8998 23.8998C24.5638 24.2358 24.375 24.6915 24.375 25.1667V53.8333C24.375 54.3085 24.5638 54.7642 24.8998 55.1002C25.2358 55.4362 25.6915 55.625 26.1667 55.625H41.6019V43.155H37.413V38.2727H41.6019V34.6894C41.6019 30.5237 44.146 28.2537 47.8727 28.2537C49.1251 28.2501 50.3792 28.3146 51.6262 28.4454V32.7812H49.0552C47.0342 32.7812 46.64 33.7452 46.64 35.1552V38.2638H51.4722L50.8451 43.146H46.6382V55.625H54.8333C55.3085 55.625 55.7642 55.4362 56.1002 55.1002C56.4362 54.7642 56.625 54.3085 56.625 53.8333V25.1667C56.625 24.6915 56.4362 24.2358 56.1002 23.8998C55.7642 23.5638 55.3085 23.375 54.8333 23.375Z" fill="#3B5998"/>
</svg>
