<svg width="81" height="80" viewBox="0 0 81 80" fill="none" xmlns="http://www.w3.org/2000/svg">
<circle cx="40.002" cy="40" r="40" fill="#FCF5FD"/>
<path fill-rule="evenodd" clip-rule="evenodd" d="M26.9718 28.7061H52.0888C54.0704 28.7061 55.6768 30.3125 55.6768 32.2941V48.4411C55.6761 50.4239 54.0691 52.0297 52.0876 52.0291L26.9718 52.0291C24.9902 52.0291 23.3838 50.4227 23.3838 48.4411L23.3838 32.2941C23.3838 30.3125 24.9902 28.7061 26.9718 28.7061ZM50.5538 32.0061L39.5308 37.9421L28.5068 32.0061C27.8541 31.6678 27.0508 31.9157 26.7023 32.563C26.3538 33.2103 26.5891 34.0174 27.2308 34.3761L38.8928 40.6551C39.2911 40.8695 39.7705 40.8695 40.1688 40.6551L51.8298 34.3761C52.2612 34.1525 52.5386 33.7137 52.5556 33.2281C52.5726 32.7424 52.3265 32.2854 51.9117 32.0322C51.497 31.779 50.978 31.769 50.5538 32.0061Z" fill="#7633B1"/>
</svg>
