<svg width="81" height="80" viewBox="0 0 81 80" fill="none" xmlns="http://www.w3.org/2000/svg">
<circle cx="40.002" cy="40" r="40" fill="#FFE3DE"/>
<path fill-rule="evenodd" clip-rule="evenodd" d="M42.5681 45.6909L46.7071 41.5519C47.8492 40.4078 48.1312 38.6612 47.4071 37.2159L47.1731 36.7469C46.449 35.3015 46.731 33.555 47.8731 32.4109L53.0061 27.2779C53.2195 27.0661 53.5215 26.9693 53.8183 27.0176C54.1151 27.0658 54.3708 27.2533 54.5061 27.5219L56.5901 31.6689C58.1766 34.8412 57.555 38.6728 55.0471 41.1809L43.7801 52.4469C41.05 55.1768 37.0118 56.1299 33.3491 54.9089L28.8141 53.3979C28.5053 53.295 28.2718 53.0395 28.197 52.7227C28.1222 52.4059 28.2169 52.073 28.4471 51.8429L33.4261 46.8629C34.5702 45.7207 36.3167 45.4388 37.7621 46.1629L38.2311 46.3969C39.678 47.1199 41.4252 46.8355 42.5681 45.6909Z" fill="#FF715B"/>
<path opacity="0.3" fill-rule="evenodd" clip-rule="evenodd" d="M44.5748 29.2061L44.2158 32.9451C41.4271 32.6751 38.6634 33.6643 36.6793 35.6426C34.6952 37.6208 33.698 40.3816 33.9598 43.1711L30.2198 43.5201C29.8539 39.6158 31.2498 35.7518 34.0267 32.9829C36.8036 30.2139 40.6715 28.829 44.5748 29.2061L44.5748 29.2061ZM45.2318 21.7221L44.8838 25.4581C39.8755 24.9874 34.9178 26.7723 31.3588 30.3274C27.7998 33.8825 26.0095 38.8383 26.4748 43.8471L22.7338 44.1901C22.1696 38.0705 24.3591 32.0173 28.7075 27.6745C33.0559 23.3317 39.1119 21.1501 45.2308 21.7221L45.2318 21.7221Z" fill="#FF715B"/>
</svg>
